<svg width="40" height="40" viewBox="0 0 40 40" fill="none" xmlns="http://www.w3.org/2000/svg">
<circle cx="20" cy="20" r="19.5" stroke="#5E5356"/>
<path d="M28 18.438C28 18.0876 27.9416 17.6788 27.9416 17.2117C27.8832 16.7445 27.8248 16.2774 27.7664 15.8686C27.6496 15.4015 27.4745 15.0511 27.1241 14.7591C26.8321 14.4672 26.4234 14.292 26.0146 14.2336C24.6715 14.0584 22.6861 14 20 14C17.3139 14 15.2701 14.0584 13.9854 14.2336C13.5766 14.292 13.1679 14.4672 12.8759 14.7591C12.5839 15.0511 12.3504 15.4015 12.2336 15.8686C12.1168 16.2774 12.0584 16.6861 12.0584 17.2117C12 17.6788 12 18.0876 12 18.438C12 18.7883 12 19.1971 12 19.781C12 20.365 12 20.8321 12 21.1241C12 21.4745 12.0584 21.8832 12.0584 22.3504C12.1168 22.8175 12.1752 23.2847 12.2336 23.6934C12.3504 24.1606 12.5255 24.511 12.8759 24.8029C13.1679 25.0949 13.5766 25.2701 13.9854 25.3285C15.3285 25.5036 17.3139 25.562 20 25.562C22.6861 25.562 24.7299 25.5036 26.0146 25.3285C26.4234 25.2701 26.8321 25.0949 27.1241 24.8029C27.4161 24.511 27.6496 24.1606 27.7664 23.6934C27.8832 23.2847 27.9416 22.8759 27.9416 22.3504C28 21.8832 28 21.4745 28 21.1241C28 20.7737 28 20.365 28 19.781C28 19.1971 28 18.7299 28 18.438ZM23.0949 20.2482L18.4818 23.1095C18.4234 23.1679 18.3066 23.2263 18.1898 23.2263C18.073 23.2263 18.0146 23.2263 17.8978 23.1679C17.7226 23.0511 17.6058 22.8759 17.6058 22.6423V16.8613C17.6058 16.6277 17.7226 16.4526 17.8978 16.3358C18.073 16.219 18.3066 16.219 18.4818 16.3358L23.0949 19.1971C23.2701 19.3139 23.3869 19.4891 23.3869 19.6642C23.3869 19.8394 23.2701 20.1314 23.0949 20.2482Z" fill="white"/>
</svg>
