<svg width="70" height="70" viewBox="0 0 70 70" fill="none" xmlns="http://www.w3.org/2000/svg">
<g clip-path="url(#clip0_282_7280)">
<path d="M33.0116 69.8899C32.6694 69.7098 32.3904 69.4296 32.2118 69.0867C32.0332 68.7438 31.9636 68.3546 32.0121 67.971C32.0121 65.2126 32.0121 62.4542 32.0121 59.7058C32.0121 58.4765 31.5424 58.0068 30.3131 58.0068H26.3154C26.1265 58.023 25.9362 57.9998 25.7567 57.9386C25.5772 57.8773 25.4124 57.7795 25.2726 57.6513C25.1329 57.523 25.0214 57.3671 24.9451 57.1935C24.8688 57.0199 24.8294 56.8323 24.8294 56.6426C24.8294 56.4529 24.8688 56.2654 24.9451 56.0917C25.0214 55.9181 25.1329 55.7622 25.2726 55.634C25.4124 55.5057 25.5772 55.4079 25.7567 55.3467C25.9362 55.2855 26.1265 55.2622 26.3154 55.2784C27.7746 55.2784 29.2238 55.2784 30.6829 55.2784C31.2213 55.2662 31.7567 55.3629 32.2568 55.5628C32.757 55.7626 33.2116 56.0614 33.5933 56.4413C33.9751 56.8212 34.2762 57.2744 34.4785 57.7735C34.6807 58.2727 34.7801 58.8075 34.7705 59.346C34.7705 61.6747 34.7705 63.9933 34.7705 66.342V67.1415H45.7141V66.3919C45.7141 64.0933 45.7141 61.7946 45.7141 59.4959C45.6934 58.9373 45.7875 58.3803 45.9906 57.8595C46.1937 57.3386 46.5015 56.865 46.8949 56.4678C47.2883 56.0707 47.759 55.7584 48.2779 55.5504C48.7968 55.3424 49.3529 55.243 49.9117 55.2584H65.3527C66.7319 55.2584 67.1716 54.8387 67.1716 53.4795V35.4899H56.238V42.6757C56.238 43.8551 55.7483 44.3248 54.569 44.3348H47.4631C46.2039 44.3348 45.7141 43.8451 45.7141 42.6058V35.4699H34.7905V36.1895C34.7905 38.3283 34.7905 40.467 34.7905 42.6058C34.7905 43.8451 34.3308 44.3148 33.1115 44.3248H22.1779C20.9286 44.3248 20.4389 43.8351 20.4389 42.5858V35.4999H9.50524V53.4195C9.50524 54.8087 9.95498 55.2484 11.3542 55.2484C12.1437 55.2484 12.9432 55.2484 13.7428 55.2484C13.931 55.2376 14.1194 55.2651 14.2966 55.3294C14.4738 55.3937 14.6361 55.4935 14.7736 55.6225C14.911 55.7515 15.0207 55.9072 15.0961 56.08C15.1715 56.2528 15.2109 56.4391 15.2119 56.6276C15.2068 56.8105 15.1653 56.9905 15.0899 57.1572C15.0146 57.324 14.9068 57.474 14.7728 57.5986C14.6389 57.7233 14.4815 57.82 14.3098 57.8832C14.1381 57.9464 13.9555 57.9749 13.7728 57.9668C12.7733 57.9668 11.7239 57.9668 10.7045 57.9668C9.66392 57.9286 8.6776 57.4927 7.94875 56.749C7.21989 56.0053 6.80403 55.0103 6.78682 53.9692C6.78682 47.413 6.78682 40.8568 6.78682 34.3006C6.75556 34.0864 6.77441 33.8679 6.84189 33.6623C6.90937 33.4566 7.02364 33.2694 7.17572 33.1154C7.3278 32.9614 7.51353 32.8448 7.71832 32.7747C7.9231 32.7046 8.14136 32.683 8.35591 32.7115H10.6746C10.7431 32.6942 10.81 32.6708 10.8744 32.6416C10.8744 31.6921 10.8744 30.7227 10.8744 29.7533C10.8744 29.5734 10.5346 29.3335 10.3048 29.2536C7.99578 28.5077 5.90522 27.2064 4.21667 25.4638C2.52812 23.7212 1.29322 21.5907 0.620415 19.2594C-0.216229 16.4424 -0.206498 13.4416 0.648398 10.6301C1.50329 7.81854 3.16565 5.32027 5.42882 3.44581C7.692 1.57136 10.4562 0.40339 13.3777 0.0870983C16.2993 -0.229193 19.2494 0.320142 21.8613 1.66682C24.4732 3.01349 26.6317 5.09811 28.0685 7.66153C29.5053 10.225 30.157 13.1541 29.9426 16.0849C29.7282 19.0157 28.6572 21.8189 26.8627 24.1459C25.0681 26.473 22.6293 28.2213 19.8492 29.1736C19.2396 29.3835 19.0397 29.6433 19.0897 30.273C19.1496 31.0625 19.0897 31.852 19.0897 32.7315H21.6382C21.8492 32.7032 22.0638 32.7242 22.2654 32.7927C22.4669 32.8612 22.6499 32.9754 22.7999 33.1264C22.9499 33.2774 23.063 33.4611 23.1302 33.6631C23.1974 33.865 23.2169 34.0798 23.1873 34.2906C23.1873 36.4494 23.1873 38.6181 23.1873 40.7768V41.5664H32.0721V38.2683C32.0721 36.9191 32.0721 35.5799 32.0721 34.2706C32.0532 34.0647 32.0803 33.8571 32.1513 33.6629C32.2222 33.4687 32.3354 33.2926 32.4826 33.1473C32.6298 33.002 32.8073 32.8912 33.0025 32.8227C33.1976 32.7543 33.4055 32.73 33.6112 32.7515C35.1303 32.7515 35.1303 32.7515 35.5101 31.1824L35.8099 30.0131C35.2602 30.0131 34.8105 30.0131 34.2908 30.0131C34.0846 30.0352 33.8761 30.0108 33.6805 29.9418C33.485 29.8727 33.3073 29.7608 33.1607 29.6141C33.014 29.4675 32.9021 29.2899 32.8331 29.0943C32.764 28.8988 32.7396 28.6902 32.7617 28.484C32.7617 22.2277 32.7617 15.9646 32.7617 9.69495C32.7368 9.48421 32.7605 9.27056 32.8311 9.07041C32.9016 8.87026 33.017 8.68892 33.1685 8.54032C33.32 8.39172 33.5035 8.2798 33.705 8.21316C33.9065 8.14651 34.1206 8.1269 34.3308 8.15585H36.1697V4.31809C36.1697 3.14877 36.6694 2.64906 37.8287 2.64906C39.4978 2.64906 41.1568 2.64906 42.8258 2.64906C43.0372 2.61862 43.2528 2.63805 43.4553 2.70579C43.6579 2.77354 43.8417 2.88773 43.9923 3.03923C44.1428 3.19072 44.2558 3.37533 44.3222 3.5783C44.3887 3.78127 44.4067 3.99696 44.3749 4.20815C44.3749 5.47741 44.3749 6.74667 44.3749 8.10588H46.2139C46.4191 8.07573 46.6284 8.09294 46.8259 8.15619C47.0235 8.21943 47.2039 8.32704 47.3534 8.47077C47.5029 8.61449 47.6175 8.79053 47.6885 8.9854C47.7595 9.18026 47.785 9.38879 47.763 9.59501C47.763 15.8847 47.763 22.1677 47.763 28.444C47.7873 28.6503 47.7644 28.8593 47.696 29.0554C47.6276 29.2515 47.5155 29.4294 47.3682 29.5758C47.2209 29.7222 47.0422 29.8331 46.8456 29.9002C46.6491 29.9673 46.4399 29.9888 46.2338 29.9631C45.7641 29.9631 45.2344 29.9631 44.7647 29.9631L45.4543 32.6916H46.9135C47.1191 32.6655 47.3281 32.6869 47.5242 32.754C47.7204 32.8212 47.8986 32.9323 48.0452 33.0789C48.1918 33.2255 48.303 33.4037 48.3701 33.5999C48.4372 33.7961 48.4586 34.005 48.4326 34.2107C48.4326 36.4827 48.4326 38.758 48.4326 41.0367V41.5364H53.4796V40.8168C53.4796 38.6581 53.4796 36.4893 53.4796 34.3306C53.442 34.1087 53.4578 33.8811 53.5255 33.6664C53.5933 33.4518 53.7111 33.2564 53.8692 33.0963C54.0274 32.9362 54.2214 32.816 54.4351 32.7456C54.6489 32.6752 54.8763 32.6567 55.0987 32.6916H56.9376C56.5962 32.1314 56.3723 31.5076 56.2795 30.8581C56.1867 30.2087 56.227 29.5471 56.3979 28.9138C56.7597 27.7253 56.6889 26.4471 56.198 25.3059C56.0633 24.7307 55.8964 24.1634 55.6983 23.6069C54.519 20.8585 55.0487 18.0101 55.1886 15.1918C55.2586 13.8425 55.3585 12.5033 55.4385 11.1941C55.4101 10.7773 55.4743 10.3594 55.6266 9.9704C55.7789 9.58141 56.0155 9.23098 56.3194 8.94431C56.6233 8.65765 56.9869 8.44185 57.3841 8.31243C57.7813 8.18302 58.2022 8.14319 58.6166 8.19583H65.0329C65.4195 8.16352 65.8087 8.21285 66.175 8.34062C66.5414 8.46838 66.8768 8.67173 67.1595 8.93748C67.4422 9.20322 67.6659 9.52542 67.8161 9.88318C67.9662 10.2409 68.0395 10.6263 68.0311 11.0142C68.1911 13.7626 68.4109 16.511 68.5309 19.2594C68.5576 20.1409 68.4635 21.0219 68.251 21.8779C67.8213 23.6468 67.2516 25.3758 66.7819 27.1348C66.7121 27.3662 66.7121 27.613 66.7819 27.8444C67.1045 28.5876 67.2601 29.3926 67.2376 30.2025C67.2152 31.0124 67.0152 31.8075 66.652 32.5317C66.6462 32.5982 66.6462 32.665 66.652 32.7315C67.8013 33.0014 69.2504 32.2318 70 33.731V54.5688C69.3904 56.9674 67.6314 58.0668 65.0029 58.0168C60.0858 57.9169 55.1686 58.0168 50.2515 58.0168C49.0422 58.0168 48.5525 58.5165 48.5525 59.7158C48.5525 62.5142 48.5525 65.3226 48.5525 68.1209C48.593 68.4847 48.5184 68.8521 48.3391 69.1713C48.1598 69.4904 47.8849 69.7453 47.5531 69.8999L33.0116 69.8899ZM27.2849 14.9219C27.2809 12.4916 26.5573 10.117 25.2052 8.09749C23.8531 6.07803 21.9333 4.50424 19.6878 3.57468C17.4423 2.64512 14.9718 2.40143 12.588 2.87435C10.2041 3.34728 8.01379 4.51564 6.29323 6.23202C4.57267 7.9484 3.39899 10.1359 2.92028 12.5186C2.44156 14.9013 2.67924 17.3723 3.60334 19.6201C4.52745 21.8678 6.09656 23.7915 8.11274 25.1485C10.1289 26.5054 12.5018 27.2349 14.9321 27.2447C16.554 27.2526 18.1614 26.9395 19.6617 26.3234C21.162 25.7073 22.5256 24.8004 23.6739 23.6549C24.8221 22.5095 25.7323 21.1481 26.3521 19.6493C26.9718 18.1505 27.2889 16.5438 27.2849 14.9219ZM35.4901 27.1448H44.9946V10.9242H35.4901V27.1448ZM65.7325 18.9696L65.2228 10.9242H58.2269L57.7172 19.0595L65.7325 18.9696ZM64.4432 29.9631C64.4472 29.605 64.3801 29.2495 64.2457 28.9175C64.1114 28.5854 63.9125 28.2833 63.6606 28.0286C63.4087 27.7739 63.1088 27.5717 62.7783 27.4337C62.4477 27.2958 62.093 27.2247 61.7348 27.2247C61.0112 27.2247 60.3172 27.5122 59.8055 28.0239C59.2939 28.5356 59.0064 29.2295 59.0064 29.9532C59.0064 30.6768 59.2939 31.3708 59.8055 31.8824C60.3172 32.3941 61.0112 32.6816 61.7348 32.6816C62.4514 32.6816 63.1388 32.3976 63.6464 31.8918C64.1541 31.3861 64.4406 30.6997 64.4432 29.9831V29.9631ZM65.3527 21.8179H58.0969L59.0964 25.1659C59.9188 24.7259 60.8371 24.4957 61.7698 24.4957C62.7025 24.4957 63.6208 24.7259 64.4432 25.1659L65.3527 21.8179ZM42.606 32.6716C42.4061 31.8321 42.2162 31.0425 41.9963 30.253C41.9597 30.1805 41.906 30.1181 41.8398 30.0711C41.7736 30.0241 41.697 29.9939 41.6165 29.9831C40.737 29.9831 39.8476 29.9831 38.9581 29.9831C38.8704 29.9957 38.7872 30.0296 38.7157 30.0819C38.6443 30.1341 38.5868 30.2032 38.5483 30.283C38.3185 31.0625 38.1386 31.852 37.9487 32.6616L42.606 32.6716ZM41.6065 5.40745H38.9181V8.0659H41.5866L41.6065 5.40745ZM16.2913 32.6816V29.9731H13.6528V32.6816H16.2913Z" fill="white"/>
<path d="M21.317 56.628C21.3157 56.8082 21.2786 56.9863 21.2078 57.152C21.137 57.3178 21.034 57.4678 20.9048 57.5933C20.7755 57.7189 20.6225 57.8175 20.4548 57.8834C20.2871 57.9493 20.1079 57.9812 19.9278 57.9772C19.6581 57.9791 19.3939 57.9009 19.1689 57.7523C18.9438 57.6037 18.7681 57.3915 18.664 57.1427C18.5599 56.894 18.5321 56.6199 18.5842 56.3553C18.6364 56.0907 18.766 55.8476 18.9567 55.6569C19.1474 55.4662 19.3905 55.3365 19.6551 55.2844C19.9197 55.2323 20.1938 55.2601 20.4425 55.3642C20.6913 55.4683 20.9035 55.644 21.0521 55.8691C21.2007 56.0941 21.2789 56.3583 21.277 56.628H21.317Z" fill="white"/>
<path d="M15.2798 19.0395C14.6327 19.0791 13.9855 18.9658 13.3904 18.7086C12.7954 18.4515 12.2692 18.0579 11.8546 17.5596C11.44 17.0613 11.1486 16.4723 11.004 15.8405C10.8594 15.2086 10.8656 14.5515 11.0222 13.9225C11.0954 13.7143 11.1031 13.4887 11.0441 13.276C10.9851 13.0634 10.8624 12.8739 10.6924 12.7332C9.81294 11.9236 8.93345 10.9242 8.13392 10.0247C7.97256 9.86967 7.85263 9.67664 7.78509 9.46327C7.71756 9.24991 7.70457 9.02303 7.74731 8.80335C7.79005 8.58368 7.88716 8.37822 8.02977 8.20574C8.17238 8.03327 8.35594 7.89928 8.56367 7.81603C8.80177 7.69809 9.0723 7.66255 9.33278 7.71501C9.59326 7.76747 9.82894 7.90495 10.0028 8.10586C10.8523 8.99534 11.7118 9.86483 12.5314 10.7743C12.6555 10.9562 12.8408 11.0876 13.0535 11.1444C13.2663 11.2013 13.4924 11.1799 13.6907 11.0841C14.4306 10.7962 15.2421 10.7474 16.0111 10.9446C16.7802 11.1418 17.4681 11.5751 17.9782 12.1835C18.5457 12.7539 18.9195 13.4883 19.0468 14.2828C19.1742 15.0773 19.0486 15.8917 18.6878 16.6109C18.4064 17.2958 17.9371 17.8872 17.3341 18.3169C16.7311 18.7466 16.019 18.9971 15.2798 19.0395ZM16.2792 14.9519C16.2812 14.6822 16.2029 14.418 16.0543 14.193C15.9057 13.968 15.6935 13.7922 15.4447 13.6881C15.196 13.584 14.9219 13.5562 14.6573 13.6083C14.3927 13.6605 14.1496 13.7901 13.9589 13.9808C13.7682 14.1715 13.6386 14.4146 13.5864 14.6792C13.5343 14.9438 13.5621 15.2179 13.6662 15.4667C13.7703 15.7154 13.946 15.9276 14.1711 16.0762C14.3961 16.2248 14.6603 16.3031 14.93 16.3011C15.1124 16.3024 15.2933 16.2678 15.4623 16.1992C15.6314 16.1306 15.7853 16.0293 15.9152 15.9013C16.0451 15.7732 16.1486 15.6208 16.2196 15.4528C16.2906 15.2847 16.3278 15.1043 16.3291 14.9219L16.2792 14.9519Z" fill="white"/>
<path d="M13.7236 6.70674C13.7249 6.53002 13.7612 6.3553 13.8303 6.19266C13.8995 6.03002 14.0001 5.88268 14.1264 5.75911C14.2528 5.63555 14.4024 5.53822 14.5665 5.47272C14.7306 5.40723 14.9061 5.37487 15.0828 5.37752C15.2718 5.36605 15.4611 5.39389 15.6388 5.4593C15.8164 5.5247 15.9786 5.62624 16.1151 5.7575C16.2515 5.88877 16.3592 6.0469 16.4314 6.22191C16.5037 6.39692 16.5388 6.58501 16.5346 6.77429C16.5305 6.96357 16.4871 7.14993 16.4073 7.3216C16.3274 7.49327 16.2129 7.64651 16.0708 7.77166C15.9287 7.8968 15.7622 7.99111 15.5819 8.04865C15.4015 8.10619 15.2112 8.12569 15.0229 8.10593C14.8456 8.09948 14.6714 8.05817 14.5102 7.98434C14.3489 7.91052 14.2038 7.80563 14.0832 7.67568C13.9625 7.54573 13.8686 7.39326 13.8069 7.227C13.7452 7.06074 13.7169 6.88395 13.7236 6.70674Z" fill="white"/>
<path d="M23.1878 13.8428C23.543 13.8428 23.8836 13.9839 24.1348 14.235C24.3859 14.4862 24.527 14.8268 24.527 15.182C24.5252 15.5363 24.3891 15.8767 24.1461 16.1345C23.9031 16.3923 23.5713 16.5484 23.2178 16.5712C22.8437 16.556 22.4896 16.3986 22.2277 16.1311C21.9658 15.8636 21.8159 15.5063 21.8086 15.132C21.8137 14.9566 21.8536 14.7839 21.9258 14.6239C21.9981 14.4639 22.1013 14.3199 22.2295 14.2C22.3578 14.0801 22.5085 13.9868 22.6729 13.9255C22.8374 13.8642 23.0124 13.8361 23.1878 13.8428Z" fill="white"/>
<path d="M9.19558 22.178C9.01486 22.1716 8.83721 22.1295 8.67287 22.054C8.50853 21.9785 8.36076 21.8713 8.23811 21.7384C8.11545 21.6055 8.02033 21.4497 7.95824 21.2798C7.89615 21.11 7.86832 20.9295 7.87635 20.7489C7.89195 20.3945 8.04647 20.0605 8.30646 19.8192C8.56645 19.578 8.911 19.4488 9.26554 19.4596C9.61917 19.4724 9.95435 19.6206 10.2018 19.8736C10.4492 20.1266 10.5899 20.465 10.5948 20.8188C10.5869 21.1838 10.4357 21.531 10.1739 21.7853C9.91204 22.0397 9.56061 22.1807 9.19558 22.178Z" fill="white"/>
<path d="M21.9273 20.8289C21.9234 21.0101 21.8838 21.1887 21.8109 21.3545C21.738 21.5203 21.6331 21.6702 21.5022 21.7955C21.3714 21.9208 21.2171 22.0191 21.0482 22.0847C20.8794 22.1504 20.6992 22.1821 20.5181 22.1781C20.1576 22.1662 19.8166 22.0116 19.5702 21.7482C19.3237 21.4849 19.1919 21.1344 19.2039 20.774C19.2158 20.4135 19.3704 20.0725 19.6338 19.826C19.8971 19.5796 20.2476 19.4478 20.6081 19.4597C20.9616 19.4751 21.2958 19.6258 21.5413 19.8807C21.7869 20.1355 21.9251 20.475 21.9273 20.8289Z" fill="white"/>
<path d="M20.9283 10.6042C20.5711 10.6123 20.2251 10.4795 19.9651 10.2345C19.7052 9.9895 19.5521 9.65198 19.5391 9.29498C19.5443 8.93002 19.693 8.58179 19.9529 8.32557C20.2129 8.06936 20.5633 7.92574 20.9283 7.92578C21.2731 7.94093 21.5993 8.08674 21.8406 8.3336C22.0819 8.58046 22.2202 8.90988 22.2275 9.25501C22.2315 9.42909 22.2009 9.60223 22.1377 9.76446C22.0744 9.92669 21.9797 10.0748 21.8589 10.2002C21.7381 10.3256 21.5937 10.4259 21.434 10.4953C21.2742 10.5646 21.1024 10.6016 20.9283 10.6042Z" fill="white"/>
<path d="M8.13672 14.9723C8.12637 15.3267 7.97893 15.6633 7.72541 15.9113C7.4719 16.1592 7.13209 16.2991 6.77751 16.3015C6.59694 16.3029 6.41793 16.268 6.25108 16.199C6.08424 16.1299 5.93296 16.028 5.80621 15.8994C5.67945 15.7708 5.57981 15.618 5.51318 15.4502C5.44655 15.2824 5.41428 15.1029 5.4183 14.9223C5.42625 14.5618 5.57708 14.2193 5.83761 13.97C6.09813 13.7207 6.44701 13.5852 6.80749 13.5931C7.16798 13.6011 7.51054 13.7519 7.75982 14.0124C8.0091 14.2729 8.14467 14.6218 8.13672 14.9823V14.9723Z" fill="white"/>
</g>
<defs>
<clipPath id="clip0_282_7280">
<rect width="70" height="70" fill="white"/>
</clipPath>
</defs>
</svg>
