<svg width="40" height="40" viewBox="0 0 40 40" fill="none" xmlns="http://www.w3.org/2000/svg">
<circle cx="20" cy="20" r="19.5" stroke="#5E5356"/>
<path d="M25.0077 13H14.9923C13.8615 13 13 13.8615 13 14.9923V25.0077C13 26.1385 13.8615 27 14.9923 27H25.0077C26.1385 27 27 26.1385 27 25.0077V14.9923C27 13.8615 26.1385 13 25.0077 13ZM20 24.2C22.3154 24.2 24.2 22.3692 24.2 20.1615C24.2 19.7846 24.1462 19.3538 24.0385 19.0308H25.2231V24.7385C25.2231 25.0077 25.0077 25.2769 24.6846 25.2769H15.3154C15.0462 25.2769 14.7769 25.0615 14.7769 24.7385V18.9769H16.0154C15.9077 19.3538 15.8538 19.7308 15.8538 20.1077C15.8 22.3692 17.6846 24.2 20 24.2ZM20 22.5846C18.4923 22.5846 17.3077 21.4 17.3077 19.9462C17.3077 18.4923 18.4923 17.3077 20 17.3077C21.5077 17.3077 22.6923 18.4923 22.6923 19.9462C22.6923 21.4538 21.5077 22.5846 20 22.5846ZM25.1692 16.8231C25.1692 17.1462 24.9 17.4154 24.5769 17.4154H23.0692C22.7462 17.4154 22.4769 17.1462 22.4769 16.8231V15.3692C22.4769 15.0462 22.7462 14.7769 23.0692 14.7769H24.5769C24.9 14.7769 25.1692 15.0462 25.1692 15.3692V16.8231Z" fill="white"/>
</svg>
