<svg width="25" height="25" viewBox="0 0 25 25" fill="none" xmlns="http://www.w3.org/2000/svg">
<path d="M13.8811 12.5003L24.714 1.66739C25.0954 1.286 25.0954 0.667638 24.714 0.286291C24.3326 -0.095056 23.7142 -0.0951048 23.3329 0.286291L12.5 11.1192L1.66715 0.286291C1.28575 -0.0951048 0.667394 -0.0951048 0.286047 0.286291C-0.0953001 0.667687 -0.0953489 1.28604 0.286047 1.66739L11.1189 12.5002L0.286047 23.3331C-0.0953489 23.7145 -0.0953489 24.3329 0.286047 24.7142C0.47672 24.9049 0.726671 25.0002 0.976622 25.0002C1.22657 25.0002 1.47647 24.9049 1.6672 24.7142L12.5 13.8814L23.3328 24.7142C23.5235 24.9049 23.7735 25.0002 24.0234 25.0002C24.2734 25.0002 24.5233 24.9049 24.714 24.7142C25.0954 24.3328 25.0954 23.7145 24.714 23.3331L13.8811 12.5003Z" fill="#242A2D"/>
</svg>
