<svg width="24" height="24" viewBox="0 0 24 24" fill="none" xmlns="http://www.w3.org/2000/svg">
<path d="M12 0C6.78185 0 2.53662 4.24523 2.53662 9.46335C2.53662 11.3865 3.11041 13.2379 4.19604 14.8172C5.198 16.2749 6.57039 17.4128 8.17848 18.1227L11.2592 23.568C11.4102 23.835 11.6933 24 11.9999 24C12.3065 24 12.5896 23.835 12.7406 23.568L15.8213 18.1227C17.4294 17.4128 18.8018 16.2749 19.8038 14.8172C20.8895 13.2379 21.4633 11.3865 21.4633 9.46335C21.4633 4.24523 17.218 0 12 0ZM14.9046 16.6624C14.7262 16.7346 14.5773 16.865 14.4826 17.0325L12 21.4207L9.5173 17.0325C9.42253 16.865 9.27378 16.7346 9.09533 16.6624C6.14502 15.4707 4.23866 12.6449 4.23866 9.46335C4.23866 5.18374 7.72036 1.70204 12 1.70204C16.2796 1.70204 19.7613 5.18374 19.7613 9.46335C19.7613 12.6449 17.8549 15.4707 14.9046 16.6624Z" fill="#D81961"/>
<path d="M12.0001 5.83862C10.0292 5.83862 8.42578 7.44201 8.42578 9.41291C8.42578 11.3838 10.0292 12.9872 12.0001 12.9872C13.971 12.9872 15.5744 11.3838 15.5744 9.41291C15.5744 7.44201 13.971 5.83862 12.0001 5.83862ZM12.0001 11.2852C10.9677 11.2852 10.1278 10.4453 10.1278 9.41291C10.1278 8.38052 10.9677 7.54066 12.0001 7.54066C13.0325 7.54066 13.8723 8.38052 13.8723 9.41291C13.8723 10.4453 13.0325 11.2852 12.0001 11.2852Z" fill="#D81961"/>
</svg>
