<svg width="211" height="38" viewBox="0 0 211 38" fill="none" xmlns="http://www.w3.org/2000/svg">
<path d="M6.49844 32.27C5.57844 32.27 4.69844 32 3.85844 31.46C3.47844 31.22 3.23844 30.91 3.13844 30.53C3.05844 30.15 3.12844 29.79 3.34844 29.45C3.56844 29.09 3.87844 28.88 4.27844 28.82C4.67844 28.74 5.09844 28.82 5.53844 29.06C5.67844 29.14 5.83844 29.21 6.01844 29.27C6.19844 29.31 6.35844 29.33 6.49844 29.33C7.03844 29.33 7.58844 29.08 8.14844 28.58C8.72844 28.06 9.23844 27.34 9.67844 26.42L17.9284 9.5C18.3684 8.62 19.0184 8.37 19.8784 8.75C20.7384 9.13 20.9484 9.77 20.5084 10.67L12.2584 27.62C11.5384 29.08 10.6884 30.22 9.70844 31.04C8.72844 31.86 7.65844 32.27 6.49844 32.27ZM10.8784 27.26L0.858438 10.82C0.378437 10 0.568437 9.34 1.42844 8.84C2.26844 8.36 2.93844 8.54 3.43844 9.38L12.8284 25.73L10.8784 27.26ZM26.2729 32C25.8329 32 25.4629 31.85 25.1629 31.55C24.8629 31.25 24.7129 30.88 24.7129 30.44V10.13C24.7129 9.67 24.8629 9.3 25.1629 9.02C25.4629 8.72 25.8329 8.57 26.2729 8.57C26.8729 8.57 27.3329 8.85 27.6529 9.41L37.0429 28.22H36.0829L45.2329 9.41C45.5529 8.85 46.0129 8.57 46.6129 8.57C47.0529 8.57 47.4229 8.72 47.7229 9.02C48.0229 9.3 48.1729 9.67 48.1729 10.13V30.44C48.1729 30.88 48.0129 31.25 47.6929 31.55C47.3929 31.85 47.0329 32 46.6129 32C46.1729 32 45.8029 31.85 45.5029 31.55C45.2029 31.25 45.0529 30.88 45.0529 30.44V14.45L45.6529 14.3L37.7929 30.32C37.4529 30.84 37.0029 31.1 36.4429 31.1C35.7829 31.1 35.3029 30.79 35.0029 30.17L27.2329 14.6L27.8329 14.45V30.44C27.8329 30.88 27.6829 31.25 27.3829 31.55C27.0829 31.85 26.7129 32 26.2729 32ZM55.7455 32C55.3055 32 54.9355 31.85 54.6355 31.55C54.3355 31.25 54.1855 30.88 54.1855 30.44V10.13C54.1855 9.67 54.3355 9.3 54.6355 9.02C54.9355 8.72 55.3055 8.57 55.7455 8.57C56.2055 8.57 56.5755 8.72 56.8555 9.02C57.1555 9.3 57.3055 9.67 57.3055 10.13V18.74H71.2255V10.13C71.2255 9.67 71.3755 9.3 71.6755 9.02C71.9755 8.72 72.3455 8.57 72.7855 8.57C73.2455 8.57 73.6155 8.72 73.8955 9.02C74.1755 9.3 74.3155 9.67 74.3155 10.13V30.44C74.3155 30.88 74.1755 31.25 73.8955 31.55C73.6155 31.85 73.2455 32 72.7855 32C72.3455 32 71.9755 31.85 71.6755 31.55C71.3755 31.25 71.2255 30.88 71.2255 30.44V21.5H57.3055V30.44C57.3055 30.88 57.1555 31.25 56.8555 31.55C56.5755 31.85 56.2055 32 55.7455 32ZM81.8784 32C81.4384 32 81.0684 31.85 80.7684 31.55C80.4684 31.25 80.3184 30.88 80.3184 30.44V9.98C80.3184 9.56 80.4684 9.22 80.7684 8.96C81.0684 8.7 81.4384 8.57 81.8784 8.57C82.3384 8.57 82.7084 8.7 82.9884 8.96C83.2884 9.22 83.4384 9.56 83.4384 9.98V17.6H88.4784C89.9784 17.6 91.3084 17.9 92.4684 18.5C93.6284 19.1 94.5284 19.93 95.1684 20.99C95.8284 22.03 96.1584 23.24 96.1584 24.62C96.1584 26.06 95.8284 27.34 95.1684 28.46C94.5284 29.56 93.6284 30.43 92.4684 31.07C91.3084 31.69 89.9784 32 88.4784 32H81.8784ZM83.4384 29.12H88.4784C89.3984 29.12 90.2084 28.95 90.9084 28.61C91.6084 28.27 92.1584 27.77 92.5584 27.11C92.9584 26.43 93.1584 25.6 93.1584 24.62C93.1584 23.62 92.9584 22.81 92.5584 22.19C92.1584 21.55 91.6084 21.08 90.9084 20.78C90.2084 20.46 89.3984 20.3 88.4784 20.3H83.4384V29.12ZM101.228 32C100.788 32 100.418 31.85 100.118 31.55C99.8184 31.25 99.6684 30.88 99.6684 30.44V10.13C99.6684 9.67 99.8184 9.3 100.118 9.02C100.418 8.72 100.788 8.57 101.228 8.57C101.668 8.57 102.028 8.72 102.308 9.02C102.608 9.3 102.758 9.67 102.758 10.13V30.44C102.758 30.88 102.608 31.25 102.308 31.55C102.028 31.85 101.668 32 101.228 32ZM110.386 32C109.946 32 109.566 31.85 109.246 31.55C108.926 31.25 108.766 30.88 108.766 30.44V10.13C108.766 9.67 108.926 9.3 109.246 9.02C109.566 8.72 109.946 8.57 110.386 8.57C110.846 8.57 111.206 8.72 111.466 9.02C111.746 9.3 111.886 9.67 111.886 10.13V27.14L126.286 9.14C126.606 8.76 127.006 8.57 127.486 8.57C127.946 8.57 128.316 8.72 128.596 9.02C128.896 9.3 129.046 9.67 129.046 10.13V30.44C129.046 30.88 128.896 31.25 128.596 31.55C128.316 31.85 127.946 32 127.486 32C127.046 32 126.676 31.85 126.376 31.55C126.076 31.25 125.926 30.88 125.926 30.44V13.46L111.586 31.46C111.446 31.62 111.266 31.75 111.046 31.85C110.826 31.95 110.606 32 110.386 32ZM118.936 6.41C117.916 6.41 116.996 6.24 116.176 5.9C115.356 5.54 114.706 5.06 114.226 4.46C113.746 3.84 113.506 3.15 113.506 2.39C113.506 1.97 113.636 1.62 113.896 1.34C114.156 1.06 114.476 0.92 114.856 0.92C115.256 0.92 115.576 1.06 115.816 1.34C116.076 1.62 116.206 1.97 116.206 2.39C116.206 2.89 116.466 3.32 116.986 3.68C117.506 4.02 118.156 4.19 118.936 4.19C119.716 4.19 120.366 4.02 120.886 3.68C121.406 3.32 121.666 2.89 121.666 2.39C121.666 1.97 121.796 1.62 122.056 1.34C122.316 1.06 122.636 0.92 123.016 0.92C123.416 0.92 123.736 1.06 123.976 1.34C124.236 1.62 124.366 1.97 124.366 2.39C124.366 3.15 124.126 3.84 123.646 4.46C123.166 5.06 122.516 5.54 121.696 5.9C120.896 6.24 119.976 6.41 118.936 6.41ZM154.334 32.3C152.714 32.3 151.194 32 149.774 31.4C148.374 30.78 147.144 29.93 146.084 28.85C145.044 27.75 144.224 26.47 143.624 25.01C143.044 23.55 142.754 21.97 142.754 20.27C142.754 18.59 143.044 17.03 143.624 15.59C144.224 14.13 145.044 12.86 146.084 11.78C147.144 10.68 148.374 9.82 149.774 9.2C151.174 8.58 152.694 8.27 154.334 8.27C155.874 8.27 157.194 8.47 158.294 8.87C159.414 9.27 160.534 9.93 161.654 10.85C161.814 10.97 161.934 11.1 162.014 11.24C162.114 11.36 162.174 11.49 162.194 11.63C162.234 11.75 162.254 11.9 162.254 12.08C162.254 12.46 162.114 12.78 161.834 13.04C161.574 13.28 161.254 13.42 160.874 13.46C160.494 13.48 160.124 13.35 159.764 13.07C159.024 12.43 158.254 11.94 157.454 11.6C156.674 11.26 155.634 11.09 154.334 11.09C153.154 11.09 152.044 11.33 151.004 11.81C149.964 12.29 149.044 12.95 148.244 13.79C147.464 14.63 146.854 15.61 146.414 16.73C145.974 17.83 145.754 19.01 145.754 20.27C145.754 21.55 145.974 22.75 146.414 23.87C146.854 24.97 147.464 25.94 148.244 26.78C149.044 27.62 149.964 28.28 151.004 28.76C152.044 29.22 153.154 29.45 154.334 29.45C155.354 29.45 156.314 29.28 157.214 28.94C158.134 28.58 159.014 28.09 159.854 27.47C160.214 27.21 160.564 27.1 160.904 27.14C161.264 27.16 161.564 27.3 161.804 27.56C162.044 27.8 162.164 28.14 162.164 28.58C162.164 28.78 162.124 28.98 162.044 29.18C161.964 29.36 161.844 29.53 161.684 29.69C160.604 30.55 159.444 31.2 158.204 31.64C156.984 32.08 155.694 32.3 154.334 32.3ZM166.224 32C165.664 32 165.234 31.76 164.934 31.28C164.634 30.8 164.604 30.29 164.844 29.75L173.274 9.62C173.574 8.92 174.064 8.57 174.744 8.57C175.464 8.57 175.954 8.92 176.214 9.62L184.674 29.81C184.894 30.37 184.854 30.88 184.554 31.34C184.274 31.78 183.844 32 183.264 32C182.964 32 182.674 31.92 182.394 31.76C182.134 31.58 181.944 31.34 181.824 31.04L174.384 12.56H175.224L167.664 31.04C167.524 31.36 167.314 31.6 167.034 31.76C166.774 31.92 166.504 32 166.224 32ZM167.814 26.84L169.014 24.26H180.774L181.974 26.84H167.814ZM190.918 31.04L188.248 29.75L196.678 9.62C196.978 8.92 197.468 8.57 198.148 8.57C198.868 8.57 199.358 8.92 199.618 9.62L208.078 29.81L205.588 31.04L197.968 12.56H198.388L190.918 31.04ZM187.558 37.34C187.118 37.34 186.748 37.19 186.448 36.89C186.148 36.59 185.998 36.22 185.998 35.78V30.8C185.998 30.34 186.148 29.97 186.448 29.69C186.748 29.39 187.118 29.24 187.558 29.24H208.678C209.138 29.24 209.508 29.39 209.788 29.69C210.088 29.97 210.238 30.34 210.238 30.8V35.78C210.238 36.22 210.088 36.59 209.788 36.89C209.508 37.19 209.138 37.34 208.678 37.34C208.238 37.34 207.868 37.19 207.568 36.89C207.268 36.59 207.118 36.22 207.118 35.78V32H189.118V35.78C189.118 36.22 188.968 36.59 188.668 36.89C188.388 37.19 188.018 37.34 187.558 37.34Z" fill="#D81961"/>
</svg>
