<svg width="24" height="24" viewBox="0 0 24 24" fill="none" xmlns="http://www.w3.org/2000/svg">
<path d="M20.6632 4.76243L18.9581 3.05633C18.7286 2.82714 18.4522 2.65034 18.1479 2.53808C17.8436 2.42582 17.5186 2.38075 17.1953 2.40598C16.8719 2.4312 16.5578 2.52612 16.2746 2.68421C15.9914 2.84231 15.7458 3.05983 15.5546 3.32183L13.8986 5.59381C13.6925 5.87757 13.5554 6.20546 13.4981 6.55146C13.4408 6.89746 13.4649 7.25204 13.5686 7.58709C13.7832 8.27521 14.1033 9.29986 14.2915 9.93301C14.3461 10.1045 14.3338 10.2903 14.2571 10.4531C13.8496 11.2719 13.3232 12.026 12.6948 12.6906C12.5577 12.832 12.4817 13.0216 12.4832 13.2185C12.4847 13.4154 12.5636 13.6039 12.7028 13.7431C12.8421 13.8824 13.0305 13.9613 13.2274 13.9628C13.4244 13.9643 13.614 13.8883 13.7553 13.7512C14.5 12.9737 15.1217 12.0872 15.5988 11.1221C15.848 10.6162 15.8936 10.034 15.7263 9.49538C15.5403 8.86771 15.2172 7.83428 15.0005 7.14039C14.9659 7.02902 14.9578 6.91112 14.9767 6.79606C14.9956 6.68099 15.0412 6.57193 15.1096 6.47753L16.7664 4.20503C16.8301 4.11801 16.9118 4.0458 17.006 3.99333C17.1003 3.94087 17.2047 3.9094 17.3122 3.90108C17.4197 3.89275 17.5278 3.90778 17.629 3.94513C17.7301 3.98247 17.822 4.04125 17.8983 4.11743L18.4008 4.61993L16.8949 6.94253C16.8388 7.02513 16.7998 7.11808 16.7801 7.21595C16.7604 7.31382 16.7605 7.41463 16.7803 7.51248C16.8001 7.61033 16.8392 7.70324 16.8954 7.78578C16.9515 7.86831 17.0236 7.9388 17.1074 7.99311C17.1911 8.04743 17.2849 8.08447 17.3831 8.10208C17.4814 8.11968 17.5822 8.11749 17.6796 8.09564C17.777 8.07378 17.8691 8.0327 17.9504 7.9748C18.0317 7.9169 18.1007 7.84335 18.1532 7.75846L19.4845 5.70518L19.6012 5.82196C19.7769 6.00957 19.9125 6.23096 19.9999 6.47265C20.0873 6.71434 20.1246 6.97128 20.1095 7.22784C20.102 8.54874 19.2204 10.98 15.062 15.0608C10.7067 19.3349 7.25037 21.0365 5.81412 19.6116L4.10899 17.9054C4.0329 17.8292 3.9742 17.7374 3.93692 17.6364C3.89964 17.5353 3.88466 17.4274 3.89301 17.32C3.90136 17.2126 3.93284 17.1083 3.98529 17.0142C4.03775 16.9201 4.10993 16.8385 4.19689 16.775L6.46887 15.1186C6.56298 15.0498 6.67192 15.0041 6.78692 14.9852C6.90192 14.9662 7.01977 14.9745 7.13097 15.0095L8.55094 15.4524L6.93012 16.5849C6.76701 16.6989 6.65588 16.8731 6.62117 17.0691C6.58647 17.265 6.63103 17.4667 6.74506 17.6298C6.85908 17.793 7.03323 17.9041 7.2292 17.9388C7.42516 17.9735 7.62689 17.9289 7.78999 17.8149L10.6633 15.807C10.8263 15.693 10.9373 15.5189 10.9719 15.323C11.0065 15.1271 10.9619 14.9255 10.8479 14.7626C10.751 14.6295 10.6122 14.5329 10.4537 14.4884L10.4575 14.4762L7.57752 13.5779C7.24276 13.4739 6.88838 13.4495 6.54254 13.5066C6.1967 13.5637 5.86896 13.7007 5.58537 13.9067L3.31287 15.5631C3.05081 15.7544 2.83329 16.0001 2.67525 16.2834C2.5172 16.5667 2.42239 16.8809 2.39734 17.2044C2.37228 17.5278 2.41757 17.8529 2.53009 18.1571C2.64261 18.4614 2.8197 18.7377 3.04917 18.9671L4.75512 20.674C5.06351 20.9832 5.43153 21.2264 5.83684 21.389C6.24214 21.5515 6.67626 21.63 7.11282 21.6196C9.00829 21.6196 11.8552 20.3096 16.1128 16.1315C19.7471 12.565 21.5964 9.57233 21.6096 7.23653C21.6278 6.78153 21.5532 6.32759 21.3905 5.90228C21.2278 5.47697 20.9804 5.08917 20.6632 4.76243Z" fill="#CCCCCC"/>
</svg>
