<svg width="113" height="51" viewBox="0 0 113 51" fill="none" xmlns="http://www.w3.org/2000/svg">
<path d="M17.42 43.9999H12.74V29.4399H6.24V43.9999H1.56V25.7999H17.42V43.9999ZM32.2522 30.7399C32.2522 29.6999 31.7322 29.1799 30.6922 29.1799H26.2722C25.2322 29.1799 24.7122 29.6999 24.7122 30.7399V39.0599C24.7122 40.0999 25.2322 40.6199 26.2722 40.6199H30.6922C31.7322 40.6199 32.2522 40.0999 32.2522 39.0599V30.7399ZM36.9322 39.0599C36.9322 40.8799 36.5162 42.2059 35.6842 43.0379C34.8695 43.8525 33.5522 44.2599 31.7322 44.2599H25.2322C23.4122 44.2599 22.0862 43.8525 21.2542 43.0379C20.4395 42.2059 20.0322 40.8799 20.0322 39.0599V30.7399C20.0322 28.9199 20.4395 27.6025 21.2542 26.7879C22.0862 25.9559 23.4122 25.5399 25.2322 25.5399H31.7322C33.5522 25.5399 34.8695 25.9559 35.6842 26.7879C36.5162 27.6025 36.9322 28.9199 36.9322 30.7399V39.0599ZM52.8044 25.5399C53.2377 25.5399 54.0177 25.6265 55.1444 25.7999V29.3099H54.1044C53.8444 29.3099 53.6104 29.3965 53.4024 29.5699C53.1944 29.7259 53.0384 29.8992 52.9344 30.0899L50.4644 34.7699L55.5344 43.9999H50.5944L46.5644 36.5899H44.2244V43.9999H39.5444V25.7999H44.2244V32.9499H46.5644L49.1644 28.0099C49.5457 27.2819 50.0137 26.6925 50.5684 26.2419C51.1404 25.7739 51.8857 25.5399 52.8044 25.5399ZM57.0893 25.7999H68.0093C69.8293 25.7999 71.1466 26.2159 71.9613 27.0479C72.7933 27.8625 73.2093 29.1799 73.2093 30.9999V33.5999C73.2093 35.4199 72.7933 36.7459 71.9613 37.5779C71.1466 38.3925 69.8293 38.7999 68.0093 38.7999H61.7693V43.9999H57.0893V25.7999ZM68.5293 30.9999C68.5293 29.9599 68.0093 29.4399 66.9693 29.4399H61.7693V35.1599H66.9693C68.0093 35.1599 68.5293 34.6399 68.5293 33.5999V30.9999ZM87.2483 30.7399C87.2483 29.6999 86.7283 29.1799 85.6883 29.1799H81.2683C80.2283 29.1799 79.7083 29.6999 79.7083 30.7399V39.0599C79.7083 40.0999 80.2283 40.6199 81.2683 40.6199H85.6883C86.7283 40.6199 87.2483 40.0999 87.2483 39.0599V30.7399ZM91.9283 39.0599C91.9283 40.8799 91.5123 42.2059 90.6803 43.0379C89.8656 43.8525 88.5483 44.2599 86.7283 44.2599H80.2283C78.4083 44.2599 77.0823 43.8525 76.2503 43.0379C75.4356 42.2059 75.0283 40.8799 75.0283 39.0599V30.7399C75.0283 28.9199 75.4356 27.6025 76.2503 26.7879C77.0823 25.9559 78.4083 25.5399 80.2283 25.5399H86.7283C88.5483 25.5399 89.8656 25.9559 90.6803 26.7879C91.5123 27.6025 91.9283 28.9199 91.9283 30.7399V39.0599ZM94.5405 25.7999H104.94C106.639 25.7999 107.887 26.1899 108.684 26.9699C109.482 27.7325 109.88 28.9025 109.88 30.4799C109.88 31.5199 109.655 32.3692 109.204 33.0279C108.754 33.6692 108.199 34.1199 107.54 34.3799C108.944 34.7612 109.898 35.6972 110.4 37.1879C110.574 37.7252 110.66 38.3492 110.66 39.0599C110.66 40.7585 110.262 42.0065 109.464 42.8039C108.667 43.6012 107.419 43.9999 105.72 43.9999H94.5405V25.7999ZM105.98 38.2799C105.98 37.2399 105.46 36.7199 104.42 36.7199H99.2205V40.3599H104.42C105.46 40.3599 105.98 39.8399 105.98 38.7999V38.2799ZM105.2 30.9999C105.2 29.9599 104.68 29.4399 103.64 29.4399H99.2205V33.0799H103.64C104.68 33.0799 105.2 32.5599 105.2 31.5199V30.9999Z" fill="white"/>
<path d="M6.48096 4.7196V5.68445H2.34863V13.9999H1.26953V4.7196H6.48096ZM11.1465 6.91589C12.014 6.91589 12.7059 7.21423 13.2222 7.81091C13.7384 8.40759 13.9966 9.30473 13.9966 10.5023C13.9966 11.2937 13.8781 11.958 13.6411 12.4955C13.4041 13.0329 13.0698 13.4392 12.6382 13.7142C12.2108 13.9893 11.7051 14.1268 11.1211 14.1268C10.7529 14.1268 10.4292 14.0782 10.1499 13.9808C9.87061 13.8835 9.63151 13.7523 9.43262 13.5873C9.23372 13.4222 9.06868 13.2424 8.9375 13.0477H8.86133C8.87402 13.2128 8.88883 13.4117 8.90576 13.6444C8.92692 13.8772 8.9375 14.0803 8.9375 14.2538V17.1102H7.87744V7.04285H8.74707L8.88672 8.07117H8.9375C9.07292 7.85958 9.23796 7.66703 9.43262 7.49353C9.62728 7.3158 9.86426 7.17615 10.1436 7.07458C10.4271 6.96879 10.7614 6.91589 11.1465 6.91589ZM10.9624 7.80457C10.48 7.80457 10.0907 7.89766 9.79443 8.08386C9.50244 8.27006 9.28874 8.54936 9.15332 8.92175C9.0179 9.28992 8.94596 9.7533 8.9375 10.3119V10.515C8.9375 11.1032 9.00098 11.6005 9.12793 12.0067C9.25911 12.413 9.47282 12.7219 9.76904 12.9335C10.0695 13.1451 10.4715 13.2509 10.9751 13.2509C11.4067 13.2509 11.7664 13.1345 12.0542 12.9017C12.342 12.669 12.5557 12.3453 12.6953 11.9305C12.8392 11.5116 12.9111 11.0313 12.9111 10.4896C12.9111 9.66866 12.7503 9.01697 12.4287 8.53455C12.1113 8.04789 11.6226 7.80457 10.9624 7.80457ZM14.7393 7.04285H15.8691L17.4053 11.08C17.4941 11.3169 17.5767 11.5455 17.6528 11.7655C17.729 11.9813 17.7967 12.1887 17.856 12.3876C17.9152 12.5865 17.9618 12.779 17.9956 12.9652H18.04C18.0993 12.7536 18.1839 12.4764 18.2939 12.1337C18.404 11.7867 18.5225 11.4333 18.6494 11.0736L20.103 7.04285H21.2393L18.2114 15.0219C18.0506 15.4493 17.8623 15.8217 17.6465 16.139C17.4349 16.4564 17.1768 16.6997 16.8721 16.869C16.5674 17.0425 16.1992 17.1293 15.7676 17.1293C15.5687 17.1293 15.3931 17.1166 15.2407 17.0912C15.0884 17.07 14.9572 17.0446 14.8472 17.015V16.1708C14.9403 16.1919 15.0524 16.211 15.1836 16.2279C15.319 16.2448 15.4587 16.2533 15.6025 16.2533C15.8649 16.2533 16.0913 16.2025 16.2817 16.101C16.4764 16.0036 16.6436 15.8597 16.7832 15.6693C16.9229 15.4789 17.0435 15.2525 17.145 14.9901L17.5259 14.0126L14.7393 7.04285ZM28.1772 7.04285V13.9999H27.1172V7.95056H23.4102V13.9999H22.3501V7.04285H28.1772ZM36.2388 7.04285V13.9999H35.1787V7.95056H31.4717V13.9999H30.4116V7.04285H36.2388ZM41.0757 6.92859C41.9051 6.92859 42.5208 7.11479 42.9229 7.48718C43.3249 7.85958 43.5259 8.45414 43.5259 9.27087V13.9999H42.7578L42.5547 12.9716H42.5039C42.3092 13.2255 42.1061 13.4392 41.8945 13.6127C41.6829 13.7819 41.4375 13.911 41.1582 13.9999C40.8831 14.0845 40.5446 14.1268 40.1426 14.1268C39.7194 14.1268 39.3428 14.0528 39.0127 13.9047C38.6868 13.7566 38.4287 13.5323 38.2383 13.2318C38.0521 12.9314 37.959 12.5505 37.959 12.0892C37.959 11.3952 38.234 10.862 38.7842 10.4896C39.3343 10.1172 40.1722 9.9141 41.2979 9.88025L42.4976 9.82947V9.40417C42.4976 8.80326 42.3685 8.3822 42.1104 8.14099C41.8522 7.89978 41.4883 7.77917 41.0186 7.77917C40.6546 7.77917 40.3076 7.83207 39.9775 7.93787C39.6475 8.04366 39.3343 8.1685 39.0381 8.31238L38.7144 7.51257C39.0275 7.35177 39.3872 7.21423 39.7935 7.09998C40.1997 6.98572 40.6271 6.92859 41.0757 6.92859ZM42.4849 10.5721L41.4248 10.6166C40.5573 10.6504 39.9458 10.7922 39.5903 11.0419C39.2349 11.2915 39.0571 11.6449 39.0571 12.1019C39.0571 12.4997 39.1777 12.7938 39.4189 12.9843C39.6602 13.1747 39.9797 13.2699 40.3774 13.2699C40.9953 13.2699 41.501 13.0985 41.8945 12.7557C42.2881 12.413 42.4849 11.8988 42.4849 11.2133V10.5721ZM53.1299 7.04285H54.2915L51.2891 10.4008L54.5327 13.9999H53.2949L50.1338 10.4706V13.9999H49.0737V7.04285H50.1338V10.4198L53.1299 7.04285ZM61.7881 10.5087C61.7881 11.08 61.714 11.5899 61.5659 12.0385C61.4178 12.487 61.2041 12.8658 60.9248 13.1747C60.6455 13.4836 60.307 13.7206 59.9092 13.8856C59.5156 14.0464 59.0692 14.1268 58.5698 14.1268C58.1043 14.1268 57.6769 14.0464 57.2876 13.8856C56.9025 13.7206 56.5682 13.4836 56.2847 13.1747C56.0054 12.8658 55.7874 12.487 55.6309 12.0385C55.4785 11.5899 55.4023 11.08 55.4023 10.5087C55.4023 9.74695 55.5314 9.09949 55.7896 8.56628C56.0477 8.02885 56.4159 7.62048 56.894 7.34119C57.3765 7.05766 57.9499 6.91589 58.6143 6.91589C59.249 6.91589 59.8034 7.05766 60.2773 7.34119C60.7555 7.62472 61.1258 8.0352 61.3882 8.57263C61.6548 9.10583 61.7881 9.75118 61.7881 10.5087ZM56.4941 10.5087C56.4941 11.0673 56.5682 11.5518 56.7163 11.9623C56.8644 12.3728 57.0929 12.6901 57.4019 12.9144C57.7108 13.1387 58.1086 13.2509 58.5952 13.2509C59.0776 13.2509 59.4733 13.1387 59.7822 12.9144C60.0954 12.6901 60.326 12.3728 60.4741 11.9623C60.6222 11.5518 60.6963 11.0673 60.6963 10.5087C60.6963 9.95431 60.6222 9.47611 60.4741 9.0741C60.326 8.66785 60.0975 8.3547 59.7886 8.13464C59.4797 7.91459 59.0798 7.80457 58.5889 7.80457C57.8652 7.80457 57.3341 8.04366 56.9956 8.52185C56.6613 9.00004 56.4941 9.66231 56.4941 10.5087ZM70.9541 7.04285V13.9999H70.002V9.46765C70.002 9.28145 70.0062 9.09314 70.0146 8.90271C70.0273 8.70805 70.0422 8.51339 70.0591 8.31873H70.021L67.7104 13.9999H66.8154L64.562 8.31873H64.5239C64.5366 8.51339 64.5451 8.70805 64.5493 8.90271C64.5578 9.09314 64.562 9.29415 64.562 9.50574V13.9999H63.6035V7.04285H65.019L67.2661 12.7303L69.5449 7.04285H70.9541ZM78.9712 7.04285V13.9999H77.9111V7.95056H74.2041V13.9999H73.144V7.04285H78.9712ZM83.8081 6.92859C84.6375 6.92859 85.2533 7.11479 85.6553 7.48718C86.0573 7.85958 86.2583 8.45414 86.2583 9.27087V13.9999H85.4902L85.2871 12.9716H85.2363C85.0417 13.2255 84.8385 13.4392 84.627 13.6127C84.4154 13.7819 84.1699 13.911 83.8906 13.9999C83.6156 14.0845 83.277 14.1268 82.875 14.1268C82.4518 14.1268 82.0752 14.0528 81.7451 13.9047C81.4193 13.7566 81.1611 13.5323 80.9707 13.2318C80.7845 12.9314 80.6914 12.5505 80.6914 12.0892C80.6914 11.3952 80.9665 10.862 81.5166 10.4896C82.0667 10.1172 82.9046 9.9141 84.0303 9.88025L85.23 9.82947V9.40417C85.23 8.80326 85.1009 8.3822 84.8428 8.14099C84.5846 7.89978 84.2207 7.77917 83.751 7.77917C83.387 7.77917 83.04 7.83207 82.71 7.93787C82.3799 8.04366 82.0667 8.1685 81.7705 8.31238L81.4468 7.51257C81.7599 7.35177 82.1196 7.21423 82.5259 7.09998C82.9321 6.98572 83.3595 6.92859 83.8081 6.92859ZM85.2173 10.5721L84.1572 10.6166C83.2897 10.6504 82.6782 10.7922 82.3228 11.0419C81.9673 11.2915 81.7896 11.6449 81.7896 12.1019C81.7896 12.4997 81.9102 12.7938 82.1514 12.9843C82.3926 13.1747 82.7121 13.2699 83.1099 13.2699C83.7277 13.2699 84.2334 13.0985 84.627 12.7557C85.0205 12.413 85.2173 11.8988 85.2173 11.2133V10.5721ZM89.4893 7.04285V9.96277H93.3677V7.04285H94.4214V13.9999H93.3677V10.8578H89.4893V13.9999H88.4292V7.04285H89.4893ZM97.6587 7.04285V11.4164C97.6587 11.501 97.6566 11.611 97.6523 11.7465C97.6481 11.8776 97.6418 12.0194 97.6333 12.1718C97.6248 12.3199 97.6164 12.4637 97.6079 12.6034C97.6037 12.7388 97.5973 12.851 97.5889 12.9398L101.385 7.04285H102.68V13.9999H101.696V9.73425C101.696 9.59884 101.698 9.42533 101.702 9.21375C101.706 9.00216 101.713 8.7948 101.721 8.59167C101.73 8.38432 101.736 8.22351 101.74 8.10925L97.957 13.9999H96.6558V7.04285H97.6587ZM105.923 7.04285V11.4164C105.923 11.501 105.921 11.611 105.917 11.7465C105.913 11.8776 105.906 12.0194 105.898 12.1718C105.889 12.3199 105.881 12.4637 105.873 12.6034C105.868 12.7388 105.862 12.851 105.854 12.9398L109.649 7.04285H110.944V13.9999H109.96V9.73425C109.96 9.59884 109.963 9.42533 109.967 9.21375C109.971 9.00216 109.977 8.7948 109.986 8.59167C109.994 8.38432 110.001 8.22351 110.005 8.10925L106.222 13.9999H104.92V7.04285H105.923ZM110.424 4.18005C110.386 4.60746 110.278 4.96505 110.1 5.25281C109.927 5.54057 109.671 5.7585 109.332 5.90662C108.993 6.0505 108.56 6.12244 108.031 6.12244C107.485 6.12244 107.045 6.05261 106.71 5.91296C106.38 5.76908 106.135 5.55326 105.974 5.2655C105.818 4.97774 105.724 4.61593 105.695 4.18005H106.685C106.732 4.64555 106.856 4.96293 107.06 5.1322C107.263 5.30147 107.593 5.38611 108.05 5.38611C108.456 5.38611 108.776 5.29724 109.008 5.11951C109.241 4.94177 109.381 4.62862 109.427 4.18005H110.424Z" fill="#01A0E1"/>
</svg>
