<svg width="24" height="24" viewBox="0 0 24 24" fill="none" xmlns="http://www.w3.org/2000/svg">
<path d="M19.0312 15.5625C17.6952 15.5625 16.5024 16.1869 15.7289 17.1592L8.95148 13.3914C9.10416 12.9555 9.1875 12.4873 9.1875 12C9.1875 11.5127 9.10416 11.0445 8.95144 10.6087L15.7288 6.84089C16.5024 7.81308 17.6952 8.4375 19.0312 8.4375C21.3575 8.4375 23.25 6.54497 23.25 4.21875C23.25 1.89253 21.3575 0 19.0312 0C16.705 0 14.8125 1.89253 14.8125 4.21875C14.8125 4.70606 14.8958 5.17425 15.0486 5.61009L8.27119 9.37786C7.49761 8.40567 6.30483 7.78125 4.96875 7.78125C2.64253 7.78125 0.75 9.67378 0.75 12C0.75 14.3262 2.64253 16.2188 4.96875 16.2188C6.30483 16.2188 7.49761 15.5943 8.27114 14.6221L15.0485 18.3899C14.8958 18.8257 14.8125 19.2939 14.8125 19.7812C14.8125 22.1075 16.705 24 19.0312 24C21.3575 24 23.25 22.1075 23.25 19.7812C23.25 17.455 21.3575 15.5625 19.0312 15.5625ZM19.0312 1.40625C20.5821 1.40625 21.8438 2.66794 21.8438 4.21875C21.8438 5.76956 20.5821 7.03125 19.0312 7.03125C17.4804 7.03125 16.2188 5.76956 16.2188 4.21875C16.2188 2.66794 17.4804 1.40625 19.0312 1.40625ZM4.96875 14.8125C3.41794 14.8125 2.15625 13.5508 2.15625 12C2.15625 10.4492 3.41794 9.1875 4.96875 9.1875C6.51956 9.1875 7.78125 10.4492 7.78125 12C7.78125 13.5508 6.51956 14.8125 4.96875 14.8125ZM19.0312 22.5938C17.4804 22.5938 16.2188 21.3321 16.2188 19.7812C16.2188 18.2304 17.4804 16.9688 19.0312 16.9688C20.5821 16.9688 21.8438 18.2304 21.8438 19.7812C21.8438 21.3321 20.5821 22.5938 19.0312 22.5938Z" fill="white"/>
</svg>
