<svg width="70" height="70" viewBox="0 0 70 70" fill="none" xmlns="http://www.w3.org/2000/svg">
<g clip-path="url(#clip0_361_12309)">
<path d="M0 32.6302C0.18 31.3602 0.31 30.0702 0.54 28.8102C1.98013 20.325 6.5558 12.6905 13.36 7.42023C18.1485 3.57232 23.907 1.12218 30 0.340229C34.8458 -0.375836 39.7886 -0.0514706 44.4993 1.29173C49.21 2.63494 53.5805 4.96616 57.32 8.13023C58.22 8.87023 59.05 9.68023 59.9 10.4702C60.2355 10.7089 60.4624 11.0711 60.5309 11.4771C60.5993 11.8832 60.5037 12.2997 60.265 12.6352C60.0263 12.9707 59.6641 13.1977 59.2581 13.2661C58.8521 13.3346 58.4355 13.2389 58.1 13.0002C57.6551 12.6856 57.2401 12.3307 56.86 11.9402C52.5526 7.78443 47.1408 4.95529 41.27 3.79023C35.1587 2.55536 28.8191 3.1477 23.0424 5.49332C17.2657 7.83893 12.3078 11.8339 8.78736 16.9797C5.26695 22.1255 3.34001 28.1941 3.24705 34.4282C3.15409 40.6623 4.89922 46.7857 8.26463 52.0341C11.63 57.2826 16.4667 61.4236 22.1709 63.9404C27.8751 66.4573 34.1942 67.2384 40.3396 66.1863C46.4849 65.1342 52.1843 62.2955 56.7264 58.0245C61.2685 53.7534 64.4522 48.2393 65.88 42.1702C67.3439 36.1424 66.9713 29.8145 64.81 24.0002C64.6903 23.7061 64.5868 23.4057 64.5 23.1002C64.3977 22.7106 64.4512 22.2964 64.649 21.9454C64.8469 21.5945 65.1736 21.3344 65.56 21.2202C65.7437 21.1568 65.9383 21.1312 66.1321 21.145C66.3259 21.1588 66.5149 21.2117 66.6877 21.3004C66.8606 21.3892 67.0137 21.512 67.1378 21.6615C67.2619 21.811 67.3545 21.984 67.41 22.1702C68.5119 24.9895 69.2382 27.9415 69.57 30.9502C70.2633 36.8917 69.3768 42.9109 67 48.4002C65.2216 52.7582 62.5497 56.6952 59.1566 59.9574C55.7636 63.2196 51.7246 65.7346 47.3 67.3402C42.143 69.405 36.5561 70.165 31.035 69.5527C25.5139 68.9404 20.2293 66.9748 15.65 63.8302C11.785 61.3545 8.46632 58.1156 5.89732 54.312C3.32833 50.5083 1.56316 46.2201 0.71 41.7102C0.41 40.3102 0.31 38.8802 0.12 37.4602C0.12 37.2602 0.04 37.0602 0 36.8602V32.6302Z" fill="#231F20"/>
<path d="M70 11.3504C69.69 11.7604 69.43 12.2104 69.08 12.5904C58.2133 23.9838 47.3367 35.3704 36.45 46.7504C35.38 47.8704 34.56 47.9004 33.45 46.8404L18.22 31.6004C17.9471 31.3913 17.743 31.1052 17.6343 30.779C17.5256 30.4528 17.5171 30.1015 17.61 29.7704C17.6775 29.5467 17.795 29.3412 17.9536 29.1696C18.1123 28.998 18.3079 28.8647 18.5257 28.7799C18.7434 28.6952 18.9776 28.661 19.2106 28.6802C19.4435 28.6993 19.669 28.7712 19.87 28.8904C20.1186 29.0487 20.347 29.2368 20.55 29.4504L34.33 43.1904C34.5 43.3704 34.68 43.5304 34.98 43.8104C35.16 43.5704 35.31 43.3404 35.49 43.1404L67 10.1904C67.72 9.43043 68.45 9.19043 69.11 9.62043C69.4402 9.8858 69.7358 10.1915 69.99 10.5304L70 11.3504Z" fill="#B12237"/>
</g>
<defs>
<clipPath id="clip0_361_12309">
<rect width="70" height="70" fill="white"/>
</clipPath>
</defs>
</svg>
