<svg width="40" height="40" viewBox="0 0 40 40" fill="none" xmlns="http://www.w3.org/2000/svg">
<circle cx="20" cy="20" r="20" fill="white"/>
<path d="M12.2806 19.6993L15.959 21.0709L17.393 25.6846C17.4554 25.9963 17.8294 26.0586 18.0788 25.8716L20.1363 24.1882C20.3233 24.0012 20.635 24.0012 20.8844 24.1882L24.5629 26.8692C24.8123 27.0562 25.1864 26.9315 25.2487 26.6198L27.992 13.5269C28.0543 13.2152 27.7426 12.9035 27.4309 13.0282L12.2806 18.8888C11.9065 19.0135 11.9065 19.5746 12.2806 19.6993ZM17.206 20.3851L24.4382 15.9585C24.5629 15.8961 24.6876 16.0831 24.5629 16.1455L18.6399 21.6944C18.4529 21.8814 18.2659 22.1308 18.2659 22.4425L18.0788 23.9389C18.0788 24.1259 17.7671 24.1882 17.7047 23.9389L16.9566 21.1956C16.7695 20.8839 16.8942 20.5098 17.206 20.3851Z" fill="#B12237"/>
</svg>
