<svg width="70" height="70" viewBox="0 0 70 70" fill="none" xmlns="http://www.w3.org/2000/svg">
<g clip-path="url(#clip0_344_11258)">
<path d="M6.0827 23.4587C4.66292 27.9436 4.29875 32.6959 5.01863 37.3448C5.73851 41.9936 7.52296 46.4132 10.2327 50.2587L8.3727 51.5787C6.69808 49.2618 5.352 46.7244 4.3727 44.0387C1.848 37.3185 1.64733 29.9463 3.8027 23.0987C3.9827 22.4987 3.8827 22.2387 3.3327 21.9887C2.46575 21.6078 1.62988 21.1597 0.832697 20.6487C0.441962 20.3884 0.155226 19.9991 0.0226968 19.5487C-0.107303 18.9987 0.342697 18.6387 0.822697 18.3787C3.0227 17.2287 5.1127 16.0787 7.2327 14.8987C7.56356 14.7123 7.85013 14.4564 8.0727 14.1487C10.6047 10.4069 13.8981 7.2418 17.7374 4.86031C21.5768 2.47882 25.8756 0.934615 30.3527 0.328681C37.2039 -0.653102 44.1896 0.57794 50.2925 3.84253C56.3954 7.10711 61.2967 12.2347 64.2827 18.4787L64.6327 19.2087C65.7827 18.9087 66.9227 18.6387 68.0627 18.3287C68.3034 18.2028 68.5788 18.1594 68.8466 18.2052C69.1144 18.251 69.3597 18.3835 69.5449 18.5823C69.73 18.7811 69.8448 19.0352 69.8715 19.3055C69.8982 19.5759 69.8354 19.8475 69.6927 20.0787C68.8927 22.3687 68.0827 24.6587 67.3127 26.9587C67.1947 27.3196 67.1606 27.7026 67.2127 28.0787C68.3795 36.1788 66.4475 44.4209 61.8027 51.1587L61.5827 51.4487C61.5827 51.4487 61.5127 51.5087 61.4427 51.5787L59.7227 50.3487C60.7227 48.4787 61.7827 46.7387 62.6127 44.8887C64.9393 39.7388 65.7277 34.0262 64.8827 28.4387C64.8161 28.0555 64.6265 27.7045 64.3427 27.4387C62.6527 25.8787 60.9227 24.3487 59.2027 22.8087C58.7827 22.4387 58.4127 22.0587 58.5427 21.4487C58.6727 20.8387 59.1727 20.5887 59.7527 20.4487C60.6027 20.2487 61.4327 20.0087 62.3227 19.7687C61.1547 17.1821 59.6003 14.788 57.7127 12.6687C51.2627 5.51868 43.1827 1.97868 33.5527 2.38868C23.7027 2.84868 15.8727 7.30868 10.1027 15.3887C9.88888 15.7504 9.79441 16.1703 9.8327 16.5887C10.0427 18.9687 10.3127 21.3287 10.5427 23.6987C10.592 23.929 10.5707 24.1688 10.4815 24.3868C10.3923 24.6048 10.2393 24.7908 10.0427 24.9205C9.84603 25.0501 9.61483 25.1174 9.37932 25.1135C9.14381 25.1096 8.91495 25.0348 8.7227 24.8987L7.4427 24.1787L6.0827 23.4587ZM62.0827 22.2987L65.4227 25.2987L66.8727 21.0887L62.0827 22.2987ZM8.0227 21.8487L7.5527 17.3987L3.6527 19.5187L8.0227 21.8487Z" fill="#B12237"/>
<path d="M23.2627 37.9788C22.7133 38.0268 22.1613 37.9225 21.6673 37.6773C21.1734 37.4321 20.7566 37.0555 20.4627 36.5888C19.5827 35.1588 18.7027 33.7288 17.8727 32.2788C17.6771 31.9693 17.5475 31.6228 17.492 31.2609C17.4364 30.899 17.4562 30.5295 17.5501 30.1756C17.644 29.8217 17.8099 29.491 18.0375 29.2042C18.2651 28.9174 18.5494 28.6806 18.8727 28.5088C19.1418 28.4017 19.3943 28.2569 19.6227 28.0788C19.8253 27.8764 19.9553 27.6127 19.9927 27.3288C19.9927 26.2388 20.0427 25.1388 19.9927 24.0588C19.952 23.7508 19.8031 23.4672 19.5727 23.2588C19.2994 23.0618 19.0081 22.8911 18.7027 22.7488C18.1291 22.3903 17.7142 21.8261 17.5432 21.1716C17.3721 20.5172 17.4578 19.8221 17.7827 19.2288C18.6627 17.6788 19.5727 16.1688 20.5327 14.6688C20.7199 14.3607 20.9667 14.093 21.2586 13.8814C21.5505 13.6699 21.8817 13.5187 22.2328 13.4367C22.5839 13.3548 22.9478 13.3437 23.3032 13.4042C23.6587 13.4646 23.9984 13.5954 24.3027 13.7888C24.6345 14.0635 25.0565 14.2054 25.4869 14.1869C25.9174 14.1684 26.3256 13.9909 26.6327 13.6888C27.2107 13.2538 27.8559 12.916 28.5427 12.6888C28.8689 12.6057 29.1522 12.4037 29.3372 12.1226C29.5222 11.8414 29.5955 11.5012 29.5427 11.1688C29.4945 10.7693 29.5364 10.3641 29.6656 9.98297C29.7947 9.60187 30.0077 9.25459 30.2889 8.96672C30.57 8.67885 30.9122 8.45772 31.2901 8.31962C31.6681 8.18153 32.0722 8.12998 32.4727 8.16879C34.1427 8.16879 35.8227 8.16879 37.4727 8.16879C37.8503 8.1427 38.2291 8.19719 38.584 8.32863C38.9389 8.46006 39.2618 8.66545 39.5313 8.93117C39.8008 9.19689 40.0107 9.51686 40.1472 9.86988C40.2836 10.2229 40.3434 10.6009 40.3227 10.9788C40.2651 11.3426 40.3433 11.7148 40.5425 12.0247C40.7416 12.3345 41.0478 12.5602 41.4027 12.6588C42.2252 13.0125 43.0065 13.4552 43.7327 13.9788C43.9079 14.1239 44.1255 14.2083 44.3527 14.2191C44.5799 14.2299 44.8045 14.1666 44.9927 14.0388C45.439 13.7454 45.9331 13.5322 46.4527 13.4088C47.0149 13.2799 47.6036 13.3358 48.1315 13.5682C48.6593 13.8006 49.0981 14.1971 49.3827 14.6988C50.2827 16.1388 51.1727 17.5988 52.0127 19.0688C52.2099 19.3782 52.3391 19.7259 52.3917 20.089C52.4444 20.4521 52.4193 20.8222 52.3181 21.1749C52.2169 21.5275 52.042 21.8547 51.8049 22.1346C51.5678 22.4146 51.2739 22.641 50.9427 22.7988C50.5387 22.9254 50.2013 23.207 50.0045 23.5819C49.8077 23.9567 49.7675 24.3943 49.8927 24.7988C49.9475 25.6446 49.9475 26.493 49.8927 27.3388C49.9252 27.6257 50.0644 27.8898 50.2827 28.0788C50.5584 28.2721 50.8493 28.4427 51.1527 28.5888C51.7304 28.9541 52.1438 29.5293 52.306 30.1932C52.4683 30.8572 52.3667 31.5582 52.0227 32.1488C51.1627 33.6688 50.2627 35.1488 49.3227 36.6388C49.1335 36.9529 48.8831 37.2258 48.5865 37.4413C48.2899 37.6569 47.9531 37.8107 47.5959 37.8937C47.2388 37.9767 46.8686 37.9872 46.5073 37.9245C46.146 37.8618 45.801 37.7272 45.4927 37.5288C45.1686 37.2625 44.7576 37.1254 44.3385 37.1438C43.9195 37.1623 43.5221 37.335 43.2227 37.6288C42.6987 38.0673 42.0988 38.4062 41.4527 38.6288C41.0757 38.7196 40.748 38.9519 40.5376 39.2777C40.3272 39.6035 40.2503 39.9978 40.3227 40.3788C40.354 41.0175 40.1507 41.6456 39.751 42.1448C39.3513 42.644 38.7828 42.9797 38.1527 43.0888C37.9158 43.1373 37.6745 43.1607 37.4327 43.1588H32.4327C32.0484 43.1839 31.6632 43.1266 31.3029 42.9906C30.9427 42.8547 30.6156 42.6432 30.3438 42.3704C30.072 42.0976 29.8616 41.7699 29.7269 41.4091C29.5922 41.0484 29.5362 40.663 29.5627 40.2788C29.6197 39.9254 29.5441 39.5634 29.3502 39.2625C29.1564 38.9616 28.8581 38.743 28.5127 38.6488C27.6751 38.2754 26.8749 37.8234 26.1227 37.2988C25.9562 37.1601 25.7491 37.0793 25.5327 37.0685C25.3163 37.0577 25.1022 37.1174 24.9227 37.2388C24.2727 37.5688 23.5927 37.8088 23.2627 37.9788ZM34.8827 40.8488H36.8827C37.9727 40.8488 37.9827 40.8488 37.9727 39.7788C37.9359 39.1295 38.111 38.4859 38.4717 37.9448C38.8325 37.4037 39.3592 36.9945 39.9727 36.7788C40.718 36.4864 41.4263 36.1071 42.0827 35.6488C42.6667 35.1066 43.4234 34.7882 44.2194 34.7498C45.0153 34.7114 45.7992 34.9554 46.4327 35.4388C46.5167 35.5188 46.6196 35.5764 46.7318 35.6061C46.844 35.6359 46.9619 35.6368 47.0745 35.6089C47.1872 35.581 47.291 35.5251 47.3763 35.4464C47.4617 35.3678 47.5258 35.2688 47.5627 35.1588C48.3027 33.8788 49.0727 32.6088 49.8527 31.3588C50.1227 30.9188 50.0727 30.6488 49.6127 30.4288C49.3299 30.293 49.056 30.1393 48.7927 29.9688C48.3464 29.6933 47.9868 29.2977 47.7551 28.8272C47.5234 28.3567 47.429 27.8305 47.4827 27.3088C47.5327 26.2188 47.4827 25.1288 47.4827 24.0388C47.4365 23.5417 47.5255 23.0415 47.7403 22.5908C47.955 22.1402 48.2875 21.756 48.7027 21.4788C49.0218 21.2737 49.3561 21.0931 49.7027 20.9388C50.1327 20.7188 50.1627 20.4588 49.9127 20.0588C49.2227 18.9488 48.5627 17.8188 47.9127 16.6988C47.2627 15.5788 47.2227 15.5588 46.0927 16.1888C45.5426 16.5353 44.8981 16.7013 44.2491 16.6637C43.6 16.626 42.979 16.3866 42.4727 15.9788C41.7892 15.4799 41.0511 15.0605 40.2727 14.7288C39.5487 14.5218 38.9232 14.0616 38.5102 13.432C38.0972 12.8024 37.9242 12.0453 38.0227 11.2988C38.0227 10.6388 37.7727 10.4588 37.1627 10.4788C35.7627 10.4788 34.3527 10.4788 32.9427 10.4788C31.8627 10.4788 31.8427 10.4788 31.8527 11.5488C31.8895 12.198 31.7144 12.8417 31.3537 13.3828C30.9929 13.9238 30.4662 14.3331 29.8527 14.5488C28.9152 14.9981 28.0067 15.5058 27.1327 16.0688C26.6786 16.3775 26.1485 16.5557 25.6001 16.5839C25.0517 16.6121 24.5061 16.4893 24.0227 16.2288C23.7627 16.0988 23.5127 15.9488 23.2627 15.8088C23.1908 15.7522 23.1068 15.7129 23.0173 15.6937C22.9278 15.6746 22.8351 15.6762 22.7464 15.6984C22.6576 15.7206 22.575 15.7628 22.5051 15.8218C22.4351 15.8808 22.3796 15.955 22.3427 16.0388C21.5327 17.3988 20.6927 18.7388 19.9127 20.1088C19.8909 20.23 19.8958 20.3544 19.9268 20.4736C19.9579 20.5927 20.0145 20.7037 20.0927 20.7988C20.2956 20.9689 20.5254 21.104 20.7727 21.1988C21.3154 21.469 21.757 21.9064 22.0325 22.4464C22.3079 22.9865 22.4027 23.6008 22.3027 24.1988C22.2278 25.1673 22.2278 26.1402 22.3027 27.1088C22.4009 27.6603 22.3315 28.2286 22.1033 28.7403C21.8751 29.2519 21.4987 29.6834 21.0227 29.9788L20.6527 30.1988C19.6527 30.7588 19.6527 30.7588 20.2627 31.7588L22.0227 34.6488C22.7027 35.7788 22.7127 35.7988 23.8427 35.1588C24.3735 34.8341 24.9889 34.6749 25.6106 34.7016C26.2322 34.7284 26.8318 34.9397 27.3327 35.3088C28.2338 35.8728 29.1652 36.3869 30.1227 36.8488C30.6145 37.0658 31.0359 37.4157 31.3398 37.8591C31.6436 38.3025 31.8178 38.8218 31.8427 39.3588C31.8577 39.5518 31.8577 39.7457 31.8427 39.9388C31.7727 40.5888 32.0127 40.8788 32.7027 40.8388C33.3927 40.7988 34.1527 40.8188 34.8827 40.8188V40.8488Z" fill="#231F20"/>
<path d="M29.9427 50.5889C30.7327 51.3589 31.5427 52.1189 32.3127 52.9289C32.4972 53.1504 32.5965 53.4306 32.5927 53.7189C32.5927 59.1089 32.5927 64.4989 32.5927 69.9389H30.2727V69.1789C30.2727 64.4389 30.2727 59.7089 30.2727 54.9789C30.2959 54.7049 30.2515 54.4294 30.1434 54.1766C30.0353 53.9238 29.8668 53.7014 29.6527 53.5289C29.1727 53.1289 28.7327 52.6789 28.2527 52.2189L29.9427 50.5889Z" fill="#B12237"/>
<path d="M39.5927 69.9787H37.3027C37.3027 69.7387 37.3027 69.5287 37.3027 69.3187C37.3027 64.2387 37.3027 59.1687 37.3027 54.0987C37.2896 53.8102 37.3391 53.5223 37.4478 53.2547C37.5566 52.9871 37.722 52.7463 37.9327 52.5487C38.6127 51.8887 39.2427 51.1888 39.9327 50.4688L41.5627 52.2087C41.2733 52.5669 40.9556 52.9013 40.6127 53.2087C40.264 53.4798 39.9894 53.8346 39.8146 54.2403C39.6398 54.6459 39.5703 55.0891 39.6127 55.5287C39.6727 60.0587 39.6127 64.5988 39.6127 69.1388L39.5927 69.9787Z" fill="#B12237"/>
<path d="M27.9427 47.8491C27.9368 48.5376 27.7273 49.209 27.3407 49.7788C26.9541 50.3485 26.4075 50.7912 25.7699 51.051C25.1323 51.3109 24.432 51.3763 23.7573 51.2391C23.0826 51.1019 22.4635 50.7681 21.978 50.2799C21.4925 49.7916 21.1623 49.1706 21.0289 48.4951C20.8956 47.8196 20.965 47.1198 21.2285 46.4836C21.4919 45.8475 21.9377 45.3035 22.5096 44.9201C23.0816 44.5367 23.7542 44.3311 24.4427 44.3291C24.9044 44.3278 25.3618 44.4181 25.7883 44.5947C26.2149 44.7714 26.6021 45.0309 26.9277 45.3583C27.2532 45.6857 27.5105 46.0745 27.6848 46.502C27.859 46.9296 27.9467 47.3874 27.9427 47.8491ZM24.4727 46.6591C24.2397 46.6531 24.0102 46.7169 23.8137 46.8422C23.6171 46.9676 23.4625 47.1487 23.3696 47.3625C23.2768 47.5763 23.2499 47.813 23.2924 48.0421C23.3349 48.2713 23.4449 48.4826 23.6083 48.6488C23.7716 48.8151 23.981 48.9287 24.2094 48.9752C24.4378 49.0217 24.6749 48.9989 24.8902 48.9098C25.1056 48.8206 25.2894 48.6692 25.4181 48.4749C25.5469 48.2805 25.6146 48.0522 25.6127 47.8191C25.6102 47.5157 25.4899 47.2251 25.2772 47.0086C25.0645 46.7922 24.7761 46.6669 24.4727 46.6591Z" fill="#B12237"/>
<path d="M48.9027 47.8085C48.9046 48.497 48.7028 49.1707 48.3227 49.7448C47.9426 50.3189 47.4011 50.7678 46.7665 51.0349C46.1319 51.3019 45.4324 51.3753 44.7562 51.2458C44.0799 51.1163 43.4571 50.7896 42.9661 50.3069C42.4751 49.8242 42.1378 49.2071 41.9967 48.5332C41.8557 47.8592 41.9171 47.1586 42.1733 46.5195C42.4295 45.8804 42.869 45.3314 43.4365 44.9415C44.0041 44.5516 44.6742 44.3384 45.3627 44.3285C45.8244 44.3219 46.2828 44.4069 46.7113 44.5787C47.1399 44.7505 47.5301 45.0056 47.8593 45.3293C48.1886 45.653 48.4504 46.0388 48.6295 46.4644C48.8085 46.8899 48.9014 47.3468 48.9027 47.8085ZM46.5727 47.8085C46.5706 47.5782 46.5001 47.3538 46.3701 47.1638C46.24 46.9738 46.0564 46.8267 45.8425 46.7414C45.6286 46.6561 45.3942 46.6364 45.1691 46.6848C44.944 46.7331 44.7383 46.8474 44.5784 47.013C44.4184 47.1786 44.3113 47.3881 44.2708 47.6148C44.2303 47.8415 44.2582 48.0751 44.3509 48.2858C44.4436 48.4966 44.5969 48.675 44.7913 48.7984C44.9858 48.9217 45.2125 48.9844 45.4427 48.9785C45.7427 48.9634 46.0259 48.8355 46.2355 48.6203C46.445 48.4052 46.5655 48.1188 46.5727 47.8185V47.8085Z" fill="#B12237"/>
<path d="M16.3027 59.4883C15.6083 59.4902 14.9291 59.2856 14.3514 58.9004C13.7737 58.5152 13.3236 57.9669 13.0583 57.3252C12.7931 56.6835 12.7247 55.9774 12.8619 55.2967C12.9991 54.6161 13.3357 53.9916 13.8288 53.5027C14.3219 53.0139 14.9492 52.6827 15.631 52.5514C16.3129 52.4201 17.0183 52.4946 17.6577 52.7653C18.2971 53.0361 18.8415 53.4909 19.2217 54.072C19.6019 54.653 19.8006 55.334 19.7927 56.0283C19.7771 56.9462 19.4034 57.8218 18.7515 58.4681C18.0995 59.1145 17.2208 59.4806 16.3027 59.4883ZM17.4627 55.9783C17.4606 55.7476 17.3897 55.5228 17.2592 55.3326C17.1287 55.1424 16.9444 54.9955 16.73 54.9105C16.5155 54.8255 16.2806 54.8065 16.0552 54.8557C15.8299 54.9049 15.6243 55.0202 15.4648 55.1868C15.3053 55.3534 15.1991 55.5639 15.1597 55.7911C15.1204 56.0184 15.1497 56.2523 15.244 56.4628C15.3382 56.6734 15.4931 56.8511 15.6888 56.9732C15.8845 57.0952 16.1122 57.1562 16.3427 57.1483C16.6443 57.1354 16.9292 57.0064 17.1379 56.7884C17.3466 56.5704 17.463 56.2801 17.4627 55.9783Z" fill="#B12237"/>
<path d="M57.0227 55.9785C57.0167 56.67 56.8053 57.3441 56.4155 57.9153C56.0257 58.4865 55.4751 58.929 54.8334 59.1866C54.1916 59.4443 53.4879 59.5056 52.8113 59.3626C52.1347 59.2196 51.5159 58.8789 51.0333 58.3837C50.5507 57.8884 50.2261 57.2609 50.1007 56.5809C49.9753 55.9008 50.0547 55.1989 50.329 54.5641C50.6032 53.9292 51.0598 53.3902 51.6409 53.0153C52.222 52.6405 52.9013 52.4467 53.5927 52.4585C54.5114 52.4795 55.3853 52.8599 56.0266 53.518C56.6679 54.1762 57.0256 55.0596 57.0227 55.9785ZM53.5327 57.1085C53.7646 57.1144 53.9929 57.0507 54.1882 56.9256C54.3835 56.8004 54.5368 56.6196 54.6283 56.4065C54.7198 56.1933 54.7453 55.9576 54.7015 55.7299C54.6577 55.5021 54.5466 55.2927 54.3826 55.1287C54.2186 54.9646 54.0091 54.8536 53.7814 54.8098C53.5536 54.766 53.3179 54.7915 53.1048 54.883C52.8916 54.9744 52.7108 55.1277 52.5857 55.323C52.4605 55.5183 52.3968 55.7466 52.4027 55.9785C52.4014 56.1317 52.4304 56.2836 52.4881 56.4255C52.5458 56.5674 52.6311 56.6965 52.7389 56.8052C52.8468 56.914 52.9751 57.0004 53.1165 57.0593C53.2579 57.1182 53.4095 57.1485 53.5627 57.1485L53.5327 57.1085Z" fill="#B12237"/>
<path d="M24.4527 69.979H22.1227V68.379C22.1227 66.609 22.1227 64.839 22.1227 63.069C22.1479 62.8318 22.1146 62.592 22.0257 62.3706C21.9368 62.1492 21.795 61.9529 21.6127 61.799C21.1027 61.369 20.6127 60.869 20.1327 60.379L21.7727 58.749C22.5727 59.539 23.3927 60.299 24.1527 61.099C24.3356 61.3254 24.4345 61.608 24.4327 61.899C24.4627 64.559 24.4527 67.219 24.4527 69.979Z" fill="#B12237"/>
<path d="M47.7427 69.9782H45.4727C45.4433 69.7927 45.4233 69.6058 45.4127 69.4182C45.4127 66.9982 45.4127 64.5682 45.4127 62.1482C45.4592 61.6456 45.6742 61.1734 46.0227 60.8082C46.6427 60.0682 47.3627 59.4182 48.0827 58.6982L49.7227 60.5382C49.2827 60.9382 48.7227 61.3982 48.1827 61.9382C47.9515 62.1984 47.8172 62.5305 47.8027 62.8782C47.8027 64.9882 47.8027 67.0982 47.8027 69.2082L47.7427 69.9782Z" fill="#B12237"/>
<path d="M34.9327 33.8185C33.3122 33.8224 31.7271 33.3442 30.379 32.4449C29.031 31.5455 27.9808 30.2655 27.3621 28.7678C26.7434 27.27 26.5841 25.6221 26.9044 24.0335C27.2248 22.4449 28.0103 20.9875 29.1611 19.8466C30.3119 18.7057 31.7761 17.9327 33.3673 17.6261C34.9586 17.3195 36.6051 17.493 38.0975 18.1246C39.5899 18.7562 40.8607 19.8174 41.7484 21.1731C42.6361 22.5289 43.1006 24.1181 43.0827 25.7385C43.0616 27.887 42.194 29.9406 40.6681 31.4533C39.1423 32.9661 37.0813 33.816 34.9327 33.8185ZM34.9327 19.8185C33.7743 19.8146 32.6409 20.1553 31.6766 20.7973C30.7123 21.4393 29.9607 22.3535 29.5175 23.4238C29.0742 24.4941 28.9592 25.672 29.1872 26.8078C29.4152 27.9436 29.9758 28.9859 30.7978 29.8022C31.6197 30.6185 32.6659 31.1719 33.8032 31.392C34.9405 31.6122 36.1176 31.4891 37.1848 31.0385C38.252 30.5878 39.1611 29.83 39.7964 28.8613C40.4317 27.8926 40.7646 26.7569 40.7527 25.5985C40.7369 24.0635 40.1174 22.5964 39.0282 21.5147C37.9391 20.433 36.4678 19.8237 34.9327 19.8185Z" fill="#231F20"/>
</g>
<defs>
<clipPath id="clip0_344_11258">
<rect width="70" height="70" fill="white"/>
</clipPath>
</defs>
</svg>
