<svg width="70" height="70" viewBox="0 0 70 70" fill="none" xmlns="http://www.w3.org/2000/svg">
<path d="M36.0904 0C38.1404 0.69 40.1804 1.38 42.2304 2.05L63.2304 8.88C64.3304 9.24 64.5604 9.55 64.5604 10.7C64.5604 17.29 64.6704 23.88 64.5604 30.47C64.5573 40.5975 60.9405 50.3914 54.3604 58.09C50.6284 62.3946 45.9819 65.8111 40.7604 68.09C39.3104 68.74 37.8204 69.32 36.3104 69.83C35.7076 70.0152 35.0632 70.0152 34.4604 69.83C29.1738 68.1529 24.2773 65.4325 20.0604 61.83C14.9108 57.3807 11.0151 51.6612 8.76039 45.24C6.91246 40.1782 5.97796 34.8285 6.00039 29.44C6.00039 23.22 6.00039 17 6.00039 10.77C6.00039 9.53 6.21039 9.24 7.40039 8.86L33.7704 0.28C34.0004 0.2 34.2204 0.09 34.4504 0H36.0904ZM8.58039 22.4C8.58039 25.09 8.58039 27.78 8.58039 30.47C8.56265 34.2139 9.07782 37.9413 10.1104 41.54C11.6329 47.2409 14.4879 52.4986 18.4404 56.88C22.9298 61.715 28.5828 65.3195 34.8604 67.35C35.1555 67.4498 35.4753 67.4498 35.7704 67.35C37.1504 66.83 38.5404 66.35 39.8904 65.71C44.8035 63.5243 49.1613 60.2602 52.6404 56.16C58.6912 48.9834 62.0069 39.897 62.0004 30.51C62.1004 24.28 62.0004 18.06 62.0004 11.83C62.0175 11.7281 62.0142 11.6239 61.9907 11.5233C61.9672 11.4228 61.924 11.3279 61.8635 11.2442C61.803 11.1604 61.7265 11.0895 61.6385 11.0356C61.5504 10.9817 61.4525 10.9458 61.3504 10.93L35.8104 2.66C35.4835 2.56768 35.1373 2.56768 34.8104 2.66C26.2704 5.41333 17.7271 8.17333 9.18039 10.94C9.08355 10.9557 8.99079 10.9905 8.90753 11.0424C8.82426 11.0943 8.75215 11.1623 8.69538 11.2423C8.63862 11.3223 8.59833 11.4129 8.57688 11.5086C8.55542 11.6043 8.55322 11.7034 8.57039 11.8C8.59039 15.34 8.58039 18.87 8.58039 22.4Z" fill="#B12237"/>
<path d="M57.4404 23.24C57.4404 24.77 57.3804 26.3 57.4404 27.82C57.5496 32.2272 56.834 36.6159 55.3304 40.76C53.644 45.8862 50.8125 50.5611 47.0504 54.43C43.9302 57.5736 40.1819 60.0236 36.0504 61.62C35.6068 61.7747 35.124 61.7747 34.6804 61.62C27.8733 58.9994 22.1842 54.1017 18.5804 47.76C15.6372 42.6752 13.8355 37.0108 13.3004 31.16C13.2854 30.9103 13.2854 30.6598 13.3004 30.41V15.64C13.3004 14.36 13.5004 14.08 14.7304 13.64C21.2637 11.44 27.7971 9.24004 34.3304 7.04004C35.015 6.79004 35.7659 6.79004 36.4504 7.04004C42.9971 9.26004 49.5537 11.4667 56.1204 13.66C57.2504 14.04 57.4704 14.34 57.4704 15.55L57.4404 23.24ZM54.8704 24C54.8704 21.56 54.8704 19.12 54.8704 16.69C54.8935 16.5796 54.8942 16.4655 54.8722 16.3548C54.8503 16.2441 54.8063 16.1389 54.7429 16.0456C54.6794 15.9522 54.5977 15.8726 54.5028 15.8116C54.4079 15.7505 54.3017 15.7091 54.1904 15.69C48.1004 13.69 42.0304 11.6 35.9404 9.58004C35.5358 9.46001 35.105 9.46001 34.7004 9.58004C28.6204 11.58 22.5404 13.66 16.4504 15.69C16.2459 15.7291 16.0642 15.8454 15.9432 16.0149C15.8221 16.1843 15.771 16.3939 15.8004 16.6C15.8004 21.23 15.8004 25.86 15.8004 30.48C15.7919 30.8441 15.8086 31.2083 15.8504 31.57C16.4279 36.7192 18.0475 41.6969 20.6104 46.2C23.8006 51.9582 28.8436 56.469 34.9204 59C35.189 59.0946 35.4818 59.0946 35.7504 59C38.9594 57.6828 41.9035 55.7957 44.4404 53.43C47.7556 50.2795 50.3603 46.4577 52.0804 42.22C53.6369 38.6414 54.5703 34.8231 54.8404 30.93C55.0004 28.62 54.8704 26.31 54.8704 24Z" fill="#B12237"/>
<path d="M33.3504 43.4999L40.2004 35.2899L47.9104 26.0599C48.0383 25.8988 48.1824 25.7514 48.3404 25.6199C48.5575 25.4293 48.8365 25.3242 49.1254 25.3242C49.4143 25.3242 49.6933 25.4293 49.9104 25.6199C50.154 25.7967 50.3201 26.0606 50.3741 26.3567C50.4281 26.6529 50.3659 26.9584 50.2004 27.2099C49.8992 27.667 49.565 28.1015 49.2004 28.5099L34.7004 45.8599C33.8704 46.8599 33.1604 46.8599 32.2504 45.9299L22.3504 35.5299C22.1509 35.3444 21.9821 35.1283 21.8504 34.8899C21.7115 34.6498 21.6624 34.3682 21.7119 34.0953C21.7613 33.8224 21.9061 33.5759 22.1204 33.3999C22.3076 33.2112 22.5543 33.0931 22.8186 33.0658C23.083 33.0384 23.3486 33.1035 23.5704 33.2499C23.8375 33.4267 24.0797 33.6386 24.2904 33.8799C27.1704 36.8799 30.0404 39.8799 32.9204 42.9399C33.0504 43.0899 33.1704 43.2599 33.3504 43.4999Z" fill="#231F20"/>
</svg>
