<svg width="36" height="48" viewBox="0 0 36 48" fill="none" xmlns="http://www.w3.org/2000/svg">
<path d="M35.8729 9.7163V8.12109C35.8729 6.9195 35.8729 5.72481 35.8729 4.52322C35.9045 3.80785 35.7591 3.09572 35.4495 2.45002C35.1399 1.80433 34.6757 1.24504 34.0981 0.821777C33.4764 0.398763 32.769 0.118165 32.0264 0L10.0939 0L9.81081 0.200265C9.5754 0.345328 9.35555 0.514258 9.15477 0.70438L5.09422 4.75802L0.633152 9.19837C0.427579 9.39034 0.265221 9.62387 0.156871 9.88344C0.0485204 10.143 -0.00334068 10.4227 0.0047346 10.7038C0.0047346 15.0912 0.0047346 19.4648 0.0047346 23.8246V43.4368C-0.0280836 44.1363 0.110093 44.8333 0.407303 45.4674C0.704513 46.1016 1.1518 46.6537 1.71044 47.0761C2.52572 47.7039 3.53402 48.0286 4.56249 47.9945H31.3773C32.0823 48.0302 32.7852 47.8913 33.4237 47.5902C34.0622 47.289 34.6164 46.8349 35.0373 46.2681C35.665 45.3994 35.9747 44.3411 35.9143 43.271C35.9143 34.487 35.9143 25.6984 35.9143 16.9051L35.8729 9.7163ZM10.6326 2.9142V5.67647C10.6326 6.66399 10.6326 7.6515 10.6326 8.63901C10.6648 8.90976 10.6351 9.18428 10.5459 9.44192C10.4566 9.69955 10.3101 9.93357 10.1173 10.1264C9.9245 10.3192 9.69047 10.4657 9.43284 10.555C9.17521 10.6442 8.90068 10.6739 8.62994 10.6417H3.66475C3.57975 10.6494 3.49423 10.6494 3.40924 10.6417L2.98108 10.6071L10.6326 2.9142ZM33.4213 43.3677C33.4213 44.8455 32.7308 45.5085 31.2599 45.5085H4.64535C3.16063 45.5085 2.50459 44.8179 2.50459 43.347V13.1208H5.08732C6.46846 13.1208 7.89103 13.1208 9.29288 13.0656C10.2641 12.9913 11.1768 12.5728 11.8668 11.8854C12.5568 11.1979 12.9787 10.2867 13.0565 9.31577C13.1186 7.93463 13.1186 6.49825 13.1117 5.11711C13.1117 4.50941 13.1117 3.89481 13.1117 3.28711V2.48605H31.2668C32.7101 2.48605 33.3868 3.17662 33.3868 4.6199L33.4213 43.3677Z" fill="#B12237"/>
<path d="M24.3681 24.3216C24.1399 24.2699 23.9024 24.277 23.6777 24.3422C23.453 24.4075 23.2486 24.5287 23.0836 24.6945C22.3931 25.3851 21.6542 26.0757 20.9498 26.8146L19.907 27.8573L19.6446 28.099L19.2026 28.5065V20.3578C19.2026 19.5843 19.2026 18.8178 19.2026 18.0444C19.2094 17.8524 19.1761 17.6611 19.1047 17.4827C19.0334 17.3044 18.9256 17.1429 18.7883 17.0085C18.6609 16.8941 18.5108 16.8078 18.3477 16.7555C18.1847 16.7031 18.0124 16.6858 17.8422 16.7047C17.6764 16.7183 17.5151 16.7653 17.3679 16.8428C17.2206 16.9203 17.0906 17.0267 16.9855 17.1557C16.8804 17.2846 16.8024 17.4335 16.7562 17.5933C16.71 17.7531 16.6965 17.9206 16.7166 18.0858V28.5134L16.2608 28.099L16.0122 27.8712L14.9902 26.8422C14.2674 26.1194 13.54 25.3966 12.808 24.6738C12.6864 24.544 12.54 24.4399 12.3775 24.3675C12.215 24.2952 12.0397 24.2561 11.8619 24.2526C11.7059 24.2546 11.5517 24.2874 11.4084 24.349C11.265 24.4106 11.1352 24.4999 11.0263 24.6117C10.9081 24.7225 10.8135 24.8561 10.7482 25.0045C10.6829 25.1528 10.6483 25.3128 10.6465 25.4749C10.6457 25.6501 10.6815 25.8235 10.7517 25.9841C10.8218 26.1446 10.9248 26.2887 11.0539 26.4071C13.0221 28.396 15.0523 30.4263 17.0895 32.4427C17.2002 32.5644 17.3351 32.6616 17.4855 32.7281C17.6359 32.7947 17.7986 32.829 17.9631 32.829C18.1276 32.829 18.2902 32.7947 18.4407 32.7281C18.5911 32.6616 18.726 32.5644 18.8366 32.4427C20.8186 30.4953 22.7591 28.541 24.9136 26.3795C25.0711 26.2315 25.1852 26.0433 25.2436 25.8352C25.302 25.6271 25.3025 25.407 25.2451 25.1987C25.1905 24.9875 25.0803 24.7949 24.9261 24.6406C24.7719 24.4864 24.5792 24.3763 24.3681 24.3216Z" fill="#B12237"/>
<path d="M23.9193 36.4138H15.5565C14.3342 36.4138 13.105 36.4138 11.8826 36.4138C11.7229 36.4083 11.5636 36.4348 11.4143 36.4919C11.265 36.5491 11.1287 36.6356 11.0134 36.7463C10.8982 36.8571 10.8063 36.9898 10.7433 37.1368C10.6803 37.2837 10.6474 37.4417 10.6465 37.6016C10.6334 37.9235 10.7479 38.2377 10.9652 38.4756C11.1824 38.7136 11.4849 38.8561 11.8067 38.8722C11.963 38.8826 12.1199 38.8826 12.2763 38.8722H23.5878C23.8189 38.8739 24.0498 38.8578 24.2783 38.8239C24.4742 38.7966 24.6595 38.7185 24.8158 38.5973C24.9721 38.4761 25.0939 38.3162 25.1692 38.1333C25.2514 37.9543 25.2876 37.7575 25.2743 37.5608C25.2611 37.3642 25.1988 37.1741 25.0932 37.0077C24.9624 36.8189 24.7865 36.6657 24.5815 36.562C24.3765 36.4583 24.1489 36.4074 23.9193 36.4138Z" fill="#B12237"/>
</svg>
