<svg width="70" height="70" viewBox="0 0 70 70" fill="none" xmlns="http://www.w3.org/2000/svg">
<g clip-path="url(#clip0_361_12311)">
<path d="M45.0383 18.5945L42.204 20.82L42.723 21.2093C50.0482 26.6084 53.5013 33.8538 52.7827 42.9056C52.2867 48.2561 49.9714 53.2749 46.223 57.125C42.4746 60.9752 37.5196 63.4239 32.1842 64.063C30.4451 64.2111 28.6982 64.2445 26.9547 64.1628C26.7379 64.1419 26.5282 64.0739 26.3403 63.9636C26.1524 63.8533 25.9908 63.7033 25.8669 63.524C25.4478 62.8354 26.0466 62.1169 26.9248 62.1368C28.0625 62.1368 29.2102 62.2366 30.3479 62.1967C35.2063 61.9474 39.8388 60.0674 43.4968 56.8603C47.1548 53.6532 49.6247 49.3064 50.5073 44.5223C51.0094 41.6709 50.9517 38.749 50.3377 35.9196C48.5313 36.9176 46.7648 37.9156 45.5972 39.6022C44.6691 40.9695 44.8986 42.5263 45.0283 44.0533C45.2735 45.2815 45.3374 46.539 45.218 47.7857C44.8711 49.4487 44.0802 50.9867 42.9292 52.2361C41.7782 53.4855 40.3101 54.3997 38.6811 54.8814C38.2446 55.0635 37.7731 55.146 37.3007 55.1229C36.8283 55.0999 36.367 54.9719 35.9503 54.7482C35.5336 54.5246 35.172 54.2109 34.8917 53.83C34.6114 53.4491 34.4195 53.0105 34.3299 52.5462C34.0076 51.3536 33.8235 50.1281 33.781 48.8935C33.6612 46.4185 33.7111 43.9036 33.6014 41.4685C33.5016 39.3827 33.272 39.2729 31.2062 39.5324C29.5799 39.804 27.9348 39.9474 26.2861 39.9615C25.4319 39.9336 24.5936 39.7233 23.8275 39.3445C23.0614 38.9658 22.3852 38.4274 21.8445 37.7656C21.3037 37.1039 20.9109 36.334 20.6923 35.5078C20.4738 34.6816 20.4347 33.8181 20.5776 32.9756C20.928 30.8742 22.0269 28.9706 23.6714 27.6164C23.831 27.4667 24.0007 27.3269 24.1703 27.1872L24.2402 27.0275C21.2015 26.6664 18.2984 25.5627 15.7872 23.814C13.0584 25.9699 10.891 28.7535 9.46995 31.9277C9.43508 32.0115 9.41714 32.1014 9.41714 32.1921C9.41714 32.2829 9.43508 32.3728 9.46995 32.4566C10.3282 33.9735 11.2364 35.4506 12.0647 36.9975C12.2704 37.4215 12.5694 37.7935 12.9392 38.0856C13.3091 38.3776 13.7403 38.5823 14.2004 38.6841C14.8361 38.8451 15.4519 39.0761 16.0367 39.3727C16.708 39.6405 17.2489 40.1588 17.545 40.8181C17.8411 41.4773 17.8693 42.2259 17.6235 42.9056C17.2543 44.0932 16.6954 45.2409 16.2164 46.3985C16.0611 46.7824 15.8811 47.1557 15.6774 47.5163C15.2901 48.1099 15.0839 48.8034 15.0839 49.5123C15.0839 50.2211 15.2901 50.9146 15.6774 51.5082C16.7036 53.3504 17.0864 55.482 16.7653 57.566C16.6977 57.7558 16.7043 57.9642 16.7839 58.1493C16.8635 58.3344 17.0101 58.4825 17.1944 58.564C18.4319 59.2127 19.6594 59.9113 20.8969 60.56C21.6454 60.9492 21.8949 61.4183 21.6255 62.037C21.356 62.6558 20.8271 62.7855 20.0786 62.4362C11.9749 58.7437 6.98495 52.5262 5.8173 43.6541C4.73947 35.4007 7.52387 28.4347 13.6715 22.826L14.0108 22.5066C13.9251 22.3907 13.8318 22.2807 13.7314 22.1773C9.95242 18.8482 6.86349 14.8099 4.63967 10.2912C4.4823 10.0553 4.42052 9.7683 4.46685 9.48849C4.51318 9.20867 4.66415 8.95693 4.88917 8.78427C9.7394 4.66257 15.0387 1.39914 21.4259 0.271412C27.2442 -0.726579 32.2341 1.07978 36.6253 4.83223C36.7346 4.91711 36.8251 5.02381 36.891 5.14556C36.9569 5.2673 36.9967 5.40142 37.008 5.53939C37.0193 5.67737 37.0017 5.81617 36.9564 5.94699C36.9112 6.07781 36.8392 6.19778 36.745 6.29927C36.6515 6.40218 36.5375 6.48441 36.4103 6.54068C36.2831 6.59694 36.1456 6.62601 36.0065 6.62601C35.8674 6.62601 35.7299 6.59694 35.6027 6.54068C35.4756 6.48441 35.3615 6.40218 35.268 6.29927C33.6016 4.89794 31.7171 3.77872 29.6892 2.98595C28.1452 2.38762 26.5049 2.07646 24.849 2.06779C25.0186 2.32727 25.1184 2.50691 25.2382 2.67657C27.8995 6.32921 30.5841 9.98851 33.292 13.6545C33.4417 13.8541 33.6413 14.1135 33.8509 14.1634C36.8448 14.7722 39.8388 15.3411 42.8328 15.9299L42.9725 15.7802L39.6292 10.9699C39.5494 10.8501 39.4496 10.7503 39.3598 10.6306C38.8408 9.95192 38.8508 9.39304 39.3598 8.98387C39.8687 8.57469 40.4176 8.70443 40.9066 9.34315C41.4516 9.98019 41.9613 10.6465 42.4336 11.3391C43.3263 12.9801 44.3265 14.5604 45.4275 16.0696C46.7404 17.3883 48.148 18.6091 49.6391 19.7222C50.0582 20.0815 50.4474 20.4807 50.8866 20.8899C50.7868 20.1214 50.667 19.3829 50.5872 18.6344C50.2746 16.4604 50.543 14.2423 51.365 12.2055C52.1871 10.1687 53.5336 8.38578 55.2677 7.03779C58.1324 4.74042 61.4577 3.08625 65.0181 2.18755C65.2923 2.07808 65.5985 2.08052 65.871 2.19435C66.1434 2.30818 66.3603 2.52431 66.4752 2.79633C68.3926 6.07734 69.5488 9.74709 69.8583 13.5347C70.0214 15.5925 69.6687 17.6584 68.8323 19.5456C67.9958 21.4328 66.7021 23.0816 65.068 24.3429C62.6359 26.2941 59.8603 27.7733 56.8845 28.7042L56.0661 28.9836C56.1559 29.2531 56.2358 29.4926 56.3356 29.7321C57.86 33.4708 58.5934 37.4847 58.4895 41.5209C58.3857 45.5571 57.4468 49.528 55.732 53.1833C54.0173 56.8386 51.5639 60.099 48.5266 62.7591C45.4892 65.4192 41.9337 67.4211 38.0842 68.6388C34.2346 69.8566 30.1746 70.2636 26.16 69.8343C22.1453 69.405 18.2632 68.1487 14.7582 66.1445C11.2532 64.1403 8.20141 61.4318 5.79518 58.1896C3.38896 54.9474 1.68048 51.2419 0.777451 47.3067C-0.105555 43.642 -0.23795 39.8365 0.388234 36.1192C0.517973 35.3109 0.907189 34.9915 1.58582 35.1212C2.26446 35.251 2.51395 35.6901 2.40418 36.4885C1.39668 42.8095 2.65867 49.2832 5.96664 54.763C9.27461 60.2428 14.4151 64.3752 20.4778 66.4282C35.9267 71.7175 52.9923 61.8674 55.8865 45.7997C57.8825 34.9216 54.2198 25.9397 45.6671 18.9538C45.5174 18.834 45.3577 18.7243 45.198 18.6145C45.1455 18.6031 45.092 18.5964 45.0383 18.5945ZM49.7488 33.9236C49.7268 33.8325 49.7002 33.7426 49.669 33.6542C48.0962 29.0397 45.0124 25.0909 40.9166 22.4468C40.7413 22.31 40.5252 22.2357 40.3029 22.2357C40.0805 22.2357 39.8645 22.31 39.6891 22.4468C36.2565 24.7023 32.3805 26.1962 28.322 26.8279C28.1578 26.8597 28.0017 26.9242 27.8629 27.0176C27.2442 27.4467 26.6254 27.8658 26.0166 28.3149C24.5485 29.2678 23.4254 30.6672 22.8131 32.3069C22.5686 32.9498 22.4882 33.6434 22.5789 34.3252C22.6696 35.007 22.9287 35.6554 23.3328 36.212C23.7369 36.7686 24.2732 37.2157 24.8933 37.5132C25.5135 37.8106 26.1979 37.9489 26.8849 37.9156C27.4892 37.9121 28.0926 37.8688 28.6912 37.7859C29.9387 37.6262 31.1862 37.4066 32.4337 37.2769C32.9803 37.1751 33.5452 37.2733 34.0253 37.5537C34.5054 37.8341 34.8685 38.2778 35.0484 38.8038C35.3684 39.5591 35.5639 40.3612 35.6273 41.179C35.747 43.6042 35.7071 46.0293 35.8169 48.4544C35.8657 49.6086 36.0092 50.7568 36.246 51.8875C36.4756 52.8855 37.1143 53.2048 38.1223 52.9653C39.6842 52.4744 41.0342 51.4697 41.9528 50.1144C42.8715 48.7592 43.3047 47.133 43.1821 45.5003L42.9725 44.1431C42.6118 42.5414 42.7749 40.8662 43.4379 39.3642C44.1008 37.8622 45.2286 36.6127 46.6551 35.7999C47.673 35.1711 48.701 34.5324 49.7488 33.9236ZM22.0247 24.3829C23.2422 24.9717 26.0865 25.0216 27.5635 24.8619C30.9898 24.4166 34.2862 23.2646 37.244 21.4787C39.0404 20.4807 40.747 19.2632 42.6531 18.0356C42.2539 17.9159 42.1042 17.846 41.9446 17.8161C39.2101 17.2871 36.4756 16.7383 33.7411 16.2393C33.3876 16.1974 33.0314 16.29 32.7431 16.4987C29.31 18.9937 25.8969 21.4887 22.4738 24.0136C22.334 24.1234 22.1843 24.2531 22.0247 24.3829ZM8.49192 34.6821C6.10672 42.5762 8.98093 51.8875 14.7094 56.5082C14.7956 54.7474 14.3317 53.0035 13.3821 51.5182C13.1023 51.0923 12.9275 50.6061 12.872 50.0996C12.8164 49.593 12.8818 49.0805 13.0627 48.6041C13.4719 47.4963 13.9809 46.4185 14.4399 45.3307C14.8292 44.4125 15.2483 43.5143 15.5876 42.5862C15.9269 41.6581 15.7473 41.3886 14.8591 41.0094C14.4592 40.8323 14.0453 40.6888 13.6216 40.5802C12.8921 40.4259 12.2081 40.1052 11.6229 39.6429C11.0378 39.1807 10.5674 38.5896 10.2484 37.9156C9.71945 36.8478 9.12065 35.8198 8.49192 34.6821ZM14.0906 19.7123C15.584 21.1215 17.2629 22.3202 19.0806 23.2751C19.2486 23.385 19.4491 23.4341 19.6489 23.4141C19.8486 23.3941 20.0355 23.3063 20.1784 23.1653C22.7632 21.2492 25.3679 19.353 27.9627 17.4468L30.4377 15.6305C30.3594 15.5757 30.2759 15.5289 30.1882 15.4908C27.5935 14.9818 25.0087 14.4928 22.4239 13.9838C22.1888 13.9505 21.9499 14.0076 21.7552 14.1435C19.1804 16.0097 16.6655 17.856 14.0906 19.7522V19.7123ZM30.4776 13.4449C30.4776 13.3451 30.4776 13.3052 30.4776 13.2952C27.8163 9.68246 25.155 6.06974 22.4937 2.45701C22.4285 2.37932 22.3477 2.3161 22.2567 2.27142C22.1656 2.22674 22.0662 2.20157 21.9648 2.19753C20.1339 2.46303 18.3477 2.97673 16.6555 3.72446C16.6555 3.83424 16.6555 3.88414 16.6555 3.92406C18.5417 6.49887 20.4179 9.08367 22.334 11.6485C22.5231 11.8552 22.7762 11.9923 23.0526 12.0377C24.2602 12.2972 25.4777 12.5267 26.6853 12.7563L30.4776 13.4449ZM67.6727 15.9598C65.088 17.0277 62.603 18.0356 60.1279 19.0835C59.8923 19.2363 59.7162 19.4653 59.6289 19.7322C58.7507 21.818 57.8825 23.8739 57.0442 25.9397C56.9743 26.1094 56.9244 26.289 56.8545 26.4986C60.3774 25.5006 64.5191 22.826 66.2656 19.9817C67.03 18.7634 67.5109 17.3889 67.6727 15.9598ZM54.8087 25.7701C54.8631 25.7243 54.9102 25.6704 54.9484 25.6104C55.8565 23.4447 56.7647 21.2791 57.6529 19.1135C57.7228 18.9406 57.7228 18.7474 57.6529 18.5746C56.6549 16.0297 55.5671 13.4848 54.5093 10.92C51.5352 14.2034 52.2139 20.7003 54.8087 25.7701ZM19.2702 13.405L7.42407 11.0996C8.86995 13.687 10.6151 16.0954 12.6236 18.2752L19.2702 13.405ZM63.6808 4.74241C60.9562 5.6348 58.4311 7.04821 56.2458 8.90403C56.1892 8.97078 56.1481 9.0493 56.1257 9.13389C56.1032 9.21848 56.0999 9.30702 56.116 9.39304C57.0142 11.5986 57.9224 13.7942 58.9004 16.1594L63.6808 4.74241ZM7.79332 8.85413L7.98294 9.11361L19.7193 11.399L14.6695 4.51287L7.79332 8.85413ZM60.9363 16.5486C63.0521 15.6704 64.9283 14.8421 66.9243 14.1036C67.6228 13.8441 67.9222 13.5048 67.6927 12.7862C67.5929 12.387 67.5929 11.9679 67.5231 11.5587C67.1332 9.4812 66.4617 7.46663 65.5271 5.57074C64.0301 9.23337 62.5331 12.7962 60.9663 16.5486H60.9363Z" fill="#B12237"/>
<mask id="mask0_361_12311" style="mask-type:alpha" maskUnits="userSpaceOnUse" x="0" y="0" width="70" height="70">
<path d="M45.0383 18.5945L42.204 20.82L42.723 21.2093C50.0482 26.6084 53.5013 33.8538 52.7827 42.9056C52.2867 48.2561 49.9714 53.2749 46.223 57.125C42.4746 60.9752 37.5196 63.4239 32.1842 64.063C30.4451 64.2111 28.6982 64.2445 26.9547 64.1628C26.7379 64.1419 26.5282 64.0739 26.3403 63.9636C26.1524 63.8533 25.9908 63.7033 25.8669 63.524C25.4478 62.8354 26.0466 62.1169 26.9248 62.1368C28.0625 62.1368 29.2102 62.2366 30.3479 62.1967C35.2063 61.9474 39.8388 60.0674 43.4968 56.8603C47.1548 53.6532 49.6247 49.3064 50.5073 44.5223C51.0094 41.6709 50.9517 38.749 50.3377 35.9196C48.5313 36.9176 46.7648 37.9156 45.5972 39.6022C44.6691 40.9695 44.8986 42.5263 45.0283 44.0533C45.2735 45.2815 45.3374 46.539 45.218 47.7857C44.8711 49.4487 44.0802 50.9867 42.9292 52.2361C41.7782 53.4855 40.3101 54.3997 38.6811 54.8814C38.2446 55.0635 37.7731 55.146 37.3007 55.1229C36.8283 55.0999 36.367 54.9719 35.9503 54.7482C35.5336 54.5246 35.172 54.2109 34.8917 53.83C34.6114 53.4491 34.4195 53.0105 34.3299 52.5462C34.0076 51.3536 33.8235 50.1281 33.781 48.8935C33.6612 46.4185 33.7111 43.9036 33.6014 41.4685C33.5016 39.3827 33.272 39.2729 31.2062 39.5324C29.5799 39.804 27.9348 39.9474 26.2861 39.9615C25.4319 39.9336 24.5936 39.7233 23.8275 39.3445C23.0614 38.9658 22.3852 38.4274 21.8445 37.7656C21.3037 37.1039 20.9109 36.334 20.6923 35.5078C20.4738 34.6816 20.4347 33.8181 20.5776 32.9756C20.928 30.8742 22.0269 28.9706 23.6714 27.6164C23.831 27.4667 24.0007 27.3269 24.1703 27.1872L24.2402 27.0275C21.2015 26.6664 18.2984 25.5627 15.7872 23.814C13.0584 25.9699 10.891 28.7535 9.46995 31.9277C9.43508 32.0115 9.41714 32.1014 9.41714 32.1921C9.41714 32.2829 9.43508 32.3728 9.46995 32.4566C10.3282 33.9735 11.2364 35.4506 12.0647 36.9975C12.2704 37.4215 12.5694 37.7935 12.9392 38.0856C13.3091 38.3776 13.7403 38.5823 14.2004 38.6841C14.8361 38.8451 15.4519 39.0761 16.0367 39.3727C16.708 39.6405 17.2489 40.1588 17.545 40.8181C17.8411 41.4773 17.8693 42.2259 17.6235 42.9056C17.2543 44.0932 16.6954 45.2409 16.2164 46.3985C16.0611 46.7824 15.8811 47.1557 15.6774 47.5163C15.2901 48.1099 15.0839 48.8034 15.0839 49.5123C15.0839 50.2211 15.2901 50.9146 15.6774 51.5082C16.7036 53.3504 17.0864 55.482 16.7653 57.566C16.6977 57.7558 16.7043 57.9642 16.7839 58.1493C16.8635 58.3344 17.0101 58.4825 17.1944 58.564C18.4319 59.2127 19.6594 59.9113 20.8969 60.56C21.6454 60.9492 21.8949 61.4183 21.6255 62.037C21.356 62.6558 20.8271 62.7855 20.0786 62.4362C11.9749 58.7437 6.98495 52.5262 5.8173 43.6541C4.73947 35.4007 7.52387 28.4347 13.6715 22.826L14.0108 22.5066C13.9251 22.3907 13.8318 22.2807 13.7314 22.1773C9.95242 18.8482 6.86349 14.8099 4.63967 10.2912C4.4823 10.0553 4.42052 9.7683 4.46685 9.48849C4.51318 9.20867 4.66415 8.95693 4.88917 8.78427C9.7394 4.66257 15.0387 1.39914 21.4259 0.271412C27.2442 -0.726579 32.2341 1.07978 36.6253 4.83223C36.7346 4.91711 36.8251 5.02381 36.891 5.14556C36.9569 5.2673 36.9967 5.40142 37.008 5.53939C37.0193 5.67737 37.0017 5.81617 36.9564 5.94699C36.9112 6.07781 36.8392 6.19778 36.745 6.29927C36.6515 6.40218 36.5375 6.48441 36.4103 6.54068C36.2831 6.59694 36.1456 6.62601 36.0065 6.62601C35.8674 6.62601 35.7299 6.59694 35.6027 6.54068C35.4756 6.48441 35.3615 6.40218 35.268 6.29927C33.6016 4.89794 31.7171 3.77872 29.6892 2.98595C28.1452 2.38762 26.5049 2.07646 24.849 2.06779C25.0186 2.32727 25.1184 2.50691 25.2382 2.67657C27.8995 6.32921 30.5841 9.98851 33.292 13.6545C33.4417 13.8541 33.6413 14.1135 33.8509 14.1634C36.8448 14.7722 39.8388 15.3411 42.8328 15.9299L42.9725 15.7802L39.6292 10.9699C39.5494 10.8501 39.4496 10.7503 39.3598 10.6306C38.8408 9.95192 38.8508 9.39304 39.3598 8.98387C39.8687 8.57469 40.4176 8.70443 40.9066 9.34315C41.4516 9.98019 41.9613 10.6465 42.4336 11.3391C43.3263 12.9801 44.3265 14.5604 45.4275 16.0696C46.7404 17.3883 48.148 18.6091 49.6391 19.7222C50.0582 20.0815 50.4474 20.4807 50.8866 20.8899C50.7868 20.1214 50.667 19.3829 50.5872 18.6344C50.2746 16.4604 50.543 14.2423 51.365 12.2055C52.1871 10.1687 53.5336 8.38578 55.2677 7.03779C58.1324 4.74042 61.4577 3.08625 65.0181 2.18755C65.2923 2.07808 65.5985 2.08052 65.871 2.19435C66.1434 2.30818 66.3603 2.52431 66.4752 2.79633C68.3926 6.07734 69.5488 9.74709 69.8583 13.5347C70.0214 15.5925 69.6687 17.6584 68.8323 19.5456C67.9958 21.4328 66.7021 23.0816 65.068 24.3429C62.6359 26.2941 59.8603 27.7733 56.8845 28.7042L56.0661 28.9836C56.1559 29.2531 56.2358 29.4926 56.3356 29.7321C57.86 33.4708 58.5934 37.4847 58.4895 41.5209C58.3857 45.5571 57.4468 49.528 55.732 53.1833C54.0173 56.8386 51.5639 60.099 48.5266 62.7591C45.4892 65.4192 41.9337 67.4211 38.0842 68.6388C34.2346 69.8566 30.1746 70.2636 26.16 69.8343C22.1453 69.405 18.2632 68.1487 14.7582 66.1445C11.2532 64.1403 8.20141 61.4318 5.79518 58.1896C3.38896 54.9474 1.68048 51.2419 0.777451 47.3067C-0.105555 43.642 -0.23795 39.8365 0.388234 36.1192C0.517973 35.3109 0.907189 34.9915 1.58582 35.1212C2.26446 35.251 2.51395 35.6901 2.40418 36.4885C1.39668 42.8095 2.65867 49.2832 5.96664 54.763C9.27461 60.2428 14.4151 64.3752 20.4778 66.4282C35.9267 71.7175 52.9923 61.8674 55.8865 45.7997C57.8825 34.9216 54.2198 25.9397 45.6671 18.9538C45.5174 18.834 45.3577 18.7243 45.198 18.6145C45.1455 18.6031 45.092 18.5964 45.0383 18.5945ZM49.7488 33.9236C49.7268 33.8325 49.7002 33.7426 49.669 33.6542C48.0962 29.0397 45.0124 25.0909 40.9166 22.4468C40.7413 22.31 40.5252 22.2357 40.3029 22.2357C40.0805 22.2357 39.8645 22.31 39.6891 22.4468C36.2565 24.7023 32.3805 26.1962 28.322 26.8279C28.1578 26.8597 28.0017 26.9242 27.8629 27.0176C27.2442 27.4467 26.6254 27.8658 26.0166 28.3149C24.5485 29.2678 23.4254 30.6672 22.8131 32.3069C22.5686 32.9498 22.4882 33.6434 22.5789 34.3252C22.6696 35.007 22.9287 35.6554 23.3328 36.212C23.7369 36.7686 24.2732 37.2157 24.8933 37.5132C25.5135 37.8106 26.1979 37.9489 26.8849 37.9156C27.4892 37.9121 28.0926 37.8688 28.6912 37.7859C29.9387 37.6262 31.1862 37.4066 32.4337 37.2769C32.9803 37.1751 33.5452 37.2733 34.0253 37.5537C34.5054 37.8341 34.8685 38.2778 35.0484 38.8038C35.3684 39.5591 35.5639 40.3612 35.6273 41.179C35.747 43.6042 35.7071 46.0293 35.8169 48.4544C35.8657 49.6086 36.0092 50.7568 36.246 51.8875C36.4756 52.8855 37.1143 53.2048 38.1223 52.9653C39.6842 52.4744 41.0342 51.4697 41.9528 50.1144C42.8715 48.7592 43.3047 47.133 43.1821 45.5003L42.9725 44.1431C42.6118 42.5414 42.7749 40.8662 43.4379 39.3642C44.1008 37.8622 45.2286 36.6127 46.6551 35.7999C47.673 35.1711 48.701 34.5324 49.7488 33.9236ZM22.0247 24.3829C23.2422 24.9717 26.0865 25.0216 27.5635 24.8619C30.9898 24.4166 34.2862 23.2646 37.244 21.4787C39.0404 20.4807 40.747 19.2632 42.6531 18.0356C42.2539 17.9159 42.1042 17.846 41.9446 17.8161C39.2101 17.2871 36.4756 16.7383 33.7411 16.2393C33.3876 16.1974 33.0314 16.29 32.7431 16.4987C29.31 18.9937 25.8969 21.4887 22.4738 24.0136C22.334 24.1234 22.1843 24.2531 22.0247 24.3829ZM8.49192 34.6821C6.10672 42.5762 8.98093 51.8875 14.7094 56.5082C14.7956 54.7474 14.3317 53.0035 13.3821 51.5182C13.1023 51.0923 12.9275 50.6061 12.872 50.0996C12.8164 49.593 12.8818 49.0805 13.0627 48.6041C13.4719 47.4963 13.9809 46.4185 14.4399 45.3307C14.8292 44.4125 15.2483 43.5143 15.5876 42.5862C15.9269 41.6581 15.7473 41.3886 14.8591 41.0094C14.4592 40.8323 14.0453 40.6888 13.6216 40.5802C12.8921 40.4259 12.2081 40.1052 11.6229 39.6429C11.0378 39.1807 10.5674 38.5896 10.2484 37.9156C9.71945 36.8478 9.12065 35.8198 8.49192 34.6821ZM14.0906 19.7123C15.584 21.1215 17.2629 22.3202 19.0806 23.2751C19.2486 23.385 19.4491 23.4341 19.6489 23.4141C19.8486 23.3941 20.0355 23.3063 20.1784 23.1653C22.7632 21.2492 25.3679 19.353 27.9627 17.4468L30.4377 15.6305C30.3594 15.5757 30.2759 15.5289 30.1882 15.4908C27.5935 14.9818 25.0087 14.4928 22.4239 13.9838C22.1888 13.9505 21.9499 14.0076 21.7552 14.1435C19.1804 16.0097 16.6655 17.856 14.0906 19.7522V19.7123ZM30.4776 13.4449C30.4776 13.3451 30.4776 13.3052 30.4776 13.2952C27.8163 9.68246 25.155 6.06974 22.4937 2.45701C22.4285 2.37932 22.3477 2.3161 22.2567 2.27142C22.1656 2.22674 22.0662 2.20157 21.9648 2.19753C20.1339 2.46303 18.3477 2.97673 16.6555 3.72446C16.6555 3.83424 16.6555 3.88414 16.6555 3.92406C18.5417 6.49887 20.4179 9.08367 22.334 11.6485C22.5231 11.8552 22.7762 11.9923 23.0526 12.0377C24.2602 12.2972 25.4777 12.5267 26.6853 12.7563L30.4776 13.4449ZM67.6727 15.9598C65.088 17.0277 62.603 18.0356 60.1279 19.0835C59.8923 19.2363 59.7162 19.4653 59.6289 19.7322C58.7507 21.818 57.8825 23.8739 57.0442 25.9397C56.9743 26.1094 56.9244 26.289 56.8545 26.4986C60.3774 25.5006 64.5191 22.826 66.2656 19.9817C67.03 18.7634 67.5109 17.3889 67.6727 15.9598ZM54.8087 25.7701C54.8631 25.7243 54.9102 25.6704 54.9484 25.6104C55.8565 23.4447 56.7647 21.2791 57.6529 19.1135C57.7228 18.9406 57.7228 18.7474 57.6529 18.5746C56.6549 16.0297 55.5671 13.4848 54.5093 10.92C51.5352 14.2034 52.2139 20.7003 54.8087 25.7701ZM19.2702 13.405L7.42407 11.0996C8.86995 13.687 10.6151 16.0954 12.6236 18.2752L19.2702 13.405ZM63.6808 4.74241C60.9562 5.6348 58.4311 7.04821 56.2458 8.90403C56.1892 8.97078 56.1481 9.0493 56.1257 9.13389C56.1032 9.21848 56.0999 9.30702 56.116 9.39304C57.0142 11.5986 57.9224 13.7942 58.9004 16.1594L63.6808 4.74241ZM7.79332 8.85413L7.98294 9.11361L19.7193 11.399L14.6695 4.51287L7.79332 8.85413ZM60.9363 16.5486C63.0521 15.6704 64.9283 14.8421 66.9243 14.1036C67.6228 13.8441 67.9222 13.5048 67.6927 12.7862C67.5929 12.387 67.5929 11.9679 67.5231 11.5587C67.1332 9.4812 66.4617 7.46663 65.5271 5.57074C64.0301 9.23337 62.5331 12.7962 60.9663 16.5486H60.9363Z" fill="#B12237"/>
</mask>
<g mask="url(#mask0_361_12311)">
<path d="M13 22L17 24.5L15.5 28L23.5 27H28.5L31.5 30L39 23L42 21H45C47.1667 24 51.6 30 52 30C52.5 30 54 45 53.5 46.5C53.1 47.7 49.6667 55 48 58.5L30 66L19.5 64L10.5 57.5L5 50C4.83333 44.1667 4.5 32 4.5 30C4.5 28 10.1667 23.8333 13 22Z" fill="#231F20"/>
</g>
</g>
<defs>
<clipPath id="clip0_361_12311">
<rect width="70" height="70" fill="white"/>
</clipPath>
</defs>
</svg>
