<svg width="70" height="70" viewBox="0 0 70 70" fill="none" xmlns="http://www.w3.org/2000/svg">
<g clip-path="url(#clip0_361_12310)">
<path d="M0 47.7294V13.5594C0.282657 12.5567 0.789659 11.6314 1.48265 10.8535C2.17564 10.0757 3.03646 9.46558 4 9.06944C5.60654 8.28531 7.27984 7.64611 9 7.15944C13.6045 5.96552 18.3991 5.69028 23.11 6.34944C27.42 6.90944 31.63 7.85944 35 11.0094C36.5258 9.52763 38.3895 8.43962 40.43 7.83944C47.1909 5.66836 54.4307 5.47063 61.3 7.26944C63.5959 7.7732 65.7575 8.76197 67.64 10.1694C68.3913 10.7153 68.9986 11.4356 69.4097 12.2683C69.8208 13.101 70.0234 14.0211 70 14.9494C70 25.5194 70 36.0794 70 46.6494C70.0257 47.3568 69.8988 48.0615 69.6279 48.7155C69.357 49.3695 68.9484 49.9575 68.43 50.4394C67.6892 51.1219 66.8741 51.719 66 52.2194C63.3388 53.6263 60.4334 54.5121 57.44 54.8294C55.89 55.0394 54.32 55.1494 52.75 55.3094C52.6729 56.1757 52.3997 57.0131 51.9509 57.7581C51.5022 58.5032 50.8897 59.1363 50.16 59.6094C48.6205 60.7479 46.8801 61.5859 45.03 62.0794C39.4601 63.6443 33.6029 63.8942 27.92 62.8094C25.22 62.4129 22.6319 61.4594 20.32 60.0094C19.4561 59.5337 18.7202 58.8559 18.1751 58.034C17.63 57.2121 17.292 56.2704 17.19 55.2894L16.5 55.2294C12.9103 55.1434 9.36076 54.4537 6 53.1894C3.36 52.1194 0.88 50.7894 0 47.7294ZM50 51.7294C49.88 51.7294 49.83 51.7294 49.8 51.7294C47.0878 53.3768 44.0584 54.4331 40.91 54.8294C40.7196 54.8912 40.5183 54.912 40.3193 54.8904C40.1202 54.8689 39.928 54.8056 39.7552 54.7045C39.5824 54.6035 39.4329 54.4671 39.3166 54.3042C39.2002 54.1413 39.1196 53.9557 39.08 53.7594C38.93 52.9194 39.5 52.3194 40.5 52.1194C41.77 51.8694 43.05 51.6194 44.29 51.2594C46.0355 50.8425 47.6525 50.0048 49 48.8194C49.4563 48.4455 49.7849 47.9387 49.94 47.3694C50.07 46.0794 49.94 44.7694 49.94 43.3694C45.34 46.3194 40.24 47.0094 35 47.0094C29.76 47.0094 24.62 46.2894 20 43.3794C20 44.3794 20.07 45.3794 20 46.2494C19.9352 46.8385 20.0401 47.4339 20.3023 47.9654C20.5645 48.4969 20.9731 48.9424 21.48 49.2494C21.9013 49.5599 22.346 49.8374 22.81 50.0794C24.9544 51.137 27.2587 51.833 29.63 52.1394C29.8266 52.145 30.0197 52.1926 30.1965 52.279C30.3732 52.3653 30.5294 52.4884 30.6546 52.6401C30.7799 52.7917 30.8713 52.9684 30.9227 53.1582C30.9741 53.3481 30.9843 53.5467 30.9527 53.7408C30.921 53.935 30.8483 54.1201 30.7393 54.2838C30.6302 54.4475 30.4875 54.586 30.3206 54.69C30.1537 54.7941 29.9664 54.8612 29.7714 54.887C29.5765 54.9128 29.3782 54.8965 29.19 54.8394C26.0039 54.4568 22.9359 53.4 20.19 51.7394C20.19 51.7394 20.07 51.7394 19.97 51.7394C19.97 52.7394 20.02 53.7394 19.97 54.7394C19.9203 55.2071 20.0004 55.6794 20.2015 56.1045C20.4026 56.5297 20.7169 56.8912 21.11 57.1494C22.1161 57.8513 23.1877 58.4541 24.31 58.9494C27.0727 60.018 29.9988 60.6032 32.96 60.6794C36.9591 60.9434 40.9727 60.4688 44.8 59.2794C46.2921 58.8503 47.683 58.126 48.89 57.1494C49.2076 56.929 49.4721 56.6404 49.6641 56.3048C49.8561 55.9692 49.9709 55.595 50 55.2094C50 54.0094 50 52.8894 50 51.6794V51.7294ZM17.89 19.7294C20.9617 19.7516 24.0235 19.3785 27 18.6194C28.9573 18.1831 30.8029 17.3454 32.42 16.1594C34 14.8794 34 13.5494 32.37 12.3394C31.4069 11.6171 30.3464 11.0346 29.22 10.6094C22.4131 8.25775 15.0353 8.12819 8.15 10.2394C6.60762 10.6566 5.16543 11.3811 3.91 12.3694C2.37 13.6094 2.35 14.9094 3.91 16.1194C4.6379 16.6707 5.42634 17.137 6.26 17.5094C9.95624 19.0186 13.9179 19.7701 17.91 19.7194L17.89 19.7294ZM51.51 19.7294C54.5679 19.7519 57.6161 19.3822 60.58 18.6294C62.4932 18.1955 64.3014 17.3866 65.9 16.2494C67.63 14.9194 67.68 13.5594 65.9 12.2994C64.9301 11.5841 63.8625 11.0116 62.73 10.5994C55.9674 8.26916 48.6407 8.13963 41.8 10.2294C40.2564 10.6414 38.8112 11.3589 37.55 12.3394C36 13.6194 36 14.9194 37.61 16.1594C38.3186 16.6939 39.083 17.1499 39.89 17.5194C43.5852 19.0191 47.5423 19.7671 51.53 19.7194L51.51 19.7294ZM34.81 44.3294C38.2378 44.3736 41.6507 43.8706 44.92 42.8394C46.4302 42.3951 47.8304 41.6388 49.03 40.6194C50.32 39.4294 50.39 38.2394 49.03 37.1494C48.0214 36.3321 46.904 35.6589 45.71 35.1494C42.9505 34.0683 40.0229 33.4793 37.06 33.4094C32.9832 33.1327 28.8909 33.6315 25 34.8794C23.4864 35.3162 22.0892 36.0848 20.91 37.1294C19.67 38.2994 19.64 39.4394 20.91 40.5594C21.6303 41.1852 22.4348 41.707 23.3 42.1094C26.9452 43.6485 30.874 44.4016 34.83 44.3194L34.81 44.3294ZM33.61 18.7394C28.79 21.6594 23.55 22.4294 18.17 22.4194C12.79 22.4094 7.53 21.6494 2.73 18.7394C2.73 19.8094 2.79 20.8094 2.73 21.7994C2.69578 22.3018 2.79527 22.8043 3.01836 23.2557C3.24144 23.7072 3.58015 24.0914 4 24.3694C5.32971 25.3704 6.84095 26.1039 8.45 26.5294C14.4965 28.2864 20.9049 28.3797 27 26.7994C28.9489 26.4113 30.7785 25.5684 32.34 24.3394C32.9192 23.91 33.3353 23.2964 33.52 22.5994C33.6458 21.3168 33.6759 20.0266 33.61 18.7394ZM36.36 18.7394C36.36 19.8194 36.36 20.8194 36.36 21.8194C36.3245 22.3206 36.4234 22.8221 36.6467 23.2722C36.87 23.7223 37.2095 24.1045 37.63 24.3794C38.9621 25.3765 40.4725 26.1097 42.08 26.5394C48.1468 28.2996 54.5763 28.3895 60.69 26.7994C62.623 26.4077 64.4399 25.5762 66 24.3694C66.578 23.9413 67.0024 23.3381 67.21 22.6494C67.3055 21.3512 67.3055 20.0477 67.21 18.7494C62.43 21.6494 57.21 22.4194 51.83 22.4194C46.45 22.4194 41.19 21.6594 36.36 18.7394ZM2.73 26.9394C2.73 28.0194 2.73 29.0394 2.73 30.0494C2.6847 30.5277 2.77174 31.0091 2.98161 31.4412C3.19148 31.8733 3.51611 32.2394 3.92 32.4994C4.72411 33.0873 5.58508 33.5932 6.49 34.0094C9.96733 35.3838 13.6709 36.0961 17.41 36.1094C17.6293 36.1367 17.852 36.1057 18.0556 36.0197C18.2592 35.9337 18.4366 35.7957 18.57 35.6194C18.9896 35.133 19.4702 34.7028 20 34.3394C22.3342 32.7732 24.9889 31.7482 27.77 31.3394C29.68 30.9994 31.63 30.8094 33.59 30.5494V27.0094C28.82 29.8994 23.59 30.6694 18.21 30.6594C12.83 30.6494 7.54 29.8494 2.73 26.9394ZM67.24 26.9394C62.43 29.8594 57.17 30.6294 51.78 30.6194C46.39 30.6094 41.14 29.8394 36.39 27.0094V30.6794L36.82 30.7294C39.8802 30.8459 42.9092 31.3878 45.82 32.3394C48.0446 32.9674 50.0498 34.2038 51.61 35.9094C51.7656 36.0605 51.9731 36.1464 52.19 36.1494C55.5204 36.1325 58.8286 35.6064 62 34.5894C63.5635 34.1645 65.0077 33.3843 66.22 32.3094C66.7077 31.8502 67.0369 31.2479 67.16 30.5894C67.2623 29.3756 67.289 28.1566 67.24 26.9394ZM2.73 35.0894C2.73 36.1794 2.79 37.1494 2.73 38.0894C2.6738 38.6256 2.7708 39.1667 3.00976 39.6499C3.24872 40.1331 3.61982 40.5387 4.08 40.8194C4.54262 41.1494 5.02338 41.4532 5.52 41.7294C8.07591 42.9774 10.8375 43.75 13.67 44.0094C14.83 44.1494 16 44.2094 17.19 44.3094V39.0094C14.67 38.6394 12.19 38.3594 9.74 37.8894C7.23806 37.4396 4.85333 36.4871 2.73 35.0894ZM2.73 43.2794C2.78565 44.2019 2.78565 45.1269 2.73 46.0494C2.64909 46.7111 2.77359 47.3816 3.08663 47.9702C3.39968 48.5587 3.88611 49.0367 4.48 49.3394C4.84 49.5694 5.21 49.7994 5.59 49.9994C8.54942 51.375 11.7421 52.1791 15 52.3694C15.71 52.4394 16.43 52.4594 17.14 52.4994V47.2194C14.64 46.8494 12.14 46.5794 9.75 46.1194C7.24206 45.6571 4.85393 44.691 2.73 43.2794ZM52.79 52.4694H53.1C56.0829 52.3857 59.0403 51.8945 61.89 51.0094C63.4766 50.5726 64.9502 49.7983 66.21 48.7394C66.7068 48.3402 67.0582 47.7884 67.21 47.1694C67.2857 45.8805 67.2857 44.5883 67.21 43.2994C62.75 46.0794 57.83 46.7694 52.77 47.0294L52.79 52.4694ZM52.79 44.2994C56.1186 44.2714 59.4197 43.6936 62.56 42.5894C63.7729 42.0966 64.9268 41.4693 66 40.7194C66.5936 40.3193 67.0121 39.7077 67.17 39.0094C67.2808 37.7057 67.3008 36.3959 67.23 35.0894C62.76 37.8794 57.83 38.5594 52.78 38.8194L52.79 44.2994Z" fill="#B12237"/>
<path d="M36.35 53.8594C36.354 54.1297 36.2773 54.3949 36.1299 54.6214C35.9824 54.8479 35.7709 55.0253 35.5221 55.131C35.2734 55.2368 34.9988 55.266 34.7334 55.215C34.468 55.1639 34.2239 55.035 34.0321 54.8446C33.8403 54.6543 33.7095 54.411 33.6565 54.146C33.6036 53.881 33.6307 53.6062 33.7346 53.3567C33.8385 53.1072 34.0143 52.8943 34.2397 52.7452C34.4651 52.5961 34.7298 52.5175 35 52.5194C35.3547 52.5245 35.6937 52.667 35.9455 52.917C36.1972 53.1669 36.3423 53.5047 36.35 53.8594Z" fill="#B12237"/>
<mask id="mask0_361_12310" style="mask-type:alpha" maskUnits="userSpaceOnUse" x="0" y="6" width="71" height="58">
<path d="M0 47.7294V13.5594C0.282657 12.5567 0.789659 11.6314 1.48265 10.8535C2.17564 10.0757 3.03646 9.46558 4 9.06944C5.60654 8.28531 7.27984 7.64611 9 7.15944C13.6045 5.96552 18.3991 5.69028 23.11 6.34944C27.42 6.90944 31.63 7.85944 35 11.0094C36.5258 9.52763 38.3895 8.43962 40.43 7.83944C47.1909 5.66836 54.4307 5.47063 61.3 7.26944C63.5959 7.7732 65.7575 8.76197 67.64 10.1694C68.3913 10.7153 68.9986 11.4356 69.4097 12.2683C69.8208 13.101 70.0234 14.0211 70 14.9494C70 25.5194 70 36.0794 70 46.6494C70.0257 47.3568 69.8988 48.0615 69.6279 48.7155C69.357 49.3695 68.9484 49.9575 68.43 50.4394C67.6892 51.1219 66.8741 51.719 66 52.2194C63.3388 53.6263 60.4334 54.5121 57.44 54.8294C55.89 55.0394 54.32 55.1494 52.75 55.3094C52.6729 56.1757 52.3997 57.0131 51.9509 57.7581C51.5022 58.5032 50.8897 59.1363 50.16 59.6094C48.6205 60.7479 46.8801 61.5859 45.03 62.0794C39.4601 63.6443 33.6029 63.8942 27.92 62.8094C25.22 62.4129 22.6319 61.4594 20.32 60.0094C19.4561 59.5337 18.7202 58.8559 18.1751 58.034C17.63 57.2121 17.292 56.2704 17.19 55.2894L16.5 55.2294C12.9103 55.1434 9.36076 54.4537 6 53.1894C3.36 52.1194 0.88 50.7894 0 47.7294ZM50 51.7294C49.88 51.7294 49.83 51.7294 49.8 51.7294C47.0878 53.3768 44.0584 54.4331 40.91 54.8294C40.7196 54.8912 40.5183 54.912 40.3193 54.8904C40.1202 54.8689 39.928 54.8056 39.7552 54.7045C39.5824 54.6035 39.4329 54.4671 39.3166 54.3042C39.2002 54.1413 39.1196 53.9557 39.08 53.7594C38.93 52.9194 39.5 52.3194 40.5 52.1194C41.77 51.8694 43.05 51.6194 44.29 51.2594C46.0355 50.8425 47.6525 50.0048 49 48.8194C49.4563 48.4455 49.7849 47.9387 49.94 47.3694C50.07 46.0794 49.94 44.7694 49.94 43.3694C45.34 46.3194 40.24 47.0094 35 47.0094C29.76 47.0094 24.62 46.2894 20 43.3794C20 44.3794 20.07 45.3794 20 46.2494C19.9352 46.8385 20.0401 47.4339 20.3023 47.9654C20.5645 48.4969 20.9731 48.9424 21.48 49.2494C21.9013 49.5599 22.346 49.8374 22.81 50.0794C24.9544 51.137 27.2587 51.833 29.63 52.1394C29.8266 52.145 30.0197 52.1926 30.1965 52.279C30.3732 52.3653 30.5294 52.4884 30.6546 52.6401C30.7799 52.7917 30.8713 52.9684 30.9227 53.1582C30.9741 53.3481 30.9843 53.5467 30.9527 53.7408C30.921 53.935 30.8483 54.1201 30.7393 54.2838C30.6302 54.4475 30.4875 54.586 30.3206 54.69C30.1537 54.7941 29.9664 54.8612 29.7714 54.887C29.5765 54.9128 29.3782 54.8965 29.19 54.8394C26.0039 54.4568 22.9359 53.4 20.19 51.7394C20.19 51.7394 20.07 51.7394 19.97 51.7394C19.97 52.7394 20.02 53.7394 19.97 54.7394C19.9203 55.2071 20.0004 55.6794 20.2015 56.1045C20.4026 56.5297 20.7169 56.8912 21.11 57.1494C22.1161 57.8513 23.1877 58.4541 24.31 58.9494C27.0727 60.018 29.9988 60.6032 32.96 60.6794C36.9591 60.9434 40.9727 60.4688 44.8 59.2794C46.2921 58.8503 47.683 58.126 48.89 57.1494C49.2076 56.929 49.4721 56.6404 49.6641 56.3048C49.8561 55.9692 49.9709 55.595 50 55.2094C50 54.0094 50 52.8894 50 51.6794V51.7294ZM17.89 19.7294C20.9617 19.7516 24.0235 19.3785 27 18.6194C28.9573 18.1831 30.8029 17.3454 32.42 16.1594C34 14.8794 34 13.5494 32.37 12.3394C31.4069 11.6171 30.3464 11.0346 29.22 10.6094C22.4131 8.25775 15.0353 8.12819 8.15 10.2394C6.60762 10.6566 5.16543 11.3811 3.91 12.3694C2.37 13.6094 2.35 14.9094 3.91 16.1194C4.6379 16.6707 5.42634 17.137 6.26 17.5094C9.95624 19.0186 13.9179 19.7701 17.91 19.7194L17.89 19.7294ZM51.51 19.7294C54.5679 19.7519 57.6161 19.3822 60.58 18.6294C62.4932 18.1955 64.3014 17.3866 65.9 16.2494C67.63 14.9194 67.68 13.5594 65.9 12.2994C64.9301 11.5841 63.8625 11.0116 62.73 10.5994C55.9674 8.26916 48.6407 8.13963 41.8 10.2294C40.2564 10.6414 38.8112 11.3589 37.55 12.3394C36 13.6194 36 14.9194 37.61 16.1594C38.3186 16.6939 39.083 17.1499 39.89 17.5194C43.5852 19.0191 47.5423 19.7671 51.53 19.7194L51.51 19.7294ZM34.81 44.3294C38.2378 44.3736 41.6507 43.8706 44.92 42.8394C46.4302 42.3951 47.8304 41.6388 49.03 40.6194C50.32 39.4294 50.39 38.2394 49.03 37.1494C48.0214 36.3321 46.904 35.6589 45.71 35.1494C42.9505 34.0683 40.0229 33.4793 37.06 33.4094C32.9832 33.1327 28.8909 33.6315 25 34.8794C23.4864 35.3162 22.0892 36.0848 20.91 37.1294C19.67 38.2994 19.64 39.4394 20.91 40.5594C21.6303 41.1852 22.4348 41.707 23.3 42.1094C26.9452 43.6485 30.874 44.4016 34.83 44.3194L34.81 44.3294ZM33.61 18.7394C28.79 21.6594 23.55 22.4294 18.17 22.4194C12.79 22.4094 7.53 21.6494 2.73 18.7394C2.73 19.8094 2.79 20.8094 2.73 21.7994C2.69578 22.3018 2.79527 22.8043 3.01836 23.2557C3.24144 23.7072 3.58015 24.0914 4 24.3694C5.32971 25.3704 6.84095 26.1039 8.45 26.5294C14.4965 28.2864 20.9049 28.3797 27 26.7994C28.9489 26.4113 30.7785 25.5684 32.34 24.3394C32.9192 23.91 33.3353 23.2964 33.52 22.5994C33.6458 21.3168 33.6759 20.0266 33.61 18.7394ZM36.36 18.7394C36.36 19.8194 36.36 20.8194 36.36 21.8194C36.3245 22.3206 36.4234 22.8221 36.6467 23.2722C36.87 23.7223 37.2095 24.1045 37.63 24.3794C38.9621 25.3765 40.4725 26.1097 42.08 26.5394C48.1468 28.2996 54.5763 28.3895 60.69 26.7994C62.623 26.4077 64.4399 25.5762 66 24.3694C66.578 23.9413 67.0024 23.3381 67.21 22.6494C67.3055 21.3512 67.3055 20.0477 67.21 18.7494C62.43 21.6494 57.21 22.4194 51.83 22.4194C46.45 22.4194 41.19 21.6594 36.36 18.7394ZM2.73 26.9394C2.73 28.0194 2.73 29.0394 2.73 30.0494C2.6847 30.5277 2.77174 31.0091 2.98161 31.4412C3.19148 31.8733 3.51611 32.2394 3.92 32.4994C4.72411 33.0873 5.58508 33.5932 6.49 34.0094C9.96733 35.3838 13.6709 36.0961 17.41 36.1094C17.6293 36.1367 17.852 36.1057 18.0556 36.0197C18.2592 35.9337 18.4366 35.7957 18.57 35.6194C18.9896 35.133 19.4702 34.7028 20 34.3394C22.3342 32.7732 24.9889 31.7482 27.77 31.3394C29.68 30.9994 31.63 30.8094 33.59 30.5494V27.0094C28.82 29.8994 23.59 30.6694 18.21 30.6594C12.83 30.6494 7.54 29.8494 2.73 26.9394ZM67.24 26.9394C62.43 29.8594 57.17 30.6294 51.78 30.6194C46.39 30.6094 41.14 29.8394 36.39 27.0094V30.6794L36.82 30.7294C39.8802 30.8459 42.9092 31.3878 45.82 32.3394C48.0446 32.9674 50.0498 34.2038 51.61 35.9094C51.7656 36.0605 51.9731 36.1464 52.19 36.1494C55.5204 36.1325 58.8286 35.6064 62 34.5894C63.5635 34.1645 65.0077 33.3843 66.22 32.3094C66.7077 31.8502 67.0369 31.2479 67.16 30.5894C67.2623 29.3756 67.289 28.1566 67.24 26.9394ZM2.73 35.0894C2.73 36.1794 2.79 37.1494 2.73 38.0894C2.6738 38.6256 2.7708 39.1667 3.00976 39.6499C3.24872 40.1331 3.61982 40.5387 4.08 40.8194C4.54262 41.1494 5.02338 41.4532 5.52 41.7294C8.07591 42.9774 10.8375 43.75 13.67 44.0094C14.83 44.1494 16 44.2094 17.19 44.3094V39.0094C14.67 38.6394 12.19 38.3594 9.74 37.8894C7.23806 37.4396 4.85333 36.4871 2.73 35.0894ZM2.73 43.2794C2.78565 44.2019 2.78565 45.1269 2.73 46.0494C2.64909 46.7111 2.77359 47.3816 3.08663 47.9702C3.39968 48.5587 3.88611 49.0367 4.48 49.3394C4.84 49.5694 5.21 49.7994 5.59 49.9994C8.54942 51.375 11.7421 52.1791 15 52.3694C15.71 52.4394 16.43 52.4594 17.14 52.4994V47.2194C14.64 46.8494 12.14 46.5794 9.75 46.1194C7.24206 45.6571 4.85393 44.691 2.73 43.2794ZM52.79 52.4694H53.1C56.0829 52.3857 59.0403 51.8945 61.89 51.0094C63.4766 50.5726 64.9502 49.7983 66.21 48.7394C66.7068 48.3402 67.0582 47.7884 67.21 47.1694C67.2857 45.8805 67.2857 44.5883 67.21 43.2994C62.75 46.0794 57.83 46.7694 52.77 47.0294L52.79 52.4694ZM52.79 44.2994C56.1186 44.2714 59.4197 43.6936 62.56 42.5894C63.7729 42.0966 64.9268 41.4693 66 40.7194C66.5936 40.3193 67.0121 39.7077 67.17 39.0094C67.2808 37.7057 67.3008 36.3959 67.23 35.0894C62.76 37.8794 57.83 38.5594 52.78 38.8194L52.79 44.2994Z" fill="#B12237"/>
<path d="M36.35 53.8594C36.354 54.1297 36.2773 54.3949 36.1299 54.6214C35.9824 54.8479 35.7709 55.0253 35.5221 55.131C35.2734 55.2368 34.9988 55.266 34.7334 55.215C34.468 55.1639 34.2239 55.035 34.0321 54.8446C33.8403 54.6543 33.7095 54.411 33.6565 54.146C33.6036 53.881 33.6307 53.6062 33.7346 53.3567C33.8385 53.1072 34.0143 52.8943 34.2397 52.7452C34.4651 52.5961 34.7298 52.5175 35 52.5194C35.3547 52.5245 35.6937 52.667 35.9455 52.917C36.1972 53.1669 36.3423 53.5047 36.35 53.8594Z" fill="#B12237"/>
</mask>
<g mask="url(#mask0_361_12310)">
<path d="M17 58C17.0002 56.5 17.5 33.5 17 32C16.5 30.5 23.5 32 23.5 32L32 30.5H38L43.5 31.5C43.5 31.5 46.2998 29.5 50.4998 32.5C54.6998 35.5 52.4998 58 52.4998 58C52.4998 61 53 64.1 53 64.5C53 65 46.5 68.5 35.5 69C26.7 69.4 27.8333 67.1667 29.5 66C29.5 66 16.9998 59.5 17 58Z" fill="#231F20"/>
</g>
</g>
<defs>
<clipPath id="clip0_361_12310">
<rect width="70" height="70" fill="white"/>
</clipPath>
</defs>
</svg>
