<svg width="136" height="136" viewBox="0 0 136 136" fill="none" xmlns="http://www.w3.org/2000/svg">
<g clip-path="url(#clip0_198_4678)">
<path d="M67.9869 135.737C30.3794 135.706 -0.0928552 105.253 0.000212618 67.7181C0.0932804 30.4069 30.2715 0.547421 66.9618 0.0075571C105.469 -0.560579 136.728 30.9804 135.987 69.2178C135.278 105.805 105.182 135.789 67.9869 135.737ZM2.27565 67.749C2.18933 103.758 31.4099 133.252 67.5701 133.479C104.662 133.711 134.301 103.241 133.721 66.7945C133.157 31.3533 103.724 1.62311 66.7447 2.28818C31.3546 2.91824 2.3377 31.8784 2.27565 67.7517V67.749Z" fill="white"/>
<path d="M130.709 67.8662C130.709 102.428 102.61 130.49 67.9898 130.489C33.4954 130.488 5.26074 102.552 5.26074 67.8528C5.27288 33.047 33.8285 4.74252 68.9812 5.27296C103.292 5.78859 130.774 33.8696 130.709 67.8662ZM67.9682 124.423C99.475 124.487 125.275 98.4863 124.649 66.7097C124.05 36.3077 98.8141 10.7376 66.846 11.334C36.0689 11.9088 10.602 37.3942 11.3533 69.2744C12.0763 99.9336 37.3354 124.438 67.9682 124.423Z" fill="white"/>
<path d="M55.2085 40.8488C54.9158 40.834 54.7 40.8165 54.4842 40.8151C52.8885 40.8151 51.2915 40.8313 49.6959 40.8084C48.0571 40.7855 46.7474 39.5523 46.7285 37.9273C46.6953 34.1361 46.6953 30.3441 46.7285 26.5511C46.7447 25.0002 47.9978 23.8262 49.6042 23.7078C49.8052 23.6929 50.0088 23.7078 50.2112 23.7078H86.2999C88.6738 23.7078 89.8311 24.8561 89.8297 27.2081C89.8297 30.6636 89.8297 34.1191 89.8297 37.5746C89.8297 39.5779 88.6063 40.8124 86.6101 40.8218C84.8796 40.8299 83.1504 40.8218 81.3498 40.8218C81.4145 41.0292 81.4523 41.1921 81.517 41.3429C87.4356 55.2285 93.3582 69.1165 99.2849 83.0066C101.385 87.9314 103.485 92.8561 105.586 97.7809C106.531 100.009 105.121 102.17 102.703 102.178C98.7696 102.189 94.8351 102.178 90.902 102.178C89.4183 102.178 88.3811 101.526 87.7998 100.146C85.6147 95.0129 83.4121 89.8862 81.2378 84.7474C81.0503 84.3018 80.8332 84.1564 80.3476 84.1577C72.2997 84.173 64.2518 84.173 56.2039 84.1577C55.7264 84.1577 55.4958 84.3004 55.3096 84.7407C53.1354 89.8795 50.9341 95.0075 48.7571 100.145C48.1691 101.53 47.1278 102.177 45.6549 102.178C41.7218 102.178 37.7882 102.178 33.8541 102.178C31.4384 102.171 30.0154 100.01 30.9623 97.7862C38.048 81.1514 45.1383 64.5175 52.233 47.8845C53.1376 45.7618 54.0458 43.6401 54.9576 41.5192C55.0412 41.3213 55.1087 41.1153 55.2085 40.8488ZM52.7806 34.672C52.8432 34.7004 52.9088 34.7216 52.9762 34.7352C55.1559 34.7406 57.336 34.7447 59.5166 34.7474C62.1562 34.7474 63.5482 36.861 62.5163 39.2992C62.0362 40.4337 61.5528 41.5672 61.0664 42.6999L39.3276 93.6396C38.9877 94.4353 38.6532 95.2364 38.2863 96.1155C39.9993 96.1155 41.6125 96.0993 43.2257 96.1263C43.6951 96.1343 43.9324 95.9916 44.1226 95.5487C46.2645 90.4705 48.4388 85.403 50.5969 80.3356C51.2713 78.7483 52.1993 78.125 53.9244 78.125C63.5001 78.125 73.0766 78.125 82.654 78.125C84.247 78.125 85.3193 78.7981 85.9451 80.2912C87.9427 85.057 90.0293 89.7973 91.9892 94.5874C92.4734 95.7749 93.0439 96.2905 94.3617 96.1451C95.6161 96.0105 96.8961 96.1155 98.2449 96.1155C98.1276 95.8058 98.0574 95.5985 97.9752 95.3979C97.0193 93.1541 96.0612 90.9076 95.1009 88.6584C88.061 72.1716 81.0242 55.6845 73.9907 39.1969C73.006 36.888 74.4155 34.7541 76.9243 34.7541C78.9475 34.7474 80.9707 34.7541 82.9939 34.7541H83.7048V29.8226H52.7833L52.7806 34.672Z" fill="white"/>
<path d="M65.8504 46.2002C69.8685 49.1136 71.3738 53.0353 71.2052 57.7527C72.3948 56.8292 72.6349 54.9821 71.8513 52.6247C72.6997 52.8738 73.3228 53.384 73.8354 53.9602C76.5775 57.0419 78.3539 60.514 78.0855 64.7871C77.8373 68.7372 74.9427 72.3425 71.1364 73.4034C71.0911 73.4071 71.0456 73.4034 71.0015 73.3926C71.2929 72.8259 71.657 72.2873 71.8567 71.6936C72.5661 69.5867 72.1264 67.6547 70.5766 66.1092C68.9581 64.5017 68.4185 62.6586 68.8057 60.4763C68.8165 60.4113 68.8232 60.3456 68.8259 60.2797C68.8259 60.2609 68.8097 60.2393 68.7544 60.1168C66.1229 62.0784 65.6926 64.9029 65.5361 67.9469C64.6837 67.0045 64.4126 65.949 64.2696 64.8369C62.0994 66.2344 62.4892 70.4806 65.1369 73.4532C63.5372 72.9443 62.2019 72.1985 61.0716 71.1201C56.9577 67.1983 56.9658 60.8963 61.0446 56.6569C62.1162 55.5722 63.1306 54.4326 64.0835 53.2427C65.4862 51.4413 66.1134 49.3734 65.8369 47.0712C65.8153 46.8935 65.8099 46.7131 65.8019 46.5327C65.8005 46.491 65.814 46.4466 65.8504 46.2002Z" fill="white"/>
</g>
<defs>
<clipPath id="clip0_198_4678">
<rect width="136" height="136" fill="white"/>
</clipPath>
</defs>
</svg>
