<svg width="24" height="24" viewBox="0 0 24 24" fill="none" xmlns="http://www.w3.org/2000/svg">
<path d="M23.5201 14.1152L9.88477 0.479915C9.57652 0.170591 9.15209 0.000153513 8.72776 1.03471e-07C8.30302 -0.000153306 7.87833 0.170284 7.57028 0.479404L0.479915 7.56977C0.170438 7.87818 0 8.28942 0 8.7273C0 9.16518 0.170438 9.57637 0.479404 9.88426L14.1152 23.5201C14.4236 23.8296 14.8349 24 15.2727 24C15.7105 24 16.1218 23.8296 16.4297 23.5206L23.52 16.4302C23.8295 16.1218 23.9999 15.7106 23.9999 15.2728C23.9999 14.8349 23.8296 14.4236 23.5201 14.1152ZM1.25018 9.1124C1.1474 9.01013 1.09089 8.87324 1.09089 8.7273C1.09089 8.58135 1.14735 8.44446 1.25069 8.34163L8.34214 1.25018C8.44441 1.1474 8.5813 1.09089 8.72724 1.09089C8.87319 1.09089 9.01008 1.14735 9.11292 1.25069L21 13.1378L13.1378 21L1.25018 9.1124ZM22.7493 15.6584L15.6579 22.7498C15.4533 22.9554 15.0927 22.9559 14.8871 22.7493L13.9091 21.7713L21.7713 13.9091L22.7493 14.8871L22.7498 14.8876C22.8526 14.9899 22.9091 15.1268 22.9091 15.2727C22.9091 15.4186 22.8527 15.5556 22.7493 15.6584Z" fill="white"/>
<path d="M18.7053 17.6144L17.6144 18.7053C17.4013 18.9183 17.4013 19.2635 17.6144 19.4765C17.7209 19.5831 17.8605 19.6363 18.0001 19.6363C18.1396 19.6363 18.2792 19.5831 18.3857 19.4765L19.4766 18.3857C19.6897 18.1726 19.6897 17.8274 19.4766 17.6144C19.2635 17.4013 18.9183 17.4013 18.7053 17.6144Z" fill="white"/>
<path d="M5.61448 4.52342L4.52358 5.61431C4.3105 5.8274 4.3105 6.17257 4.52358 6.3856C4.6301 6.49217 4.76965 6.54545 4.9092 6.54545C5.04875 6.54545 5.18831 6.49217 5.29487 6.38565L6.38577 5.29476C6.59885 5.08167 6.59885 4.7365 6.38577 4.52347C6.17268 4.31038 5.82751 4.31038 5.61448 4.52342Z" fill="white"/>
<path d="M8.72736 2.7273C9.02861 2.7273 9.27283 2.48308 9.27283 2.18182C9.27283 1.88057 9.02861 1.63635 8.72736 1.63635C8.4261 1.63635 8.18188 1.88057 8.18188 2.18182C8.18188 2.48308 8.4261 2.7273 8.72736 2.7273Z" fill="white"/>
<path d="M7.46953 20.6751C6.56717 20.224 5.75595 19.6412 5.05758 18.9424C4.3587 18.2441 3.77595 17.4328 3.32482 16.5304C3.19008 16.2604 2.86193 16.1517 2.59296 16.2865C2.32342 16.4212 2.21424 16.7488 2.34898 17.0184C2.85288 18.0257 3.50436 18.9323 4.28629 19.7137C5.0677 20.4956 5.9743 21.1471 6.98158 21.651C7.05987 21.6898 7.14297 21.7085 7.22499 21.7085C7.42529 21.7085 7.61757 21.5982 7.71345 21.407C7.84824 21.1375 7.73907 20.8099 7.46953 20.6751Z" fill="white"/>
<path d="M6.49444 22.6252C5.38064 22.0686 4.37816 21.3484 3.51467 20.4855C2.65174 19.622 1.93159 18.6195 1.37492 17.5057C1.23961 17.2367 0.911471 17.127 0.643005 17.2617C0.373465 17.3965 0.264289 17.7241 0.399033 17.9936C1.00843 19.2124 1.79731 20.3102 2.74333 21.2568C3.68986 22.2028 4.78771 22.9917 6.00645 23.6011C6.08474 23.64 6.16783 23.6586 6.24986 23.6586C6.45016 23.6586 6.64243 23.5484 6.73831 23.3571C6.87316 23.0876 6.76398 22.76 6.49444 22.6252Z" fill="white"/>
<path d="M17.5056 1.37484C18.6194 1.93146 19.6218 2.65166 20.4853 3.51459C21.3483 4.37803 22.0684 5.38056 22.6251 6.49436C22.721 6.68561 22.9132 6.79586 23.1135 6.79586C23.1956 6.79586 23.2787 6.77719 23.3569 6.73833C23.6265 6.60359 23.7357 6.27595 23.6009 6.00641C22.9915 4.78768 22.2026 3.68983 21.2566 2.74325C20.3101 1.79722 19.2122 1.00834 17.9935 0.398951C17.7239 0.265229 17.3963 0.373383 17.2615 0.642922C17.1268 0.912514 17.2361 1.24009 17.5056 1.37484Z" fill="white"/>
<path d="M16.5304 3.32498C17.4328 3.77616 18.244 4.35891 18.9424 5.05774C19.6413 5.75606 20.224 6.56733 20.6752 7.46969C20.771 7.66094 20.9633 7.77119 21.1636 7.77119C21.2456 7.77119 21.3287 7.75252 21.407 7.71366C21.6766 7.57891 21.7857 7.25128 21.651 6.98174C21.1471 5.97446 20.4956 5.06786 19.7137 4.28645C18.9323 3.50447 18.0257 2.85304 17.0184 2.34914C16.7488 2.21598 16.4213 2.32358 16.2865 2.59312C16.1517 2.8626 16.261 3.19018 16.5304 3.32498Z" fill="white"/>
</svg>
