<svg width="70" height="70" viewBox="0 0 70 70" fill="none" xmlns="http://www.w3.org/2000/svg">
<g clip-path="url(#clip0_198_5744)">
<path d="M37.9934 0C38.2334 0.209964 38.4833 0.409929 38.7033 0.629891L50.7712 12.6978C50.9791 12.8869 51.1431 13.119 51.2519 13.3781C51.3607 13.6371 51.4116 13.9168 51.4011 14.1975C51.4011 16.5871 51.4011 18.9867 51.4011 21.3763C51.3696 21.579 51.4054 21.7865 51.5028 21.967C51.6003 22.1476 51.7542 22.2912 51.941 22.3761C54.1624 23.6378 56.0868 25.362 57.5841 27.432C59.0814 29.5019 60.1165 31.8694 60.6195 34.3741C60.7263 34.6988 60.7263 35.0492 60.6195 35.3739C60.4099 35.7024 60.0856 35.9411 59.7097 36.0438C59.2098 36.1537 58.8498 35.8238 58.7098 35.3139C58.5699 34.804 58.4399 34.1241 58.2699 33.5342C57.135 29.7116 54.6133 26.4506 51.1991 24.3905C47.785 22.3304 43.7245 21.6196 39.8135 22.3975C35.9026 23.1754 32.4231 25.3859 30.0572 28.5957C27.6913 31.8056 26.6094 35.7833 27.0237 39.7493C27.4379 43.7153 29.3184 47.3836 32.2966 50.0352C35.2748 52.6868 39.1359 54.1306 43.1232 54.0835C47.1105 54.0364 50.9364 52.5019 53.8512 49.7807C56.7659 47.0595 58.5593 43.3478 58.8798 39.3732C58.9398 38.5633 59.3297 38.1234 59.9496 38.1434C60.5695 38.1634 60.9495 38.6733 60.9495 39.5132C60.7223 42.4418 59.7818 45.2703 58.2099 47.7517L60.7095 50.2613C61.5094 49.9314 61.7093 49.9714 62.4592 50.7412C64.4588 52.7409 66.4585 54.7405 68.4582 56.7402C69.1417 57.3707 69.6219 58.1907 69.8373 59.0953C70.0528 60 69.9938 60.9483 69.6679 61.8193C69.4017 62.6955 68.8779 63.4712 68.1645 64.0455C67.4512 64.6197 66.5815 64.9658 65.6686 65.0387C64.9669 65.1575 64.247 65.1069 63.5688 64.8913C62.8905 64.6757 62.2736 64.3012 61.7693 63.799C59.5797 61.6593 57.4201 59.4597 55.2404 57.3001C55.0187 57.1068 54.8811 56.8347 54.8568 56.5416C54.8325 56.2485 54.9235 55.9574 55.1105 55.7304L52.6309 53.2808C52.1946 53.4154 51.823 53.7058 51.587 54.0966C51.351 54.4875 51.267 54.9516 51.3511 55.4004C51.4311 59.1398 51.3511 62.8691 51.3511 66.6085C51.394 67.0612 51.3367 67.5178 51.1833 67.9459C51.0299 68.374 50.7842 68.7632 50.4636 69.0857C50.143 69.4082 49.7553 69.6562 49.3281 69.8121C48.9009 69.968 48.4447 70.0281 47.9917 69.9879C33.2842 69.9879 18.5768 69.9879 3.86933 69.9879C1.91967 69.9879 0.629891 69.338 0 67.5083V15.4373C0.359938 15.0174 0.739872 14.6175 1.37976 14.8674C2.01965 15.1174 2.05964 15.6473 2.05964 16.2272C2.05964 32.891 2.05964 49.5814 2.05964 66.2985C2.05964 67.6683 2.3196 67.9182 3.69936 67.9182H47.7517C49.0815 67.9182 49.3315 67.6583 49.3315 66.3185V54.9905C48.1917 55.2604 47.1018 55.5804 45.982 55.7703C44.9507 55.9404 43.9078 56.0307 42.8626 56.0403C35.4439 56.0403 28.0152 56.0403 20.5964 56.0403C20.4133 56.0504 20.2297 56.0504 20.0465 56.0403C19.8073 56.0191 19.5837 55.9124 19.4166 55.7398C19.2495 55.5672 19.1502 55.3403 19.1367 55.1005C19.1166 54.8737 19.1795 54.6473 19.3138 54.4634C19.448 54.2795 19.6444 54.1506 19.8666 54.1006C20.1085 54.0419 20.3577 54.0183 20.6064 54.0307H34.2141C33.0043 53.1008 31.8145 52.171 30.6047 51.2711C30.3875 51.1537 30.141 51.1016 29.8948 51.1212H20.8064C20.6064 51.1212 20.3965 51.1212 20.1965 51.1212C20.0602 51.1293 19.9238 51.1095 19.7954 51.063C19.6671 51.0164 19.5497 50.9441 19.4504 50.8504C19.3511 50.7567 19.2721 50.6437 19.2181 50.5183C19.1642 50.3929 19.1364 50.2578 19.1367 50.1213C19.1357 49.9793 19.1649 49.8387 19.2225 49.7088C19.2801 49.579 19.3646 49.4629 19.4706 49.3683C19.5765 49.2737 19.7014 49.2028 19.8369 49.1602C19.9725 49.1176 20.1155 49.1045 20.2565 49.1215H28.5551L27.6952 47.8417C26.538 46.0596 25.7273 44.0753 25.3056 41.9927C25.1956 41.4928 24.9857 41.3928 24.5258 41.4028C23.226 41.4028 21.9262 41.4028 20.6364 41.4028C20.4534 41.418 20.2695 41.418 20.0865 41.4028C19.9543 41.3965 19.8246 41.3639 19.7051 41.307C19.5855 41.2501 19.4784 41.1701 19.3901 41.0715C19.3017 40.9729 19.2338 40.8577 19.1903 40.7327C19.1468 40.6076 19.1286 40.4752 19.1367 40.343C19.1367 40.0778 19.242 39.8235 19.4295 39.636C19.617 39.4485 19.8713 39.3432 20.1365 39.3432C21.4263 39.3432 22.7261 39.3432 24.0258 39.3432H24.8057V36.3437H20.6764C19.6266 36.3437 19.1367 36.0138 19.1267 35.3439C19.1167 34.674 19.6266 34.3441 20.6564 34.3441H24.9957L25.1956 34.2841C25.7784 31.6357 26.9354 29.1476 28.5851 26.9953H20.6864C20.4365 26.9953 20.1165 27.0653 19.9465 26.9953C19.7766 26.9253 19.2167 26.4254 19.1867 26.0955C19.2514 25.6953 19.4703 25.3363 19.7966 25.0957C19.9865 24.9357 20.3665 24.9757 20.6564 24.9757C23.7059 24.9757 26.7554 24.9757 29.8148 24.9757C30.205 24.9456 30.579 24.8071 30.8947 24.5757C32.0045 23.7859 33.0743 22.946 34.2441 22.0762H20.6164C20.3677 22.0885 20.1185 22.065 19.8766 22.0062C19.6376 21.9578 19.4273 21.8175 19.2908 21.6156C19.1543 21.4136 19.1025 21.1661 19.1467 20.9264C19.1602 20.6974 19.252 20.4801 19.4068 20.3108C19.5615 20.1415 19.7697 20.0305 19.9965 19.9965H43.1925C45.1307 20.0174 47.0524 20.3552 48.8815 20.9964C49.0115 21.0464 49.1415 21.0664 49.3015 21.1163V14.7674H39.9931C39.5415 14.809 39.0864 14.7506 38.6599 14.5964C38.2335 14.4423 37.8462 14.1962 37.5256 13.8755C37.2049 13.5549 36.9588 13.1676 36.8047 12.7412C36.6505 12.3147 36.5921 11.8596 36.6337 11.408V2.04965H3.59938C2.3196 2.04965 2.04965 2.3296 2.04965 3.61937C2.04965 6.19893 2.04965 8.76848 2.04965 11.348C2.04965 11.9379 1.95966 12.4678 1.33977 12.6778C1.07188 12.7531 0.785488 12.725 0.537347 12.599C0.289206 12.4731 0.0974222 12.2586 0 11.9979L0 2.45957C0.170425 1.87603 0.48509 1.34482 0.914954 0.914954C1.34482 0.48509 1.87603 0.170425 2.45957 0L37.9934 0ZM57.4401 56.4702C59.3197 58.3499 61.2094 60.2596 63.1191 62.1392C63.3764 62.4018 63.683 62.6112 64.0212 62.7553C64.3595 62.8994 64.7228 62.9755 65.0905 62.9792C65.4581 62.983 65.8229 62.9142 66.164 62.777C66.5051 62.6397 66.8158 62.4366 67.0784 62.1792C67.341 61.9219 67.5503 61.6153 67.6945 61.2771C67.8386 60.9388 67.9147 60.5755 67.9184 60.2079C67.9221 59.8402 67.8534 59.4754 67.7161 59.1343C67.5788 58.7932 67.3757 58.4825 67.1184 58.2199C66.0086 57.0501 64.8388 55.9303 63.699 54.7805L61.4494 52.4809L57.4401 56.4702ZM38.6833 3.71936C38.6833 3.82934 38.6833 3.97931 38.6833 4.11929C38.6833 6.55887 38.6833 8.98844 38.6833 11.428C38.6833 12.4278 39.0332 12.7178 40.0131 12.7178H47.2418C47.4118 12.7178 47.5718 12.7178 47.6418 12.7178L38.6833 3.71936ZM58.9898 51.791L56.8902 49.7214L54.6705 51.931L56.7502 53.9907L58.9898 51.791Z" fill="white"/>
<path d="M16.1185 23.4464C16.1185 24.1463 16.1185 24.8562 16.1185 25.5561C16.1352 25.8766 16.0853 26.1971 15.9718 26.4974C15.8583 26.7976 15.6837 27.071 15.4591 27.3003C15.2345 27.5296 14.9648 27.7098 14.6669 27.8295C14.3691 27.9492 14.0497 28.0058 13.7289 27.9956C12.2691 27.9956 10.8194 27.9956 9.36963 27.9956C9.06292 28.0106 8.75639 27.9629 8.46875 27.8554C8.1811 27.7479 7.91838 27.5829 7.69662 27.3705C7.47487 27.1581 7.29873 26.9028 7.17896 26.62C7.05919 26.3373 6.99831 26.0331 7.00004 25.726C7.00004 24.2063 7.00004 22.6766 7.00004 21.1568C6.99967 20.8506 7.06156 20.5475 7.18193 20.2659C7.3023 19.9844 7.47864 19.7302 7.70026 19.5189C7.92187 19.3075 8.18413 19.1435 8.4711 19.0366C8.75807 18.9297 9.06377 18.8823 9.36963 18.8972C10.8494 18.8972 12.3691 18.8972 13.7989 18.8972C14.1081 18.8943 14.4146 18.9541 14.7001 19.0729C14.9856 19.1917 15.244 19.3672 15.4599 19.5886C15.6757 19.81 15.8444 20.0729 15.9559 20.3613C16.0674 20.6498 16.1193 20.9578 16.1085 21.2668C16.1285 21.9967 16.1185 22.7165 16.1185 23.4464ZM11.5492 25.996C12.1791 25.996 12.819 25.996 13.4489 25.996C13.8788 25.996 14.0788 25.876 14.0688 25.4161C14.0688 24.1163 14.0688 22.8265 14.0688 21.5368C14.0688 21.1068 13.8888 20.9768 13.4989 20.9768C12.1991 20.9768 10.9094 20.9768 9.61958 20.9768C9.18966 20.9768 9.05968 21.1668 9.06968 21.5567C9.06968 22.8465 9.06968 24.1463 9.06968 25.4361C9.06968 25.846 9.22965 26.006 9.63958 25.996C10.2795 25.936 10.9094 25.996 11.5492 25.996Z" fill="white"/>
<path d="M11.6196 47.9913C12.3195 47.9913 13.0293 47.9913 13.7292 47.9913C14.0438 47.9802 14.3574 48.0338 14.6505 48.1488C14.9435 48.2638 15.2099 48.4378 15.4329 48.66C15.656 48.8821 15.8311 49.1477 15.9474 49.4403C16.0636 49.7328 16.1186 50.0462 16.1088 50.3609C16.1088 51.8106 16.1088 53.2704 16.1088 54.7201C16.1196 55.0291 16.0677 55.3372 15.9563 55.6256C15.8448 55.914 15.676 56.1769 15.4602 56.3983C15.2444 56.6197 14.9859 56.7952 14.7005 56.914C14.415 57.0328 14.1084 57.0926 13.7992 57.0897C12.2995 57.0897 10.7997 57.0897 9.29998 57.0897C8.99795 57.0992 8.69713 57.0473 8.4158 56.937C8.13447 56.8267 7.87849 56.6603 7.66342 56.4481C7.44835 56.2358 7.27867 55.982 7.16469 55.7022C7.05071 55.4223 6.99481 55.1222 7.00038 54.8201C7.00038 53.3004 7.00038 51.8206 7.00038 50.2509C7.00243 49.9402 7.06799 49.6331 7.19302 49.3487C7.31805 49.0642 7.49992 48.8083 7.72746 48.5967C7.95499 48.3851 8.22339 48.2222 8.51616 48.1181C8.80893 48.014 9.1199 47.9708 9.42996 47.9913C10.1598 47.9913 10.8897 47.9913 11.6196 47.9913ZM9.07002 52.5305C9.07002 53.1904 9.07002 53.8503 9.07002 54.5301C9.07002 54.9001 9.21 55.06 9.58993 55.06H13.5392C13.9092 55.06 14.0692 54.9101 14.0692 54.5301C14.0692 53.2104 14.0692 51.8906 14.0692 50.5308C14.0692 50.1509 13.9192 50.0009 13.5392 50.0009H9.58993C9.21 50.0009 9.06002 50.1609 9.07002 50.5308C9.08002 51.2107 9.07002 51.8706 9.07002 52.5305Z" fill="white"/>
<path d="M11.5592 33.3138C12.3291 33.3138 13.109 33.3138 13.8788 33.3138C14.4684 33.3138 15.034 33.5473 15.4519 33.9633C15.8697 34.3792 16.1058 34.9438 16.1085 35.5334C16.1085 37.0631 16.1085 38.5828 16.1085 40.1126C16.1085 40.4105 16.0493 40.7055 15.9344 40.9805C15.8195 41.2554 15.6511 41.5047 15.439 41.714C15.2269 41.9233 14.9754 42.0884 14.699 42.1996C14.4225 42.3109 14.1268 42.3662 13.8289 42.3622C12.3491 42.3622 10.8694 42.3622 9.38962 42.3622C9.08482 42.3827 8.77905 42.3405 8.49113 42.2385C8.2032 42.1364 7.93921 41.9764 7.71539 41.7685C7.49156 41.5606 7.31263 41.3091 7.18961 41.0295C7.06659 40.7499 7.00207 40.4481 7.00003 40.1426C7.00003 38.6128 7.00003 37.0831 7.00003 35.5634C6.99838 35.2598 7.05844 34.9591 7.17659 34.6795C7.29474 34.3998 7.4685 34.1472 7.68732 33.9368C7.90613 33.7263 8.16544 33.5626 8.44948 33.4555C8.73352 33.3484 9.03637 33.3002 9.33963 33.3138C10.0695 33.3138 10.7994 33.3138 11.5292 33.3138H11.5592ZM11.5592 35.3734C10.8994 35.3734 10.2395 35.3734 9.55959 35.3734C9.18965 35.3734 9.00969 35.4834 9.01968 35.8733C9.01968 37.2064 9.01968 38.5395 9.01968 39.8726C9.01968 40.2526 9.17966 40.3825 9.54959 40.3825C10.8827 40.3825 12.2158 40.3825 13.5489 40.3825C13.9488 40.3825 14.0588 40.2126 14.0588 39.8426C14.0588 38.5429 14.0588 37.2531 14.0588 35.9533C14.0588 35.5234 13.8888 35.4034 13.4889 35.4134C12.859 35.3834 12.2291 35.3734 11.5892 35.3734H11.5592Z" fill="white"/>
<path d="M56.3186 37.9933C56.2978 40.7462 55.4363 43.4271 53.8495 45.6768C52.2628 47.9265 50.0265 49.6377 47.4401 50.5811C44.8133 51.5367 41.9528 51.6436 39.262 50.8866C36.5712 50.1296 34.1859 48.5469 32.4427 46.3618C31.8728 45.6519 31.8428 45.032 32.3627 44.6221C32.8826 44.2122 33.4525 44.3822 34.0424 45.072C37.1019 48.6414 40.9612 50.0712 45.5305 48.9514C47.6756 48.5065 49.6343 47.4185 51.1454 45.8323C52.6566 44.2461 53.6485 42.2371 53.989 40.0729C54.2843 38.5214 54.2513 36.9253 53.8921 35.3873C53.533 33.8494 52.8556 32.4037 51.9038 31.1434C50.9519 29.8832 49.7466 28.8363 48.3655 28.0702C46.9844 27.3041 45.4582 26.8358 43.8851 26.6955C42.312 26.5551 40.727 26.7459 39.2321 27.2554C37.7372 27.7649 36.3656 28.582 35.2057 29.6538C34.0458 30.7257 33.1233 32.0287 32.4976 33.4788C31.8719 34.9289 31.5569 36.494 31.5729 38.0733C31.5729 39.0731 31.9028 40.1329 32.0228 41.1627C32.1297 41.5469 32.1192 41.9543 31.9928 42.3325C31.888 42.4709 31.749 42.5796 31.5895 42.648C31.43 42.7164 31.2554 42.742 31.083 42.7224C30.8928 42.6517 30.7188 42.5436 30.5711 42.4045C30.4234 42.2654 30.3051 42.0981 30.2231 41.9126C29.4185 39.5471 29.3384 36.9952 29.9931 34.5839C30.7707 31.6144 32.5466 29.0031 35.0224 27.1885C37.4981 25.3739 40.523 24.4666 43.5888 24.619C46.6545 24.7715 49.5745 25.9744 51.858 28.0257C54.1415 30.077 55.6495 32.8517 56.1286 35.8836C56.2286 36.5735 56.2586 37.2834 56.3186 37.9933Z" fill="white"/>
<path d="M41.6436 36.2732C42.6934 35.2734 43.7332 34.3336 44.733 33.3437C45.0167 33.0043 45.3678 32.7275 45.7639 32.5306C46.1601 32.3337 46.5927 32.2211 47.0346 32.2C47.4765 32.1788 47.9179 32.2495 48.3311 32.4075C48.7442 32.5656 49.1201 32.8077 49.435 33.1184C49.7499 33.4291 49.9969 33.8017 50.1605 34.2128C50.324 34.6238 50.4006 35.0643 50.3853 35.5064C50.37 35.9485 50.2632 36.3826 50.0716 36.7813C49.88 37.1801 49.6078 37.5348 49.2722 37.823C47.6259 39.5227 45.9595 41.2157 44.2731 42.9021C43.9712 43.2739 43.5902 43.5738 43.1578 43.7797C42.7254 43.9856 42.2525 44.0925 41.7735 44.0925C41.2946 44.0925 40.8217 43.9856 40.3893 43.7797C39.9568 43.5738 39.5758 43.2739 39.274 42.9021L36.8944 40.5625C36.5358 40.2904 36.2389 39.9456 36.0232 39.5506C35.8074 39.1557 35.6777 38.7195 35.6426 38.2708C35.6074 37.8221 35.6676 37.3711 35.8192 36.9473C35.9708 36.5236 36.2104 36.1367 36.5221 35.8121C36.8339 35.4876 37.2109 35.2327 37.6282 35.0642C38.0455 34.8957 38.4938 34.8174 38.9435 34.8345C39.3933 34.8516 39.8343 34.9637 40.2376 35.1634C40.6409 35.3631 40.9974 35.646 41.2836 35.9933L41.6436 36.2732ZM38.884 36.8831C38.5493 37.1232 38.2439 37.4017 37.9742 37.713C37.858 37.9232 37.8213 38.1681 37.8709 38.4031C37.9204 38.6381 38.0529 38.8474 38.2441 38.9928C39.114 39.8526 39.9938 40.7125 40.8837 41.5623C40.9923 41.7111 41.1344 41.8321 41.2986 41.9155C41.4628 41.9989 41.6444 42.0424 41.8285 42.0424C42.0127 42.0424 42.1942 41.9989 42.3584 41.9155C42.5226 41.8321 42.6648 41.7111 42.7734 41.5623C43.6232 40.7025 44.4531 39.8326 45.2929 38.9728C46.1328 38.1129 47.0926 37.1631 47.9525 36.2332C48.1074 36.097 48.2201 35.9191 48.2771 35.7208C48.3341 35.5225 48.3331 35.312 48.2742 35.1142C48.2153 34.9164 48.1009 34.7397 47.9447 34.6049C47.7884 34.4701 47.5968 34.3829 47.3926 34.3536C46.9534 34.3519 46.5305 34.5203 46.2128 34.8235C44.993 35.9933 43.8532 37.2231 42.6734 38.4229C42.5724 38.5632 42.4396 38.6776 42.2857 38.7565C42.1318 38.8353 41.9614 38.8765 41.7885 38.8765C41.6156 38.8765 41.4452 38.8353 41.2914 38.7565C41.1375 38.6776 41.0046 38.5632 40.9037 38.4229C40.5337 38.0829 40.2038 37.703 39.8139 37.423C39.5218 37.214 39.2104 37.0332 38.884 36.8831Z" fill="white"/>
</g>
<defs>
<clipPath id="clip0_198_5744">
<rect width="70" height="70" fill="white"/>
</clipPath>
</defs>
</svg>
