<svg width="16" height="16" viewBox="0 0 16 16" fill="none" xmlns="http://www.w3.org/2000/svg">
<path d="M15.7071 8.70709L12.1641 12.2502C11.9688 12.4454 11.7129 12.5431 11.4569 12.5431C11.201 12.5431 10.9451 12.4454 10.7498 12.2502C10.3593 11.8596 10.3593 11.2265 10.7498 10.8359L12.5858 8.99999H1C0.447719 8.99999 0 8.55228 0 7.99999C0 7.44771 0.447719 6.99999 1 6.99999H12.5858L10.7498 5.16406C10.3593 4.77353 10.3593 4.14037 10.7498 3.74984C11.1404 3.35931 11.7735 3.35931 12.1641 3.74984L15.7071 7.2929C16.0976 7.6834 16.0976 8.31659 15.7071 8.70709Z" fill="white"/>
</svg>
