<svg width="48" height="48" viewBox="0 0 48 48" fill="none" xmlns="http://www.w3.org/2000/svg">
<g clip-path="url(#clip0_1848_168)">
<path d="M43.5 24C43.5 27.8567 42.3564 31.6269 40.2137 34.8336C38.071 38.0404 35.0255 40.5397 31.4623 42.0156C27.8992 43.4916 23.9784 43.8777 20.1957 43.1253C16.4131 42.3729 12.9386 40.5157 10.2114 37.7886C7.4843 35.0615 5.62711 31.5869 4.8747 27.8043C4.12228 24.0216 4.50845 20.1008 5.98436 16.5377C7.46027 12.9745 9.95963 9.92903 13.1664 7.78634C16.3731 5.64366 20.1433 4.5 24 4.5C29.1717 4.5 34.1316 6.55446 37.7886 10.2114C41.4455 13.8684 43.5 18.8283 43.5 24Z" fill="#FBFBFB"/>
<path d="M43.4997 24C43.4984 19.8715 42.1868 15.8499 39.7539 12.5145C37.3209 9.17902 33.8921 6.70182 29.9613 5.43964C26.0305 4.17746 21.8005 4.19543 17.8806 5.49095C13.9606 6.78648 10.553 9.29271 8.14844 12.6487C11.9038 9.95771 16.4928 8.68781 21.0973 9.06539C25.7018 9.44296 30.0226 11.4435 33.2894 14.7103C36.5562 17.9771 38.5567 22.2979 38.9343 26.9024C39.3118 31.5069 38.0419 36.0958 35.3509 39.8512C37.873 38.0486 39.9282 35.6698 41.3455 32.9127C42.7629 30.1556 43.5014 27.1 43.4997 24Z" fill="#E3EFFA"/>
<path d="M24 0.75C28.5984 0.75 33.0936 2.11359 36.917 4.66833C40.7404 7.22307 43.7205 10.8542 45.4802 15.1026C47.2399 19.351 47.7004 24.0258 46.8033 28.5358C45.9062 33.0459 43.6918 37.1887 40.4402 40.4402C37.1887 43.6918 33.0459 45.9062 28.5358 46.8033C24.0258 47.7004 19.351 47.2399 15.1026 45.4802C10.8542 43.7205 7.22307 40.7404 4.66833 36.917C2.11359 33.0936 0.75 28.5984 0.75 24C0.75 17.8337 3.19955 11.92 7.55977 7.55977C11.92 3.19955 17.8337 0.75 24 0.75ZM24 43.5C27.8567 43.5 31.6269 42.3563 34.8336 40.2137C38.0404 38.071 40.5397 35.0255 42.0156 31.4623C43.4916 27.8992 43.8777 23.9784 43.1253 20.1957C42.3729 16.4131 40.5157 12.9385 37.7886 10.2114C35.0615 7.48429 31.5869 5.6271 27.8043 4.87469C24.0216 4.12228 20.1008 4.50844 16.5377 5.98435C12.9745 7.46026 9.92903 9.95962 7.78634 13.1664C5.64366 16.3731 4.5 20.1433 4.5 24C4.5 29.1717 6.55446 34.1316 10.2114 37.7886C13.8684 41.4455 18.8283 43.5 24 43.5Z" fill="#FCC369"/>
<path d="M25.4999 12.8999V23.6099C25.5025 23.9585 25.3801 24.2964 25.1549 24.5624L20.4449 30.2924C20.3041 30.4516 20.1279 30.5755 19.9304 30.654C19.733 30.7326 19.5198 30.7636 19.3082 30.7446C19.0965 30.7257 18.8923 30.6572 18.7119 30.5448C18.5316 30.4324 18.3802 30.2791 18.2699 30.0974C18.0694 29.768 17.9828 29.3817 18.0235 28.9981C18.0641 28.6146 18.2298 28.2551 18.4949 27.9749L22.3199 23.4599C22.438 23.3252 22.5021 23.1516 22.4999 22.9724V12.8999C22.4801 12.691 22.5041 12.4802 22.5705 12.2811C22.6368 12.082 22.7441 11.8989 22.8853 11.7437C23.0265 11.5884 23.1986 11.4644 23.3905 11.3795C23.5825 11.2946 23.7901 11.2507 23.9999 11.2507C24.2098 11.2507 24.4174 11.2946 24.6093 11.3795C24.8013 11.4644 24.9734 11.5884 25.1146 11.7437C25.2558 11.8989 25.363 12.082 25.4294 12.2811C25.4958 12.4802 25.5198 12.691 25.4999 12.8999Z" fill="#555FA3"/>
<path d="M18.2699 30.0975C18.0694 29.768 17.9828 29.3817 18.0235 28.9982C18.0641 28.6146 18.2298 28.2551 18.4949 27.975L22.3199 23.46C22.438 23.3252 22.5021 23.1516 22.4999 22.9725V12.9C22.4999 12.5932 22.5801 12.2918 22.7324 12.0255C22.6558 12.0106 22.578 12.002 22.4999 12C22.0826 12.0208 21.6904 12.2061 21.4093 12.5153C21.1282 12.8245 20.981 13.2325 20.9999 13.65V23.7225C21.0021 23.9016 20.938 24.0752 20.8199 24.21L16.9949 28.725C16.7298 29.0051 16.5641 29.3646 16.5235 29.7482C16.4828 30.1317 16.5694 30.518 16.7699 30.8475C16.8802 31.0292 17.0316 31.1824 17.2119 31.2948C17.3923 31.4073 17.5965 31.4757 17.8082 31.4947C18.0198 31.5137 18.233 31.4826 18.4304 31.4041C18.6279 31.3255 18.8041 31.2017 18.9449 31.0425L19.2074 30.723C19.0165 30.689 18.8346 30.6159 18.6733 30.5083C18.512 30.4006 18.3746 30.2608 18.2699 30.0975Z" fill="#E3EFFA"/>
<path d="M24 3C19.8466 3 15.7865 4.23163 12.333 6.53914C8.8796 8.84665 6.18798 12.1264 4.59854 15.9636C3.0091 19.8009 2.59323 24.0233 3.40352 28.0969C4.21381 32.1705 6.21386 35.9123 9.15077 38.8492C12.0877 41.7861 15.8295 43.7862 19.9031 44.5965C23.9767 45.4068 28.1991 44.9909 32.0364 43.4015C35.8736 41.812 39.1534 39.1204 41.4609 35.667C43.7684 32.2135 45 28.1534 45 24C45 18.4305 42.7875 13.089 38.8493 9.15076C34.911 5.21249 29.5696 3 24 3ZM24 43.5C20.1433 43.5 16.3731 42.3563 13.1664 40.2137C9.95963 38.071 7.46027 35.0255 5.98436 31.4623C4.50845 27.8992 4.12228 23.9784 4.8747 20.1957C5.62711 16.4131 7.4843 12.9385 10.2114 10.2114C12.9386 7.48429 16.4131 5.6271 20.1957 4.87469C23.9784 4.12228 27.8992 4.50844 31.4623 5.98435C35.0255 7.46026 38.071 9.95962 40.2137 13.1664C42.3564 16.3731 43.5 20.1433 43.5 24C43.5 29.1717 41.4455 34.1316 37.7886 37.7886C34.1316 41.4455 29.1717 43.5 24 43.5Z" fill="#ED9B52"/>
<path d="M24.75 8.25V4.51875C24.501 4.50975 24.2513 4.5 24 4.5C23.7488 4.5 23.499 4.50975 23.25 4.51875V8.25H24.75Z" fill="#555FA3"/>
<path d="M23.25 39.75V43.4812C23.499 43.4902 23.7488 43.5 24 43.5C24.2513 43.5 24.501 43.4902 24.75 43.4812V39.75H23.25Z" fill="#555FA3"/>
<path d="M43.4812 23.25H39.75V24.75H43.4812C43.4902 24.501 43.5 24.2513 43.5 24C43.5 23.7488 43.4902 23.499 43.4812 23.25Z" fill="#555FA3"/>
<path d="M8.25 23.25H4.51875C4.50975 23.499 4.5 23.7488 4.5 24C4.5 24.2513 4.50975 24.501 4.51875 24.75H8.25V23.25Z" fill="#555FA3"/>
</g>
<defs>
<clipPath id="clip0_1848_168">
<rect width="48" height="48" fill="white"/>
</clipPath>
</defs>
</svg>
