<svg width="104" height="104" viewBox="0 0 104 104" fill="none" xmlns="http://www.w3.org/2000/svg">
<g filter="url(#filter0_d_1848_102)">
<rect x="20" y="10" width="64" height="64" rx="32" fill="url(#paint0_linear_1848_102)"/>
</g>
<g clip-path="url(#clip0_1848_102)">
<path d="M51.9997 39.2728C50.4952 39.2728 49.2725 40.4955 49.2725 42.0001C49.2725 43.5047 50.4952 44.7274 51.9997 44.7274C53.5043 44.7274 54.727 43.5047 54.727 42.0001C54.727 40.4955 53.5043 39.2728 51.9997 39.2728Z" fill="white"/>
<path d="M52 35.1819C47.4545 35.1819 43.5727 38.0091 42 42.0001C43.5727 45.991 47.4545 48.8183 52 48.8183C56.55 48.8183 60.4273 45.991 62 42.0001C60.4273 38.0091 56.55 35.1819 52 35.1819ZM52 46.5455C49.4909 46.5455 47.4545 44.5091 47.4545 42C47.4545 39.4909 49.4909 37.4546 52 37.4546C54.5091 37.4546 56.5455 39.491 56.5455 42.0001C56.5455 44.5092 54.5091 46.5455 52 46.5455Z" fill="white"/>
</g>
<defs>
<filter id="filter0_d_1848_102" x="0" y="0" width="104" height="104" filterUnits="userSpaceOnUse" color-interpolation-filters="sRGB">
<feFlood flood-opacity="0" result="BackgroundImageFix"/>
<feColorMatrix in="SourceAlpha" type="matrix" values="0 0 0 0 0 0 0 0 0 0 0 0 0 0 0 0 0 0 127 0" result="hardAlpha"/>
<feOffset dy="10"/>
<feGaussianBlur stdDeviation="10"/>
<feComposite in2="hardAlpha" operator="out"/>
<feColorMatrix type="matrix" values="0 0 0 0 1 0 0 0 0 0.643385 0 0 0 0 0.777816 0 0 0 1 0"/>
<feBlend mode="normal" in2="BackgroundImageFix" result="effect1_dropShadow_1848_102"/>
<feBlend mode="normal" in="SourceGraphic" in2="effect1_dropShadow_1848_102" result="shape"/>
</filter>
<linearGradient id="paint0_linear_1848_102" x1="52" y1="10" x2="52" y2="74" gradientUnits="userSpaceOnUse">
<stop stop-color="#FD5C99"/>
<stop offset="1" stop-color="#ED1667"/>
</linearGradient>
<clipPath id="clip0_1848_102">
<rect width="20" height="20" fill="white" transform="translate(42 32)"/>
</clipPath>
</defs>
</svg>
