<svg width="232" height="64" viewBox="0 0 232 64" fill="none" xmlns="http://www.w3.org/2000/svg">
<path d="M6.07 27.234C5.27267 27.234 4.51 27 3.782 26.532C3.45267 26.324 3.24467 26.0553 3.158 25.726C3.08867 25.3967 3.14933 25.0847 3.34 24.79C3.53067 24.478 3.79933 24.296 4.146 24.244C4.49267 24.1747 4.85667 24.244 5.238 24.452C5.35933 24.5213 5.498 24.582 5.654 24.634C5.81 24.6687 5.94867 24.686 6.07 24.686C6.538 24.686 7.01467 24.4693 7.5 24.036C8.00267 23.5853 8.44467 22.9613 8.826 22.164L15.976 7.5C16.3573 6.73733 16.9207 6.52067 17.666 6.85C18.4113 7.17933 18.5933 7.734 18.212 8.514L11.062 23.204C10.438 24.4693 9.70133 25.4573 8.852 26.168C8.00267 26.8787 7.07533 27.234 6.07 27.234ZM9.866 22.892L1.182 8.644C0.766 7.93333 0.930667 7.36133 1.676 6.928C2.404 6.512 2.98467 6.668 3.418 7.396L11.556 21.566L9.866 22.892ZM23.2079 27C22.8265 27 22.5059 26.87 22.2459 26.61C21.9859 26.35 21.8559 26.0293 21.8559 25.648V8.046C21.8559 7.64733 21.9859 7.32667 22.2459 7.084C22.5059 6.824 22.8265 6.694 23.2079 6.694C23.7279 6.694 24.1265 6.93667 24.4039 7.422L32.5419 23.724H31.7099L39.6399 7.422C39.9172 6.93667 40.3159 6.694 40.8359 6.694C41.2172 6.694 41.5379 6.824 41.7979 7.084C42.0579 7.32667 42.1879 7.64733 42.1879 8.046V25.648C42.1879 26.0293 42.0492 26.35 41.7719 26.61C41.5119 26.87 41.1999 27 40.8359 27C40.4545 27 40.1339 26.87 39.8739 26.61C39.6139 26.35 39.4839 26.0293 39.4839 25.648V11.79L40.0039 11.66L33.1919 25.544C32.8972 25.9947 32.5072 26.22 32.0219 26.22C31.4499 26.22 31.0339 25.9513 30.7739 25.414L24.0399 11.92L24.5599 11.79V25.648C24.5599 26.0293 24.4299 26.35 24.1699 26.61C23.9099 26.87 23.5892 27 23.2079 27ZM48.7508 27C48.3695 27 48.0488 26.87 47.7888 26.61C47.5288 26.35 47.3988 26.0293 47.3988 25.648V8.046C47.3988 7.64733 47.5288 7.32667 47.7888 7.084C48.0488 6.824 48.3695 6.694 48.7508 6.694C49.1495 6.694 49.4702 6.824 49.7128 7.084C49.9728 7.32667 50.1028 7.64733 50.1028 8.046V15.508H62.1668V8.046C62.1668 7.64733 62.2968 7.32667 62.5568 7.084C62.8168 6.824 63.1375 6.694 63.5188 6.694C63.9175 6.694 64.2382 6.824 64.4808 7.084C64.7235 7.32667 64.8448 7.64733 64.8448 8.046V25.648C64.8448 26.0293 64.7235 26.35 64.4808 26.61C64.2382 26.87 63.9175 27 63.5188 27C63.1375 27 62.8168 26.87 62.5568 26.61C62.2968 26.35 62.1668 26.0293 62.1668 25.648V17.9H50.1028V25.648C50.1028 26.0293 49.9728 26.35 49.7128 26.61C49.4702 26.87 49.1495 27 48.7508 27ZM71.3993 27C71.0179 27 70.6973 26.87 70.4373 26.61C70.1773 26.35 70.0473 26.0293 70.0473 25.648V7.916C70.0473 7.552 70.1773 7.25733 70.4373 7.032C70.6973 6.80667 71.0179 6.694 71.3993 6.694C71.7979 6.694 72.1186 6.80667 72.3613 7.032C72.6213 7.25733 72.7513 7.552 72.7513 7.916V14.52H77.1193C78.4193 14.52 79.5719 14.78 80.5773 15.3C81.5826 15.82 82.3626 16.5393 82.9173 17.458C83.4893 18.3593 83.7753 19.408 83.7753 20.604C83.7753 21.852 83.4893 22.9613 82.9173 23.932C82.3626 24.8853 81.5826 25.6393 80.5773 26.194C79.5719 26.7313 78.4193 27 77.1193 27H71.3993ZM72.7513 24.504H77.1193C77.9166 24.504 78.6186 24.3567 79.2253 24.062C79.8319 23.7673 80.3086 23.334 80.6553 22.762C81.0019 22.1727 81.1753 21.4533 81.1753 20.604C81.1753 19.7373 81.0019 19.0353 80.6553 18.498C80.3086 17.9433 79.8319 17.536 79.2253 17.276C78.6186 16.9987 77.9166 16.86 77.1193 16.86H72.7513V24.504ZM88.1693 27C87.7879 27 87.4673 26.87 87.2073 26.61C86.9473 26.35 86.8173 26.0293 86.8173 25.648V8.046C86.8173 7.64733 86.9473 7.32667 87.2073 7.084C87.4673 6.824 87.7879 6.694 88.1693 6.694C88.5506 6.694 88.8626 6.824 89.1053 7.084C89.3653 7.32667 89.4953 7.64733 89.4953 8.046V25.648C89.4953 26.0293 89.3653 26.35 89.1053 26.61C88.8626 26.87 88.5506 27 88.1693 27ZM96.1056 27C95.7242 27 95.3949 26.87 95.1176 26.61C94.8402 26.35 94.7016 26.0293 94.7016 25.648V8.046C94.7016 7.64733 94.8402 7.32667 95.1176 7.084C95.3949 6.824 95.7242 6.694 96.1056 6.694C96.5042 6.694 96.8162 6.824 97.0416 7.084C97.2842 7.32667 97.4056 7.64733 97.4056 8.046V22.788L109.886 7.188C110.163 6.85867 110.51 6.694 110.926 6.694C111.324 6.694 111.645 6.824 111.888 7.084C112.148 7.32667 112.278 7.64733 112.278 8.046V25.648C112.278 26.0293 112.148 26.35 111.888 26.61C111.645 26.87 111.324 27 110.926 27C110.544 27 110.224 26.87 109.964 26.61C109.704 26.35 109.574 26.0293 109.574 25.648V10.932L97.1456 26.532C97.0242 26.6707 96.8682 26.7833 96.6776 26.87C96.4869 26.9567 96.2962 27 96.1056 27ZM103.516 4.822C102.632 4.822 101.834 4.67467 101.124 4.38C100.413 4.068 99.8496 3.652 99.4336 3.132C99.0176 2.59467 98.8096 1.99667 98.8096 1.338C98.8096 0.973999 98.9222 0.670666 99.1476 0.427998C99.3729 0.185332 99.6502 0.0639997 99.9796 0.0639997C100.326 0.0639997 100.604 0.185332 100.812 0.427998C101.037 0.670666 101.15 0.973999 101.15 1.338C101.15 1.77133 101.375 2.144 101.826 2.456C102.276 2.75067 102.84 2.898 103.516 2.898C104.192 2.898 104.755 2.75067 105.206 2.456C105.656 2.144 105.882 1.77133 105.882 1.338C105.882 0.973999 105.994 0.670666 106.22 0.427998C106.445 0.185332 106.722 0.0639997 107.052 0.0639997C107.398 0.0639997 107.676 0.185332 107.884 0.427998C108.109 0.670666 108.222 0.973999 108.222 1.338C108.222 1.99667 108.014 2.59467 107.598 3.132C107.182 3.652 106.618 4.068 105.908 4.38C105.214 4.67467 104.417 4.822 103.516 4.822ZM134.194 27.26C132.79 27.26 131.473 27 130.242 26.48C129.029 25.9427 127.963 25.206 127.044 24.27C126.143 23.3167 125.432 22.2073 124.912 20.942C124.409 19.6767 124.158 18.3073 124.158 16.834C124.158 15.378 124.409 14.026 124.912 12.778C125.432 11.5127 126.143 10.412 127.044 9.476C127.963 8.52267 129.029 7.77733 130.242 7.24C131.455 6.70267 132.773 6.434 134.194 6.434C135.529 6.434 136.673 6.60733 137.626 6.954C138.597 7.30067 139.567 7.87267 140.538 8.67C140.677 8.774 140.781 8.88667 140.85 9.008C140.937 9.112 140.989 9.22467 141.006 9.346C141.041 9.45 141.058 9.58 141.058 9.736C141.058 10.0653 140.937 10.3427 140.694 10.568C140.469 10.776 140.191 10.8973 139.862 10.932C139.533 10.9493 139.212 10.8367 138.9 10.594C138.259 10.0393 137.591 9.61467 136.898 9.32C136.222 9.02533 135.321 8.878 134.194 8.878C133.171 8.878 132.209 9.086 131.308 9.502C130.407 9.918 129.609 10.49 128.916 11.218C128.24 11.946 127.711 12.7953 127.33 13.766C126.949 14.7193 126.758 15.742 126.758 16.834C126.758 17.9433 126.949 18.9833 127.33 19.954C127.711 20.9073 128.24 21.748 128.916 22.476C129.609 23.204 130.407 23.776 131.308 24.192C132.209 24.5907 133.171 24.79 134.194 24.79C135.078 24.79 135.91 24.6427 136.69 24.348C137.487 24.036 138.25 23.6113 138.978 23.074C139.29 22.8487 139.593 22.7533 139.888 22.788C140.2 22.8053 140.46 22.9267 140.668 23.152C140.876 23.36 140.98 23.6547 140.98 24.036C140.98 24.2093 140.945 24.3827 140.876 24.556C140.807 24.712 140.703 24.8593 140.564 24.998C139.628 25.7433 138.623 26.3067 137.548 26.688C136.491 27.0693 135.373 27.26 134.194 27.26ZM144.499 27C144.014 27 143.641 26.792 143.381 26.376C143.121 25.96 143.095 25.518 143.303 25.05L150.609 7.604C150.869 6.99733 151.294 6.694 151.883 6.694C152.507 6.694 152.932 6.99733 153.157 7.604L160.489 25.102C160.68 25.5873 160.645 26.0293 160.385 26.428C160.142 26.8093 159.77 27 159.267 27C159.007 27 158.756 26.9307 158.513 26.792C158.288 26.636 158.123 26.428 158.019 26.168L151.571 10.152H152.299L145.747 26.168C145.626 26.4453 145.444 26.6533 145.201 26.792C144.976 26.9307 144.742 27 144.499 27ZM145.877 22.528L146.917 20.292H157.109L158.149 22.528H145.877ZM165.9 26.168L163.586 25.05L170.892 7.604C171.152 6.99733 171.577 6.694 172.166 6.694C172.79 6.694 173.215 6.99733 173.44 7.604L180.772 25.102L178.614 26.168L172.01 10.152H172.374L165.9 26.168ZM162.988 31.628C162.607 31.628 162.286 31.498 162.026 31.238C161.766 30.978 161.636 30.6573 161.636 30.276V25.96C161.636 25.5613 161.766 25.2407 162.026 24.998C162.286 24.738 162.607 24.608 162.988 24.608H181.292C181.691 24.608 182.012 24.738 182.254 24.998C182.514 25.2407 182.644 25.5613 182.644 25.96V30.276C182.644 30.6573 182.514 30.978 182.254 31.238C182.012 31.498 181.691 31.628 181.292 31.628C180.911 31.628 180.59 31.498 180.33 31.238C180.07 30.978 179.94 30.6573 179.94 30.276V27H164.34V30.276C164.34 30.6573 164.21 30.978 163.95 31.238C163.708 31.498 163.387 31.628 162.988 31.628Z" fill="#D81961"/>
<path d="M4.952 63C4.57067 63 4.25 62.87 3.99 62.61C3.73 62.35 3.6 62.0293 3.6 61.648V44.046C3.6 43.6473 3.73 43.3267 3.99 43.084C4.25 42.824 4.57067 42.694 4.952 42.694H11.166C12.3447 42.694 13.376 42.928 14.26 43.396C15.1613 43.8467 15.8633 44.4793 16.366 45.294C16.886 46.1087 17.146 47.0447 17.146 48.102C17.146 48.9513 16.912 49.7227 16.444 50.416C15.9933 51.092 15.3693 51.6293 14.572 52.028C15.716 52.3053 16.6347 52.8513 17.328 53.666C18.0213 54.4807 18.368 55.5467 18.368 56.864C18.368 58.06 18.082 59.1173 17.51 60.036C16.9553 60.9547 16.1753 61.6827 15.17 62.22C14.1647 62.74 13.012 63 11.712 63H4.952ZM6.304 60.504H11.712C12.5093 60.504 13.2113 60.3653 13.818 60.088C14.4247 59.8107 14.9013 59.4033 15.248 58.866C15.5947 58.3287 15.768 57.6613 15.768 56.864C15.768 56.1187 15.5947 55.5033 15.248 55.018C14.9013 54.5327 14.4247 54.1687 13.818 53.926C13.2113 53.666 12.5093 53.536 11.712 53.536H6.304V60.504ZM6.304 51.04H11.166C12.154 51.04 12.96 50.7973 13.584 50.312C14.2253 49.8267 14.546 49.09 14.546 48.102C14.546 47.114 14.2253 46.386 13.584 45.918C12.96 45.4327 12.154 45.19 11.166 45.19H6.304V51.04ZM44.9303 62.662C44.6876 62.9047 44.3583 63.0173 43.9423 63C43.5263 63 43.1969 62.8613 42.9543 62.584L34.4263 52.652L42.3823 43.136C42.6249 42.8413 42.9369 42.694 43.3183 42.694C43.7169 42.6767 44.0376 42.8067 44.2803 43.084C44.5229 43.3613 44.6356 43.656 44.6183 43.968C44.6183 44.2627 44.4969 44.5487 44.2543 44.826L37.6763 52.47L44.9303 60.894C45.1729 61.1713 45.3029 61.466 45.3203 61.778C45.3549 62.0727 45.2249 62.3673 44.9303 62.662ZM31.3583 63C30.9769 63 30.6563 62.87 30.3963 62.61C30.1363 62.35 30.0063 62.0293 30.0063 61.648V44.046C30.0063 43.6473 30.1363 43.3267 30.3963 43.084C30.6563 42.824 30.9769 42.694 31.3583 42.694C31.7569 42.694 32.0776 42.824 32.3203 43.084C32.5803 43.3267 32.7103 43.6473 32.7103 44.046V51.508H36.9743V53.9H32.7103V61.648C32.7103 62.0293 32.5803 62.35 32.3203 62.61C32.0776 62.87 31.7569 63 31.3583 63ZM57.3688 63.26C55.8435 63.26 54.4481 63.0087 53.1828 62.506C51.9175 61.986 50.8255 61.2667 49.9068 60.348C49.0055 59.412 48.3035 58.3113 47.8008 57.046C47.2981 55.7633 47.0468 54.3593 47.0468 52.834C47.0468 51.3087 47.2981 49.9133 47.8008 48.648C48.3035 47.3827 49.0055 46.2907 49.9068 45.372C50.8255 44.436 51.9175 43.7167 53.1828 43.214C54.4481 42.694 55.8435 42.434 57.3688 42.434C58.8941 42.434 60.2808 42.694 61.5288 43.214C62.7941 43.7167 63.8861 44.436 64.8048 45.372C65.7235 46.2907 66.4341 47.3827 66.9368 48.648C67.4395 49.9133 67.6908 51.3087 67.6908 52.834C67.6908 54.3593 67.4395 55.7633 66.9368 57.046C66.4341 58.3113 65.7235 59.412 64.8048 60.348C63.8861 61.2667 62.7941 61.986 61.5288 62.506C60.2808 63.0087 58.8941 63.26 57.3688 63.26ZM57.3688 60.816C58.4955 60.816 59.5268 60.6167 60.4628 60.218C61.4161 59.802 62.2395 59.2387 62.9328 58.528C63.6261 57.8 64.1548 56.9507 64.5188 55.98C64.9001 55.0093 65.0908 53.9607 65.0908 52.834C65.0908 51.7073 64.9001 50.6587 64.5188 49.688C64.1548 48.7173 63.6261 47.8767 62.9328 47.166C62.2395 46.438 61.4161 45.8747 60.4628 45.476C59.5268 45.0773 58.4955 44.878 57.3688 44.878C56.2421 44.878 55.2021 45.0773 54.2488 45.476C53.3128 45.8747 52.4981 46.438 51.8048 47.166C51.1288 47.8767 50.6001 48.7173 50.2188 49.688C49.8375 50.6587 49.6468 51.7073 49.6468 52.834C49.6468 53.9607 49.8375 55.0093 50.2188 55.98C50.6001 56.9507 51.1288 57.8 51.8048 58.528C52.4981 59.2387 53.3128 59.802 54.2488 60.218C55.2021 60.6167 56.2421 60.816 57.3688 60.816ZM73.2782 63C72.8968 63 72.5762 62.87 72.3162 62.61C72.0562 62.35 71.9262 62.0293 71.9262 61.648V44.046C71.9262 43.6473 72.0562 43.3267 72.3162 43.084C72.5762 42.824 72.8968 42.694 73.2782 42.694C73.7982 42.694 74.1968 42.9367 74.4742 43.422L82.6122 59.724H81.7802L89.7102 43.422C89.9875 42.9367 90.3862 42.694 90.9062 42.694C91.2875 42.694 91.6082 42.824 91.8682 43.084C92.1282 43.3267 92.2582 43.6473 92.2582 44.046V61.648C92.2582 62.0293 92.1195 62.35 91.8422 62.61C91.5822 62.87 91.2702 63 90.9062 63C90.5248 63 90.2042 62.87 89.9442 62.61C89.6842 62.35 89.5542 62.0293 89.5542 61.648V47.79L90.0742 47.66L83.2622 61.544C82.9675 61.9947 82.5775 62.22 82.0922 62.22C81.5202 62.22 81.1042 61.9513 80.8442 61.414L74.1102 47.92L74.6302 47.79V61.648C74.6302 62.0293 74.5002 62.35 74.2402 62.61C73.9802 62.87 73.6595 63 73.2782 63ZM98.8211 63C98.4398 63 98.1191 62.87 97.8591 62.61C97.5991 62.35 97.4691 62.0293 97.4691 61.648V44.046C97.4691 43.6473 97.5991 43.3267 97.8591 43.084C98.1191 42.824 98.4398 42.694 98.8211 42.694C99.3411 42.694 99.7398 42.9367 100.017 43.422L108.155 59.724H107.323L115.253 43.422C115.53 42.9367 115.929 42.694 116.449 42.694C116.83 42.694 117.151 42.824 117.411 43.084C117.671 43.3267 117.801 43.6473 117.801 44.046V61.648C117.801 62.0293 117.662 62.35 117.385 62.61C117.125 62.87 116.813 63 116.449 63C116.068 63 115.747 62.87 115.487 62.61C115.227 62.35 115.097 62.0293 115.097 61.648V47.79L115.617 47.66L108.805 61.544C108.51 61.9947 108.12 62.22 107.635 62.22C107.063 62.22 106.647 61.9513 106.387 61.414L99.6531 47.92L100.173 47.79V61.648C100.173 62.0293 100.043 62.35 99.7831 62.61C99.5231 62.87 99.2025 63 98.8211 63ZM125.482 63.234C124.685 63.234 123.922 63 123.194 62.532C122.865 62.324 122.657 62.0553 122.57 61.726C122.501 61.3967 122.561 61.0847 122.752 60.79C122.943 60.478 123.211 60.296 123.558 60.244C123.905 60.1747 124.269 60.244 124.65 60.452C124.771 60.5213 124.91 60.582 125.066 60.634C125.222 60.6687 125.361 60.686 125.482 60.686C125.95 60.686 126.427 60.4693 126.912 60.036C127.415 59.5853 127.857 58.9613 128.238 58.164L135.388 43.5C135.769 42.7373 136.333 42.5207 137.078 42.85C137.823 43.1793 138.005 43.734 137.624 44.514L130.474 59.204C129.85 60.4693 129.113 61.4573 128.264 62.168C127.415 62.8787 126.487 63.234 125.482 63.234ZM129.278 58.892L120.594 44.644C120.178 43.9333 120.343 43.3613 121.088 42.928C121.816 42.512 122.397 42.668 122.83 43.396L130.968 57.566L129.278 58.892ZM142.62 63C142.239 63 141.918 62.87 141.658 62.61C141.398 62.35 141.268 62.0293 141.268 61.648V44.046C141.268 43.6473 141.398 43.3267 141.658 43.084C141.918 42.824 142.239 42.694 142.62 42.694C143.019 42.694 143.339 42.824 143.582 43.084C143.842 43.3267 143.972 43.6473 143.972 44.046V51.508H156.036V44.046C156.036 43.6473 156.166 43.3267 156.426 43.084C156.686 42.824 157.007 42.694 157.388 42.694C157.787 42.694 158.107 42.824 158.35 43.084C158.593 43.3267 158.714 43.6473 158.714 44.046V61.648C158.714 62.0293 158.593 62.35 158.35 62.61C158.107 62.87 157.787 63 157.388 63C157.007 63 156.686 62.87 156.426 62.61C156.166 62.35 156.036 62.0293 156.036 61.648V53.9H143.972V61.648C143.972 62.0293 143.842 62.35 143.582 62.61C143.339 62.87 143.019 63 142.62 63ZM163.11 63C162.625 63 162.252 62.792 161.992 62.376C161.732 61.96 161.706 61.518 161.914 61.05L169.22 43.604C169.48 42.9973 169.905 42.694 170.494 42.694C171.118 42.694 171.543 42.9973 171.768 43.604L179.1 61.102C179.291 61.5873 179.256 62.0293 178.996 62.428C178.754 62.8093 178.381 63 177.878 63C177.618 63 177.367 62.9307 177.124 62.792C176.899 62.636 176.734 62.428 176.63 62.168L170.182 46.152H170.91L164.358 62.168C164.237 62.4453 164.055 62.6533 163.812 62.792C163.587 62.9307 163.353 63 163.11 63ZM164.488 58.528L165.528 56.292H175.72L176.76 58.528H164.488ZM183.55 63C183.168 63 182.848 62.87 182.588 62.61C182.328 62.35 182.198 62.0293 182.198 61.648V44.046C182.198 43.6473 182.328 43.3267 182.588 43.084C182.848 42.824 183.168 42.694 183.55 42.694H188.75C190.05 42.694 191.202 42.98 192.208 43.552C193.213 44.124 193.993 44.9213 194.548 45.944C195.12 46.9493 195.406 48.1107 195.406 49.428C195.406 50.6933 195.12 51.82 194.548 52.808C193.993 53.796 193.213 54.5673 192.208 55.122C191.202 55.6767 190.05 55.954 188.75 55.954H184.902V61.648C184.902 62.0293 184.772 62.35 184.512 62.61C184.269 62.87 183.948 63 183.55 63ZM184.902 53.458H188.75C189.547 53.458 190.249 53.2847 190.856 52.938C191.462 52.5913 191.939 52.1147 192.286 51.508C192.632 50.9013 192.806 50.208 192.806 49.428C192.806 48.596 192.632 47.868 192.286 47.244C191.939 46.6027 191.462 46.1 190.856 45.736C190.249 45.372 189.547 45.19 188.75 45.19H184.902V53.458ZM213.321 62.662C213.078 62.9047 212.749 63.0173 212.333 63C211.917 63 211.588 62.8613 211.345 62.584L202.817 52.652L210.773 43.136C211.016 42.8413 211.328 42.694 211.709 42.694C212.108 42.6767 212.428 42.8067 212.671 43.084C212.914 43.3613 213.026 43.656 213.009 43.968C213.009 44.2627 212.888 44.5487 212.645 44.826L206.067 52.47L213.321 60.894C213.564 61.1713 213.694 61.466 213.711 61.778C213.746 62.0727 213.616 62.3673 213.321 62.662ZM199.749 63C199.368 63 199.047 62.87 198.787 62.61C198.527 62.35 198.397 62.0293 198.397 61.648V44.046C198.397 43.6473 198.527 43.3267 198.787 43.084C199.047 42.824 199.368 42.694 199.749 42.694C200.148 42.694 200.468 42.824 200.711 43.084C200.971 43.3267 201.101 43.6473 201.101 44.046V51.508H205.365V53.9H201.101V61.648C201.101 62.0293 200.971 62.35 200.711 62.61C200.468 62.87 200.148 63 199.749 63ZM218.766 63C218.385 63 218.064 62.87 217.804 62.61C217.544 62.35 217.414 62.0293 217.414 61.648V44.046C217.414 43.6473 217.544 43.3267 217.804 43.084C218.064 42.824 218.385 42.694 218.766 42.694H230.518C230.917 42.694 231.238 42.8153 231.48 43.058C231.723 43.2833 231.844 43.5867 231.844 43.968C231.844 44.332 231.723 44.6267 231.48 44.852C231.238 45.0773 230.917 45.19 230.518 45.19H220.118V51.508H227.58C227.979 51.508 228.3 51.6293 228.542 51.872C228.785 52.0973 228.906 52.392 228.906 52.756C228.906 53.12 228.785 53.4233 228.542 53.666C228.3 53.8913 227.979 54.004 227.58 54.004H220.118V60.504H230.518C230.917 60.504 231.238 60.6167 231.48 60.842C231.723 61.0673 231.844 61.362 231.844 61.726C231.844 62.1073 231.723 62.4193 231.48 62.662C231.238 62.8873 230.917 63 230.518 63H218.766Z" fill="#242A2D"/>
</svg>
